<?xml version="1.0" encoding="UTF-8"?>
<svg xmlns="http://www.w3.org/2000/svg" xmlns:i="http://ns.adobe.com/AdobeIllustrator/10.0/" version="1.1" viewBox="0 0 425 208">
  <defs>
    <style>
      .st0 {
        fill: #fc0;
      }

      .st1 {
        fill: #ed2124;
      }

      .st2, .st3 {
        fill: #fff;
      }

      .st2, .st4 {
        mix-blend-mode: darken;
      }

      .st5 {
        fill: #039;
      }

      .st6 {
        isolation: isolate;
      }

      .st7 {
        fill: #181715;
      }

      .st8 {
        fill: red;
      }

      .st9 {
        fill: #181715;
      }
    </style>
  </defs>
  <g class="st6">
    <g id="fond">
      <rect class="st3" width="425" height="208"></rect>
    </g>
    <g id="Texte">
      <g>
        <path class="st7" d="M29.1,24h-1.9v5.6h-.8v-5.6h-1.9v-.6h4.7v.6Z"></path>
        <path class="st7" d="M32.6,29.6v-2.6c0-.8-.3-1.2-.9-1.2s-.9.3-1.1.5v3.3h-.7v-6.4h.7c0,0,0,2.5,0,2.5h0c.2-.2.6-.5,1.3-.5s1.4.6,1.4,1.8v2.7h-.7Z"></path>
        <path class="st7" d="M37.6,27.6h-2.5c0,1,.5,1.4,1.3,1.4s1-.3,1.1-.4l.2.5c0,.1-.5.5-1.5.5s-1.9-.7-1.9-2.3.9-2.2,1.9-2.2,1.5.6,1.5,1.6,0,.6,0,.8ZM35.1,27h1.9c0-.1,0-.2,0-.3,0-.6-.3-.9-.8-.9s-1,.4-1.1,1.2Z"></path>
        <path class="st7" d="M41.5,25.7h0c.1-.2.4-.6,1.3-.6s1.7.7,1.7,2.2-.9,2.3-2.1,2.3-.7,0-.8-.2v1.9h-.7v-6.1h.7v.5ZM41.5,28.7c.2.1.4.2.8.2.9,0,1.4-.4,1.4-1.6s-.5-1.6-1.2-1.6-.9.3-1,.5v2.5Z"></path>
        <path class="st7" d="M47.6,25.9c0,0-.2,0-.4,0-.6,0-.9.4-1,.6v3.1h-.7v-4.3h.7v.6h0c.1-.3.4-.7,1.1-.7s.3,0,.4,0v.7Z"></path>
        <path class="st7" d="M50.1,29.7c-1.1,0-1.9-.7-1.9-2.3s.9-2.3,2-2.3,1.9.7,1.9,2.3-.9,2.3-2,2.3ZM50.1,25.8c-.7,0-1.2.5-1.2,1.6s.5,1.6,1.2,1.6,1.2-.5,1.2-1.6-.5-1.6-1.2-1.6Z"></path>
        <path class="st7" d="M54.3,31.5c-1,0-1.6-.4-1.6-1.2s.5-.9.8-1.1h0c-.2-.2-.3-.4-.3-.6,0-.5.4-.7.5-.7h0c-.4-.2-.7-.7-.7-1.3,0-1,.7-1.5,1.6-1.5s.5,0,.6.1h1.5v.6h-.7c.2.2.2.5.2.8,0,.9-.7,1.5-1.7,1.5s-.2,0-.4,0c-.1,0-.4.2-.4.4s.1.3.5.3h.9c.9,0,1.4.4,1.4,1.1s-.8,1.6-2.3,1.6ZM54.3,30.9c1.1,0,1.5-.4,1.5-.8s-.2-.6-.7-.6h-1c-.1,0-.3,0-.4,0-.2.1-.5.4-.5.8s.3.7,1,.7ZM54.6,25.7c-.5,0-.9.2-.9.9s.4.9.9.9.9-.2.9-.9-.4-.9-.9-.9Z"></path>
        <path class="st7" d="M59.7,25.9c0,0-.2,0-.4,0-.6,0-.9.4-1,.6v3.1h-.7v-4.3h.7v.6h0c.1-.3.4-.7,1.1-.7s.3,0,.4,0v.7Z"></path>
        <path class="st7" d="M62.2,27.2h.4v-.3c0-.8-.3-1-.9-1s-.9.3-1.1.4l-.3-.5c.2-.2.7-.5,1.5-.5s1.4.5,1.4,1.7v1.8c0,.4,0,.8,0,.9h-.7c0-.1,0-.3,0-.5h0c-.2.2-.5.6-1.2.6s-1.2-.5-1.2-1.2.9-1.3,2-1.3ZM61.6,29.1c.6,0,.9-.3,1-.4v-.9h-.4c-.8,0-1.2.3-1.2.7s.3.7.6.7Z"></path>
        <path class="st7" d="M67.2,29.6v-2.6c0-.9-.2-1.2-.8-1.2s-1,.3-1.1.5v3.3h-.7v-4.3h.7v.5h0c.2-.2.6-.6,1.3-.6s.9.2,1.1.6c.2-.2.7-.6,1.4-.6s1.5.6,1.5,1.8v2.7h-.7v-2.6c0-.9-.3-1.2-.9-1.2s-.9.3-1,.5c0,.2,0,.4,0,.6v2.7h-.7Z"></path>
        <path class="st7" d="M74.4,29.6v-2.6c0-.9-.2-1.2-.8-1.2s-1,.3-1.1.5v3.3h-.7v-4.3h.7v.5h0c.2-.2.6-.6,1.3-.6s.9.2,1.1.6c.2-.2.7-.6,1.4-.6s1.5.6,1.5,1.8v2.7h-.7v-2.6c0-.9-.3-1.2-.9-1.2s-.9.3-1,.5c0,.2,0,.4,0,.6v2.7h-.7Z"></path>
        <path class="st7" d="M82,27.6h-2.5c0,1,.5,1.4,1.3,1.4s1-.3,1.1-.4l.2.5c0,.1-.5.5-1.5.5s-1.9-.7-1.9-2.3.9-2.2,1.9-2.2,1.5.6,1.5,1.6,0,.6,0,.8ZM79.5,27h1.9c0-.1,0-.2,0-.3,0-.6-.3-.9-.8-.9s-1,.4-1.1,1.2Z"></path>
        <path class="st7" d="M84.8,30.8v-.3c.2-.2.5-.4.5-.9-.3,0-.5-.2-.5-.5s.2-.5.5-.5.6.2.6.8-.6,1.2-1,1.4ZM86.4,30.8v-.3c.2-.2.5-.4.5-.9-.3,0-.5-.2-.5-.5s.2-.5.5-.5.6.2.6.8-.6,1.2-1,1.4Z"></path>
        <path class="st7" d="M91.5,27.6h-2.5c0,1,.5,1.4,1.3,1.4s1-.3,1.1-.4l.2.5c0,.1-.5.5-1.5.5s-1.9-.7-1.9-2.3.9-2.2,1.9-2.2,1.5.6,1.5,1.6,0,.6,0,.8ZM89,27h1.9c0-.1,0-.2,0-.3,0-.6-.3-.9-.8-.9s-1,.4-1.1,1.2Z"></path>
        <path class="st7" d="M94.3,27.3l1.4,2.2h-.8l-.9-1.7h0l-.9,1.7h-.8l1.4-2.2-1.3-2.1h.8l.9,1.6h0l.9-1.6h.8l-1.3,2.1Z"></path>
        <path class="st7" d="M96.9,24.2c-.3,0-.5-.2-.5-.5s.2-.5.5-.5.5.2.5.5-.2.5-.5.5ZM97.3,29.6h-.7v-4.3h.7v4.3Z"></path>
        <path class="st7" d="M100.7,26.1c-.1,0-.5-.4-.9-.4s-.7.2-.7.5.2.5.7.7l.3.2c.7.3,1,.7,1,1.3s-.5,1.3-1.5,1.3-1.1-.3-1.3-.5l.3-.6c.2.2.5.4,1,.4s.8-.2.8-.5-.3-.5-.8-.8l-.3-.2c-.6-.3-.9-.7-.9-1.3s.6-1.1,1.4-1.1,1.1.3,1.2.4l-.3.6Z"></path>
        <path class="st7" d="M104.1,25.9h-1.1v2.2c0,.7.2.9.6.9s.4,0,.5-.1v.6c0,0-.2.2-.7.2-.8,0-1.2-.5-1.2-1.5v-2.3h-.6v-.5h.6c0-.1,0-1.3,0-1.3h.6v1.2h1.2v.6Z"></path>
        <path class="st7" d="M110.5,27.1h-3.8v-.6h3.8v.6Z"></path>
        <path class="st7" d="M115.5,25.9h-1v3.7h-.7v-3.7h-.6v-.5h.6v-.8c0-1,.5-1.4,1.3-1.4s.5,0,.6.1v.6c-.2,0-.4-.1-.6-.1-.4,0-.6.2-.6.8v.7h1.1v.6Z"></path>
        <path class="st7" d="M118.5,25.9c0,0-.2,0-.4,0-.6,0-.9.4-1,.6v3.1h-.7v-4.3h.7v.6h0c.1-.3.4-.7,1.1-.7s.3,0,.4,0v.7Z"></path>
        <path class="st7" d="M120.9,29.7c-1.1,0-1.9-.7-1.9-2.3s.9-2.3,2-2.3,1.9.7,1.9,2.3-.9,2.3-2,2.3ZM121,25.8c-.7,0-1.2.5-1.2,1.6s.5,1.6,1.2,1.6,1.2-.5,1.2-1.6-.5-1.6-1.2-1.6Z"></path>
        <path class="st7" d="M126.6,29.6v-2.6c0-.9-.2-1.2-.8-1.2s-1,.3-1.1.5v3.3h-.7v-4.3h.7v.5h0c.2-.2.6-.6,1.3-.6s.9.2,1.1.6c.2-.2.7-.6,1.4-.6s1.5.6,1.5,1.8v2.7h-.7v-2.6c0-.9-.3-1.2-.9-1.2s-.9.3-1,.5c0,.2,0,.4,0,.6v2.7h-.7Z"></path>
        <path class="st7" d="M135.3,26.1c-.1,0-.5-.4-.9-.4s-.7.2-.7.5.2.5.7.7l.3.2c.7.3,1,.7,1,1.3s-.5,1.3-1.5,1.3-1.1-.3-1.3-.5l.3-.6c.2.2.5.4,1,.4s.8-.2.8-.5-.3-.5-.8-.8l-.3-.2c-.6-.3-.9-.7-.9-1.3s.6-1.1,1.4-1.1,1.1.3,1.2.4l-.3.6Z"></path>
        <path class="st7" d="M139.4,26.1c0,0-.4-.3-.9-.3-.8,0-1.4.5-1.4,1.6s.5,1.7,1.3,1.7.8-.2.9-.3l.2.6c-.2.1-.5.4-1.3.4-1.1,0-1.9-.7-1.9-2.3s1.1-2.3,2.1-2.3,1,.3,1.2.4l-.3.6Z"></path>
        <path class="st7" d="M141,24.2c-.3,0-.5-.2-.5-.5s.2-.5.5-.5.5.2.5.5-.2.5-.5.5ZM141.3,29.6h-.7v-4.3h.7v4.3Z"></path>
        <path class="st7" d="M145.6,27.6h-2.5c0,1,.5,1.4,1.3,1.4s1-.3,1.1-.4l.2.5c0,.1-.5.5-1.5.5s-1.9-.7-1.9-2.3.9-2.2,1.9-2.2,1.5.6,1.5,1.6,0,.6,0,.8ZM143.1,27h1.9c0-.1,0-.2,0-.3,0-.6-.3-.9-.8-.9s-1,.4-1.1,1.2Z"></path>
        <path class="st7" d="M149.6,29.6v-2.6c0-.8-.3-1.2-.9-1.2s-.9.3-1.1.5v3.3h-.7v-4.3h.7v.5h0c.2-.2.6-.6,1.3-.6s1.4.6,1.4,1.8v2.7h-.7Z"></path>
        <path class="st7" d="M154.3,26.1c0,0-.4-.3-.9-.3-.8,0-1.4.5-1.4,1.6s.5,1.7,1.3,1.7.8-.2.9-.3l.2.6c-.2.1-.5.4-1.3.4-1.1,0-1.9-.7-1.9-2.3s1.1-2.3,2.1-2.3,1,.3,1.2.4l-.3.6Z"></path>
        <path class="st7" d="M158.4,27.6h-2.5c0,1,.5,1.4,1.3,1.4s1-.3,1.1-.4l.2.5c0,.1-.5.5-1.5.5s-1.9-.7-1.9-2.3.9-2.2,1.9-2.2,1.5.6,1.5,1.6,0,.6,0,.8ZM155.9,27h1.9c0-.1,0-.2,0-.3,0-.6-.3-.9-.8-.9s-1,.4-1.1,1.2Z"></path>
        <path class="st7" d="M163.6,25.9h-1.1v2.2c0,.7.2.9.6.9s.4,0,.5-.1v.6c0,0-.2.2-.7.2-.8,0-1.2-.5-1.2-1.5v-2.3h-.6v-.5h.6c0-.1,0-1.3,0-1.3h.6v1.2h1.2v.6Z"></path>
        <path class="st7" d="M166.2,29.7c-1.1,0-1.9-.7-1.9-2.3s.9-2.3,2-2.3,1.9.7,1.9,2.3-.9,2.3-2,2.3ZM166.2,25.8c-.7,0-1.2.5-1.2,1.6s.5,1.6,1.2,1.6,1.2-.5,1.2-1.6-.5-1.6-1.2-1.6Z"></path>
        <path class="st7" d="M172.6,29.6c-.8,0-1.2-.3-1.4-.5v-6h.7c0,0,0,2.5,0,2.5h0c.2-.2.6-.5,1.3-.5s1.6.7,1.6,2-1,2.5-2.2,2.5ZM173,25.8c-.5,0-.9.3-1,.5v2.5c.1,0,.3.2.7.2.9,0,1.5-.4,1.5-1.7s-.4-1.5-1.1-1.5Z"></path>
        <path class="st7" d="M176.6,27.8c0,.8.3,1.2.8,1.2s.9-.3,1.1-.5v-3.3h.7v4.3h-.7v-.5h0c-.1.2-.5.6-1.3.6s-1.4-.5-1.4-1.8v-2.7h.7v2.6Z"></path>
        <path class="st7" d="M182.7,26.1c-.1,0-.5-.4-.9-.4s-.7.2-.7.5.2.5.7.7l.3.2c.7.3,1,.7,1,1.3s-.5,1.3-1.5,1.3-1.1-.3-1.3-.5l.3-.6c.2.2.5.4,1,.4s.8-.2.8-.5-.3-.5-.8-.8l-.3-.2c-.6-.3-.9-.7-.9-1.3s.6-1.1,1.4-1.1,1.1.3,1.2.4l-.3.6Z"></path>
        <path class="st7" d="M184.4,24.2c-.3,0-.5-.2-.5-.5s.2-.5.5-.5.5.2.5.5-.2.5-.5.5ZM184.8,29.6h-.7v-4.3h.7v4.3Z"></path>
        <path class="st7" d="M188.8,29.6v-2.6c0-.8-.3-1.2-.9-1.2s-.9.3-1.1.5v3.3h-.7v-4.3h.7v.5h0c.2-.2.6-.6,1.3-.6s1.4.6,1.4,1.8v2.7h-.7Z"></path>
        <path class="st7" d="M193.8,27.6h-2.5c0,1,.5,1.4,1.3,1.4s1-.3,1.1-.4l.2.5c0,.1-.5.5-1.5.5s-1.9-.7-1.9-2.3.9-2.2,1.9-2.2,1.5.6,1.5,1.6,0,.6,0,.8ZM191.3,27h1.9c0-.1,0-.2,0-.3,0-.6-.3-.9-.8-.9s-1,.4-1.1,1.2Z"></path>
        <path class="st7" d="M197.1,26.1c-.1,0-.5-.4-.9-.4s-.7.2-.7.5.2.5.7.7l.3.2c.7.3,1,.7,1,1.3s-.5,1.3-1.5,1.3-1.1-.3-1.3-.5l.3-.6c.2.2.5.4,1,.4s.8-.2.8-.5-.3-.5-.8-.8l-.3-.2c-.6-.3-.9-.7-.9-1.3s.6-1.1,1.4-1.1,1.1.3,1.2.4l-.3.6Z"></path>
        <path class="st7" d="M200.7,26.1c-.1,0-.5-.4-.9-.4s-.7.2-.7.5.2.5.7.7l.3.2c.7.3,1,.7,1,1.3s-.5,1.3-1.5,1.3-1.1-.3-1.3-.5l.3-.6c.2.2.5.4,1,.4s.8-.2.8-.5-.3-.5-.8-.8l-.3-.2c-.6-.3-.9-.7-.9-1.3s.6-1.1,1.4-1.1,1.1.3,1.2.4l-.3.6Z"></path>
        <path class="st7" d="M202.8,23.2v.3c-.2.2-.5.4-.5.9.3,0,.5.2.5.5s-.2.5-.5.5-.6-.2-.6-.8.6-1.2,1-1.4ZM204.4,23.2v.3c-.2.2-.5.4-.5.9.3,0,.5.2.5.5s-.2.5-.5.5-.6-.2-.6-.8.6-1.2,1-1.4Z"></path>
        <path class="st7" d="M211.4,29.6h-.6l-.9-2.4h0l-.9,2.4h-.6l-1.6-4.3h.8l1.1,3.4h0l.9-2.3-.4-1.1h.8l1.1,3.4h0l1.1-3.4h.7l-1.6,4.3Z"></path>
        <path class="st7" d="M214.1,24.2c-.3,0-.5-.2-.5-.5s.2-.5.5-.5.5.2.5.5-.2.5-.5.5ZM214.5,29.6h-.7v-4.3h.7v4.3Z"></path>
        <path class="st7" d="M217.8,25.9h-1.1v2.2c0,.7.2.9.6.9s.4,0,.5-.1v.6c0,0-.2.2-.7.2-.8,0-1.2-.5-1.2-1.5v-2.3h-.6v-.5h.6c0-.1,0-1.3,0-1.3h.6v1.2h1.2v.6Z"></path>
        <path class="st7" d="M221.5,29.6v-2.6c0-.8-.3-1.2-.9-1.2s-.9.3-1.1.5v3.3h-.7v-6.4h.7c0,0,0,2.5,0,2.5h0c.2-.2.6-.5,1.3-.5s1.4.6,1.4,1.8v2.7h-.7Z"></path>
        <path class="st7" d="M225.8,24.2c-.3,0-.5-.2-.5-.5s.2-.5.5-.5.5.2.5.5-.2.5-.5.5ZM226.2,29.6h-.7v-4.3h.7v4.3Z"></path>
        <path class="st7" d="M229.5,25.9h-1.1v2.2c0,.7.2.9.6.9s.4,0,.5-.1v.6c0,0-.2.2-.7.2-.8,0-1.2-.5-1.2-1.5v-2.3h-.6v-.5h.6c0-.1,0-1.3,0-1.3h.6v1.2h1.2v.6Z"></path>
        <path class="st7" d="M232.6,26.1c-.1,0-.5-.4-.9-.4s-.7.2-.7.5.2.5.7.7l.3.2c.7.3,1,.7,1,1.3s-.5,1.3-1.5,1.3-1.1-.3-1.3-.5l.3-.6c.2.2.5.4,1,.4s.8-.2.8-.5-.3-.5-.8-.8l-.3-.2c-.6-.3-.9-.7-.9-1.3s.6-1.1,1.4-1.1,1.1.3,1.2.4l-.3.6Z"></path>
        <path class="st7" d="M236.6,25.7h0c.1-.2.4-.6,1.3-.6s1.7.7,1.7,2.2-.9,2.3-2.1,2.3-.7,0-.8-.2v1.9h-.7v-6.1h.7v.5ZM236.7,28.7c.2.1.4.2.8.2.9,0,1.4-.4,1.4-1.6s-.5-1.6-1.2-1.6-.9.3-1,.5v2.5Z"></path>
        <path class="st7" d="M242.8,25.9c0,0-.2,0-.4,0-.6,0-.9.4-1,.6v3.1h-.7v-4.3h.7v.6h0c.1-.3.4-.7,1.1-.7s.3,0,.4,0v.7Z"></path>
        <path class="st7" d="M245.2,29.7c-1.1,0-1.9-.7-1.9-2.3s.9-2.3,2-2.3,1.9.7,1.9,2.3-.9,2.3-2,2.3ZM245.3,25.8c-.7,0-1.2.5-1.2,1.6s.5,1.6,1.2,1.6,1.2-.5,1.2-1.6-.5-1.6-1.2-1.6Z"></path>
        <path class="st7" d="M249,29.5c0,1.4-.6,2-1.8,2v-.6c.7,0,1.1-.4,1.1-1.5v-4.1h.7v4.2ZM248.6,24.2c-.3,0-.5-.2-.5-.5s.2-.5.5-.5.5.2.5.5-.2.5-.5.5Z"></path>
        <path class="st7" d="M253.3,27.6h-2.5c0,1,.5,1.4,1.3,1.4s1-.3,1.1-.4l.2.5c0,.1-.5.5-1.5.5s-1.9-.7-1.9-2.3.9-2.2,1.9-2.2,1.5.6,1.5,1.6,0,.6,0,.8ZM250.8,27h1.9c0-.1,0-.2,0-.3,0-.6-.3-.9-.8-.9s-1,.4-1.1,1.2Z"></path>
        <path class="st7" d="M257.3,26.1c0,0-.4-.3-.9-.3-.8,0-1.4.5-1.4,1.6s.5,1.7,1.3,1.7.8-.2.9-.3l.2.6c-.2.1-.5.4-1.3.4-1.1,0-1.9-.7-1.9-2.3s1.1-2.3,2.1-2.3,1,.3,1.2.4l-.3.6Z"></path>
        <path class="st7" d="M260.4,25.9h-1.1v2.2c0,.7.2.9.6.9s.4,0,.5-.1v.6c0,0-.2.2-.7.2-.8,0-1.2-.5-1.2-1.5v-2.3h-.6v-.5h.6c0-.1,0-1.3,0-1.3h.6v1.2h1.2v.6Z"></path>
        <path class="st7" d="M263.5,26.1c-.1,0-.5-.4-.9-.4s-.7.2-.7.5.2.5.7.7l.3.2c.7.3,1,.7,1,1.3s-.5,1.3-1.5,1.3-1.1-.3-1.3-.5l.3-.6c.2.2.5.4,1,.4s.8-.2.8-.5-.3-.5-.8-.8l-.3-.2c-.6-.3-.9-.7-.9-1.3s.6-1.1,1.4-1.1,1.1.3,1.2.4l-.3.6Z"></path>
        <path class="st7" d="M267.3,24.2c-.3,0-.5-.2-.5-.5s.2-.5.5-.5.5.2.5.5-.2.5-.5.5ZM267.6,29.6h-.7v-4.3h.7v4.3Z"></path>
        <path class="st7" d="M271,26.1c-.1,0-.5-.4-.9-.4s-.7.2-.7.5.2.5.7.7l.3.2c.7.3,1,.7,1,1.3s-.5,1.3-1.5,1.3-1.1-.3-1.3-.5l.3-.6c.2.2.5.4,1,.4s.8-.2.8-.5-.3-.5-.8-.8l-.3-.2c-.6-.3-.9-.7-.9-1.3s.6-1.1,1.4-1.1,1.1.3,1.2.4l-.3.6Z"></path>
        <path class="st7" d="M276.4,25.9h-1v3.7h-.7v-3.7h-.6v-.5h.6v-.8c0-1,.5-1.4,1.3-1.4s.5,0,.6.1v.6c-.2,0-.4-.1-.6-.1-.4,0-.6.2-.6.8v.7h1.1v.6Z"></path>
        <path class="st7" d="M278,27.8c0,.8.3,1.2.8,1.2s.9-.3,1.1-.5v-3.3h.7v4.3h-.7v-.5h0c-.1.2-.5.6-1.3.6s-1.4-.5-1.4-1.8v-2.7h.7v2.6Z"></path>
        <path class="st7" d="M284.6,29.6v-2.6c0-.8-.3-1.2-.9-1.2s-.9.3-1.1.5v3.3h-.7v-4.3h.7v.5h0c.2-.2.6-.6,1.3-.6s1.4.6,1.4,1.8v2.7h-.7Z"></path>
        <path class="st7" d="M288.5,25.2c.4,0,.6,0,.8.2v-2.1h.7c0,0,0,6.4,0,6.4h-.7v-.5h0c-.1.2-.4.6-1.3.6s-1.7-.8-1.7-2.2,1.1-2.3,2.1-2.3ZM288.3,29c.6,0,.9-.3,1-.5v-2.5c-.1-.1-.4-.2-.8-.2-.8,0-1.4.4-1.4,1.6s.5,1.6,1.2,1.6Z"></path>
        <path class="st7" d="M294.4,27.6h-2.5c0,1,.5,1.4,1.3,1.4s1-.3,1.1-.4l.2.5c0,.1-.5.5-1.5.5s-1.9-.7-1.9-2.3.9-2.2,1.9-2.2,1.5.6,1.5,1.6,0,.6,0,.8ZM291.8,27h1.9c0-.1,0-.2,0-.3,0-.6-.3-.9-.8-.9s-1,.4-1.1,1.2Z"></path>
        <path class="st7" d="M297.4,25.2c.4,0,.6,0,.8.2v-2.1h.7c0,0,0,6.4,0,6.4h-.7v-.5h0c-.1.2-.4.6-1.3.6s-1.7-.8-1.7-2.2,1.1-2.3,2.1-2.3ZM297.3,29c.6,0,.9-.3,1-.5v-2.5c-.1-.1-.4-.2-.8-.2-.8,0-1.4.4-1.4,1.6s.5,1.6,1.2,1.6Z"></path>
        <path class="st7" d="M303.7,29.6c-.8,0-1.2-.3-1.4-.5v-6h.7c0,0,0,2.5,0,2.5h0c.2-.2.6-.5,1.3-.5s1.6.7,1.6,2-1,2.5-2.2,2.5ZM304,25.8c-.5,0-.9.3-1,.5v2.5c.1,0,.3.2.7.2.9,0,1.5-.4,1.5-1.7s-.4-1.5-1.1-1.5Z"></path>
        <path class="st7" d="M308.5,29.8c-.4,1-.8,1.6-1.7,1.6s-.4,0-.4,0v-.6s.2,0,.3,0c.6,0,.9-.3,1.1-1v-.3c0,0-1.5-4.3-1.5-4.3h.8l1.2,3.4h0l1.1-3.4h.7l-1.6,4.6Z"></path>
        <path class="st7" d="M314.7,25.9h-1.1v2.2c0,.7.2.9.6.9s.4,0,.5-.1v.6c0,0-.2.2-.7.2-.8,0-1.2-.5-1.2-1.5v-2.3h-.6v-.5h.6c0-.1,0-1.3,0-1.3h.6v1.2h1.2v.6Z"></path>
        <path class="st7" d="M318.4,29.6v-2.6c0-.8-.3-1.2-.9-1.2s-.9.3-1.1.5v3.3h-.7v-6.4h.7c0,0,0,2.5,0,2.5h0c.2-.2.6-.5,1.3-.5s1.4.6,1.4,1.8v2.7h-.7Z"></path>
        <path class="st7" d="M323.4,27.6h-2.5c0,1,.5,1.4,1.3,1.4s1-.3,1.1-.4l.2.5c0,.1-.5.5-1.5.5s-1.9-.7-1.9-2.3.9-2.2,1.9-2.2,1.5.6,1.5,1.6,0,.6,0,.8ZM320.9,27h1.9c0-.1,0-.2,0-.3,0-.6-.3-.9-.8-.9s-1,.4-1.1,1.2Z"></path>
        <path class="st7" d="M326.8,29.6v-6.2h3.4v.6h-2.7v2.3h2.4v.6h-2.4v2.7h-.8Z"></path>
        <path class="st7" d="M334.1,27.6h-2.5c0,1,.5,1.4,1.3,1.4s1-.3,1.1-.4l.2.5c0,.1-.5.5-1.5.5s-1.9-.7-1.9-2.3.9-2.2,1.9-2.2,1.5.6,1.5,1.6,0,.6,0,.8ZM331.6,27h1.9c0-.1,0-.2,0-.3,0-.6-.3-.9-.8-.9s-1,.4-1.1,1.2Z"></path>
        <path class="st7" d="M337.2,25.2c.4,0,.6,0,.8.2v-2.1h.7c0,0,0,6.4,0,6.4h-.7v-.5h0c-.1.2-.4.6-1.3.6s-1.7-.8-1.7-2.2,1.1-2.3,2.1-2.3ZM337,29c.6,0,.9-.3,1-.5v-2.5c-.1-.1-.4-.2-.8-.2-.8,0-1.4.4-1.4,1.6s.5,1.6,1.2,1.6Z"></path>
        <path class="st7" d="M343,27.6h-2.5c0,1,.5,1.4,1.3,1.4s1-.3,1.1-.4l.2.5c0,.1-.5.5-1.5.5s-1.9-.7-1.9-2.3.9-2.2,1.9-2.2,1.5.6,1.5,1.6,0,.6,0,.8ZM340.5,27h1.9c0-.1,0-.2,0-.3,0-.6-.3-.9-.8-.9s-1,.4-1.1,1.2Z"></path>
        <path class="st7" d="M346.3,25.9c0,0-.2,0-.4,0-.6,0-.9.4-1,.6v3.1h-.7v-4.3h.7v.6h0c.1-.3.4-.7,1.1-.7s.3,0,.4,0v.7Z"></path>
        <path class="st7" d="M348.9,27.2h.4v-.3c0-.8-.3-1-.9-1s-.9.3-1.1.4l-.3-.5c.2-.2.7-.5,1.5-.5s1.4.5,1.4,1.7v1.8c0,.4,0,.8,0,.9h-.7c0-.1,0-.3,0-.5h0c-.2.2-.5.6-1.2.6s-1.2-.5-1.2-1.2.9-1.3,2-1.3ZM348.2,29.1c.6,0,.9-.3,1-.4v-.9h-.4c-.8,0-1.2.3-1.2.7s.3.7.6.7Z"></path>
        <path class="st7" d="M352,28.5c0,.4.1.5.4.5s.3,0,.3,0v.5s-.2.1-.5.1c-.6,0-.9-.3-.9-1.1v-5.3h.7c0,0,0,5.3,0,5.3Z"></path>
        <path class="st7" d="M361.5,29.6h-.8v-4.4h0l-1.8,4.4h-.7l-1.8-4.4h0v4.4h-.8v-6.2h.9l2.1,5.1h0l2.1-5.1h.8v6.2Z"></path>
        <path class="st7" d="M363.3,24.2c-.3,0-.5-.2-.5-.5s.2-.5.5-.5.5.2.5.5-.2.5-.5.5ZM363.7,29.6h-.7v-4.3h.7v4.3Z"></path>
        <path class="st7" d="M367.7,29.6v-2.6c0-.8-.3-1.2-.9-1.2s-.9.3-1.1.5v3.3h-.7v-4.3h.7v.5h0c.2-.2.6-.6,1.3-.6s1.4.6,1.4,1.8v2.7h-.7Z"></path>
        <path class="st7" d="M370,24.2c-.3,0-.5-.2-.5-.5s.2-.5.5-.5.5.2.5.5-.2.5-.5.5ZM370.4,29.6h-.7v-4.3h.7v4.3Z"></path>
        <path class="st7" d="M373.8,26.1c-.1,0-.5-.4-.9-.4s-.7.2-.7.5.2.5.7.7l.3.2c.7.3,1,.7,1,1.3s-.5,1.3-1.5,1.3-1.1-.3-1.3-.5l.3-.6c.2.2.5.4,1,.4s.8-.2.8-.5-.3-.5-.8-.8l-.3-.2c-.6-.3-.9-.7-.9-1.3s.6-1.1,1.4-1.1,1.1.3,1.2.4l-.3.6Z"></path>
        <path class="st7" d="M377.2,25.9h-1.1v2.2c0,.7.2.9.6.9s.4,0,.5-.1v.6c0,0-.2.2-.7.2-.8,0-1.2-.5-1.2-1.5v-2.3h-.6v-.5h.6c0-.1,0-1.3,0-1.3h.6v1.2h1.2v.6Z"></path>
        <path class="st7" d="M380.3,25.9c0,0-.2,0-.4,0-.6,0-.9.4-1,.6v3.1h-.7v-4.3h.7v.6h0c.1-.3.4-.7,1.1-.7s.3,0,.4,0v.7Z"></path>
        <path class="st7" d="M382.8,29.8c-.4,1-.8,1.6-1.7,1.6s-.4,0-.4,0v-.6s.2,0,.3,0c.6,0,.9-.3,1.1-1v-.3c0,0-1.5-4.3-1.5-4.3h.8l1.2,3.4h0l1.1-3.4h.7l-1.6,4.6Z"></path>
        <path class="st7" d="M388.9,25.9h-1v3.7h-.7v-3.7h-.6v-.5h.6v-.8c0-1,.5-1.4,1.3-1.4s.5,0,.6.1v.6c-.2,0-.4-.1-.6-.1-.4,0-.6.2-.6.8v.7h1.1v.6Z"></path>
        <path class="st7" d="M391.4,29.7c-1.1,0-1.9-.7-1.9-2.3s.9-2.3,2-2.3,1.9.7,1.9,2.3-.9,2.3-2,2.3ZM391.4,25.8c-.7,0-1.2.5-1.2,1.6s.5,1.6,1.2,1.6,1.2-.5,1.2-1.6-.5-1.6-1.2-1.6Z"></path>
        <path class="st7" d="M396.5,25.9c0,0-.2,0-.4,0-.6,0-.9.4-1,.6v3.1h-.7v-4.3h.7v.6h0c.1-.3.4-.7,1.1-.7s.3,0,.4,0v.7Z"></path>
        <path class="st7" d="M28.4,34.5h-2.6v2.1h2.4v.6h-2.4v2.1h2.8v.7h-3.6v-6.2h3.4v.6Z"></path>
        <path class="st7" d="M32.4,36.6c0,0-.4-.3-.9-.3-.8,0-1.4.5-1.4,1.6s.5,1.7,1.3,1.7.8-.2.9-.3l.2.6c-.2.1-.5.4-1.3.4-1.1,0-1.9-.7-1.9-2.3s1.1-2.3,2.1-2.3,1,.3,1.2.4l-.3.6Z"></path>
        <path class="st7" d="M35.1,40.2c-1.1,0-1.9-.7-1.9-2.3s.9-2.3,2-2.3,1.9.7,1.9,2.3-.9,2.3-2,2.3ZM35.2,36.3c-.7,0-1.2.5-1.2,1.6s.5,1.6,1.2,1.6,1.2-.5,1.2-1.6-.5-1.6-1.2-1.6Z"></path>
        <path class="st7" d="M40.9,40.1v-2.6c0-.8-.3-1.2-.9-1.2s-.9.3-1.1.5v3.3h-.7v-4.3h.7v.5h0c.2-.2.6-.6,1.3-.6s1.4.6,1.4,1.8v2.7h-.7Z"></path>
        <path class="st7" d="M44.5,40.2c-1.1,0-1.9-.7-1.9-2.3s.9-2.3,2-2.3,1.9.7,1.9,2.3-.9,2.3-2,2.3ZM44.6,36.3c-.7,0-1.2.5-1.2,1.6s.5,1.6,1.2,1.6,1.2-.5,1.2-1.6-.5-1.6-1.2-1.6Z"></path>
        <path class="st7" d="M50.1,40.1v-2.6c0-.9-.2-1.2-.8-1.2s-1,.3-1.1.5v3.3h-.7v-4.3h.7v.5h0c.2-.2.6-.6,1.3-.6s.9.2,1.1.6c.2-.2.7-.6,1.4-.6s1.5.6,1.5,1.8v2.7h-.7v-2.6c0-.9-.3-1.2-.9-1.2s-.9.3-1,.5c0,.2,0,.4,0,.6v2.7h-.7Z"></path>
        <path class="st7" d="M55.1,34.7c-.3,0-.5-.2-.5-.5s.2-.5.5-.5.5.2.5.5-.2.5-.5.5ZM55.5,40.1h-.7v-4.3h.7v4.3Z"></path>
        <path class="st7" d="M59.5,36.6c0,0-.4-.3-.9-.3-.8,0-1.4.5-1.4,1.6s.5,1.7,1.3,1.7.8-.2.9-.3l.2.6c-.2.1-.5.4-1.3.4-1.1,0-1.9-.7-1.9-2.3s1.1-2.3,2.1-2.3,1,.3,1.2.4l-.3.6Z"></path>
        <path class="st7" d="M66.2,40.1l-.7-2h-2.2l-.7,2h-.8l2.3-6.2h.6l2.3,6.2h-.9ZM64.5,34.9h0l-.9,2.6h1.8l-.9-2.6Z"></path>
        <path class="st7" d="M69.8,36.4h-1v3.7h-.7v-3.7h-.6v-.5h.6v-.8c0-1,.5-1.4,1.3-1.4s.5,0,.6.1v.6c-.2,0-.4-.1-.6-.1-.4,0-.6.2-.6.8v.7h1.1v.6Z"></path>
        <path class="st7" d="M72.6,36.4h-1v3.7h-.7v-3.7h-.6v-.5h.6v-.8c0-1,.5-1.4,1.3-1.4s.5,0,.6.1v.6c-.2,0-.4-.1-.6-.1-.4,0-.6.2-.6.8v.7h1.1v.6Z"></path>
        <path class="st7" d="M75.2,37.7h.4v-.3c0-.8-.3-1-.9-1s-.9.3-1.1.4l-.3-.5c.2-.2.7-.5,1.5-.5s1.4.5,1.4,1.7v1.8c0,.4,0,.8,0,.9h-.7c0-.1,0-.3,0-.5h0c-.2.2-.5.6-1.2.6s-1.2-.5-1.2-1.2.9-1.3,2-1.3ZM74.5,39.6c.6,0,.9-.3,1-.4v-.9h-.4c-.8,0-1.2.3-1.2.7s.3.7.6.7Z"></path>
        <path class="st7" d="M77.9,34.7c-.3,0-.5-.2-.5-.5s.2-.5.5-.5.5.2.5.5-.2.5-.5.5ZM78.3,40.1h-.7v-4.3h.7v4.3Z"></path>
        <path class="st7" d="M81.7,36.4c0,0-.2,0-.4,0-.6,0-.9.4-1,.6v3.1h-.7v-4.3h.7v.6h0c.1-.3.4-.7,1.1-.7s.3,0,.4,0v.7Z"></path>
        <path class="st7" d="M84.7,36.6c-.1,0-.5-.4-.9-.4s-.7.2-.7.5.2.5.7.7l.3.2c.7.3,1,.7,1,1.3s-.5,1.3-1.5,1.3-1.1-.3-1.3-.5l.3-.6c.2.2.5.4,1,.4s.8-.2.8-.5-.3-.5-.8-.8l-.3-.2c-.6-.3-.9-.7-.9-1.3s.6-1.1,1.4-1.1,1.1.3,1.2.4l-.3.6Z"></path>
        <path class="st7" d="M89.8,37.7h.4v-.3c0-.8-.3-1-.9-1s-.9.3-1.1.4l-.3-.5c.2-.2.7-.5,1.5-.5s1.4.5,1.4,1.7v1.8c0,.4,0,.8,0,.9h-.7c0-.1,0-.3,0-.5h0c-.2.2-.5.6-1.2.6s-1.2-.5-1.2-1.2.9-1.3,2-1.3ZM89.1,39.6c.6,0,.9-.3,1-.4v-.9h-.4c-.8,0-1.2.3-1.2.7s.3.7.6.7Z"></path>
        <path class="st7" d="M94.8,40.1v-2.6c0-.8-.3-1.2-.9-1.2s-.9.3-1.1.5v3.3h-.7v-4.3h.7v.5h0c.2-.2.6-.6,1.3-.6s1.4.6,1.4,1.8v2.7h-.7Z"></path>
        <path class="st7" d="M98.7,35.7c.4,0,.6,0,.8.2v-2.1h.7c0,0,0,6.4,0,6.4h-.7v-.5h0c-.1.2-.4.6-1.3.6s-1.7-.8-1.7-2.2,1.1-2.3,2.1-2.3ZM98.5,39.5c.6,0,.9-.3,1-.5v-2.5c-.1-.1-.4-.2-.8-.2-.8,0-1.4.4-1.4,1.6s.5,1.6,1.2,1.6Z"></path>
        <path class="st7" d="M107.1,34.5h-2.6v2.1h2.4v.6h-2.4v2.1h2.8v.7h-3.6v-6.2h3.4v.6Z"></path>
        <path class="st7" d="M111,40.1v-2.6c0-.8-.3-1.2-.9-1.2s-.9.3-1.1.5v3.3h-.7v-4.3h.7v.5h0c.2-.2.6-.6,1.3-.6s1.4.6,1.4,1.8v2.7h-.7Z"></path>
        <path class="st7" d="M116,38.1h-2.5c0,1,.5,1.4,1.3,1.4s1-.3,1.1-.4l.2.5c0,.1-.5.5-1.5.5s-1.9-.7-1.9-2.3.9-2.2,1.9-2.2,1.5.6,1.5,1.6,0,.6,0,.8ZM113.5,37.5h1.9c0-.1,0-.2,0-.3,0-.6-.3-.9-.8-.9s-1,.4-1.1,1.2Z"></path>
        <path class="st7" d="M119.4,36.4c0,0-.2,0-.4,0-.6,0-.9.4-1,.6v3.1h-.7v-4.3h.7v.6h0c.1-.3.4-.7,1.1-.7s.3,0,.4,0v.7Z"></path>
        <path class="st7" d="M121.4,42c-1,0-1.6-.4-1.6-1.2s.5-.9.8-1.1h0c-.2-.2-.3-.4-.3-.6,0-.5.4-.7.5-.7h0c-.4-.2-.7-.7-.7-1.3,0-1,.7-1.5,1.6-1.5s.5,0,.6.1h1.5v.6h-.7c.2.2.2.5.2.8,0,.9-.7,1.5-1.7,1.5s-.2,0-.4,0c-.1,0-.4.2-.4.4s.1.3.5.3h.9c.9,0,1.4.4,1.4,1.1s-.8,1.6-2.3,1.6ZM121.5,41.4c1.1,0,1.5-.4,1.5-.8s-.2-.6-.7-.6h-1c-.1,0-.3,0-.4,0-.2.1-.5.4-.5.8s.3.7,1,.7ZM121.7,36.2c-.5,0-.9.2-.9.9s.4.9.9.9.9-.2.9-.9-.4-.9-.9-.9Z"></path>
        <path class="st7" d="M126.3,40.3c-.4,1-.8,1.6-1.7,1.6s-.4,0-.4,0v-.6s.2,0,.3,0c.6,0,.9-.3,1.1-1v-.3c0,0-1.5-4.3-1.5-4.3h.8l1.2,3.4h0l1.1-3.4h.7l-1.6,4.6Z"></path>
        <path class="st7" d="M132.2,37.7h.4v-.3c0-.8-.3-1-.9-1s-.9.3-1.1.4l-.3-.5c.2-.2.7-.5,1.5-.5s1.4.5,1.4,1.7v1.8c0,.4,0,.8,0,.9h-.7c0-.1,0-.3,0-.5h0c-.2.2-.5.6-1.2.6s-1.2-.5-1.2-1.2.9-1.3,2-1.3ZM131.5,39.6c.6,0,.9-.3,1-.4v-.9h-.4c-.8,0-1.2.3-1.2.7s.3.7.6.7Z"></path>
        <path class="st7" d="M137.2,40.1v-2.6c0-.8-.3-1.2-.9-1.2s-.9.3-1.1.5v3.3h-.7v-4.3h.7v.5h0c.2-.2.6-.6,1.3-.6s1.4.6,1.4,1.8v2.7h-.7Z"></path>
        <path class="st7" d="M141.1,35.7c.4,0,.6,0,.8.2v-2.1h.7c0,0,0,6.4,0,6.4h-.7v-.5h0c-.1.2-.4.6-1.3.6s-1.7-.8-1.7-2.2,1.1-2.3,2.1-2.3ZM140.9,39.5c.6,0,.9-.3,1-.5v-2.5c-.1-.1-.4-.2-.8-.2-.8,0-1.4.4-1.4,1.6s.5,1.6,1.2,1.6Z"></path>
        <path class="st7" d="M148,36.4h-1.1v2.2c0,.7.2.9.6.9s.4,0,.5-.1v.6c0,0-.2.2-.7.2-.8,0-1.2-.5-1.2-1.5v-2.3h-.6v-.5h.6c0-.1,0-1.3,0-1.3h.6v1.2h1.2v.6Z"></path>
        <path class="st7" d="M151.6,40.1v-2.6c0-.8-.3-1.2-.9-1.2s-.9.3-1.1.5v3.3h-.7v-6.4h.7c0,0,0,2.5,0,2.5h0c.2-.2.6-.5,1.3-.5s1.4.6,1.4,1.8v2.7h-.7Z"></path>
        <path class="st7" d="M156.6,38.1h-2.5c0,1,.5,1.4,1.3,1.4s1-.3,1.1-.4l.2.5c0,.1-.5.5-1.5.5s-1.9-.7-1.9-2.3.9-2.2,1.9-2.2,1.5.6,1.5,1.6,0,.6,0,.8ZM154.1,37.5h1.9c0-.1,0-.2,0-.3,0-.6-.3-.9-.8-.9s-1,.4-1.1,1.2Z"></path>
        <path class="st7" d="M163.4,34.5h-2.6v2.1h2.4v.6h-2.4v2.1h2.8v.7h-3.6v-6.2h3.4v.6Z"></path>
        <path class="st7" d="M165.3,38.3c0,.8.3,1.2.8,1.2s.9-.3,1.1-.5v-3.3h.7v4.3h-.7v-.5h0c-.1.2-.5.6-1.3.6s-1.4-.5-1.4-1.8v-2.7h.7v2.6Z"></path>
        <path class="st7" d="M171.4,36.4c0,0-.2,0-.4,0-.6,0-.9.4-1,.6v3.1h-.7v-4.3h.7v.6h0c.1-.3.4-.7,1.1-.7s.3,0,.4,0v.7Z"></path>
        <path class="st7" d="M173.8,40.2c-1.1,0-1.9-.7-1.9-2.3s.9-2.3,2-2.3,1.9.7,1.9,2.3-.9,2.3-2,2.3ZM173.9,36.3c-.7,0-1.2.5-1.2,1.6s.5,1.6,1.2,1.6,1.2-.5,1.2-1.6-.5-1.6-1.2-1.6Z"></path>
        <path class="st7" d="M177.5,36.2h0c.1-.2.4-.6,1.3-.6s1.7.7,1.7,2.2-.9,2.3-2.1,2.3-.7,0-.8-.2v1.9h-.7v-6.1h.7v.5ZM177.6,39.2c.2.1.4.2.8.2.9,0,1.4-.4,1.4-1.6s-.5-1.6-1.2-1.6-.9.3-1,.5v2.5Z"></path>
        <path class="st7" d="M184.6,38.1h-2.5c0,1,.5,1.4,1.3,1.4s1-.3,1.1-.4l.2.5c0,.1-.5.5-1.5.5s-1.9-.7-1.9-2.3.9-2.2,1.9-2.2,1.5.6,1.5,1.6,0,.6,0,.8ZM182.1,37.5h1.9c0-.1,0-.2,0-.3,0-.6-.3-.9-.8-.9s-1,.4-1.1,1.2Z"></path>
        <path class="st7" d="M187.5,37.7h.4v-.3c0-.8-.3-1-.9-1s-.9.3-1.1.4l-.3-.5c.2-.2.7-.5,1.5-.5s1.4.5,1.4,1.7v1.8c0,.4,0,.8,0,.9h-.7c0-.1,0-.3,0-.5h0c-.2.2-.5.6-1.2.6s-1.2-.5-1.2-1.2.9-1.3,2-1.3ZM186.8,39.6c.6,0,.9-.3,1-.4v-.9h-.4c-.8,0-1.2.3-1.2.7s.3.7.6.7Z"></path>
        <path class="st7" d="M192.6,40.1v-2.6c0-.8-.3-1.2-.9-1.2s-.9.3-1.1.5v3.3h-.7v-4.3h.7v.5h0c.2-.2.6-.6,1.3-.6s1.4.6,1.4,1.8v2.7h-.7Z"></path>
        <path class="st7" d="M201.2,37.5c0,1.8-.8,2.7-2.3,2.7s-2.3-.8-2.3-2.7v-3.6h.8v3.7c0,1.4.5,2,1.6,2s1.5-.5,1.5-2v-3.7h.8v3.6Z"></path>
        <path class="st7" d="M205.3,40.1v-2.6c0-.8-.3-1.2-.9-1.2s-.9.3-1.1.5v3.3h-.7v-4.3h.7v.5h0c.2-.2.6-.6,1.3-.6s1.4.6,1.4,1.8v2.7h-.7Z"></path>
        <path class="st7" d="M207.7,34.7c-.3,0-.5-.2-.5-.5s.2-.5.5-.5.5.2.5.5-.2.5-.5.5ZM208,40.1h-.7v-4.3h.7v4.3Z"></path>
        <path class="st7" d="M210.9,40.2c-1.1,0-1.9-.7-1.9-2.3s.9-2.3,2-2.3,1.9.7,1.9,2.3-.9,2.3-2,2.3ZM211,36.3c-.7,0-1.2.5-1.2,1.6s.5,1.6,1.2,1.6,1.2-.5,1.2-1.6-.5-1.6-1.2-1.6Z"></path>
        <path class="st7" d="M216.7,40.1v-2.6c0-.8-.3-1.2-.9-1.2s-.9.3-1.1.5v3.3h-.7v-4.3h.7v.5h0c.2-.2.6-.6,1.3-.6s1.4.6,1.4,1.8v2.7h-.7Z"></path>
        <path class="st7" d="M222.7,36.4h-1.1v2.2c0,.7.2.9.6.9s.4,0,.5-.1v.6c0,0-.2.2-.7.2-.8,0-1.2-.5-1.2-1.5v-2.3h-.6v-.5h.6c0-.1,0-1.3,0-1.3h.6v1.2h1.2v.6Z"></path>
        <path class="st7" d="M226.4,40.1v-2.6c0-.8-.3-1.2-.9-1.2s-.9.3-1.1.5v3.3h-.7v-6.4h.7c0,0,0,2.5,0,2.5h0c.2-.2.6-.5,1.3-.5s1.4.6,1.4,1.8v2.7h-.7Z"></path>
        <path class="st7" d="M230.5,36.4c0,0-.2,0-.4,0-.6,0-.9.4-1,.6v3.1h-.7v-4.3h.7v.6h0c.1-.3.4-.7,1.1-.7s.3,0,.4,0v.7Z"></path>
        <path class="st7" d="M232.9,40.2c-1.1,0-1.9-.7-1.9-2.3s.9-2.3,2-2.3,1.9.7,1.9,2.3-.9,2.3-2,2.3ZM233,36.3c-.7,0-1.2.5-1.2,1.6s.5,1.6,1.2,1.6,1.2-.5,1.2-1.6-.5-1.6-1.2-1.6Z"></path>
        <path class="st7" d="M236.6,38.3c0,.8.3,1.2.8,1.2s.9-.3,1.1-.5v-3.3h.7v4.3h-.7v-.5h0c-.1.2-.5.6-1.3.6s-1.4-.5-1.4-1.8v-2.7h.7v2.6Z"></path>
        <path class="st7" d="M241.8,42c-1,0-1.6-.4-1.6-1.2s.5-.9.8-1.1h0c-.2-.2-.3-.4-.3-.6,0-.5.4-.7.5-.7h0c-.4-.2-.7-.7-.7-1.3,0-1,.7-1.5,1.6-1.5s.5,0,.6.1h1.5v.6h-.7c.2.2.2.5.2.8,0,.9-.7,1.5-1.7,1.5s-.2,0-.4,0c-.1,0-.4.2-.4.4s.1.3.5.3h.9c.9,0,1.4.4,1.4,1.1s-.8,1.6-2.3,1.6ZM241.8,41.4c1.1,0,1.5-.4,1.5-.8s-.2-.6-.7-.6h-1c-.1,0-.3,0-.4,0-.2.1-.5.4-.5.8s.3.7,1,.7ZM242.1,36.2c-.5,0-.9.2-.9.9s.4.9.9.9.9-.2.9-.9-.4-.9-.9-.9Z"></path>
        <path class="st7" d="M247.8,40.1v-2.6c0-.8-.3-1.2-.9-1.2s-.9.3-1.1.5v3.3h-.7v-6.4h.7c0,0,0,2.5,0,2.5h0c.2-.2.6-.5,1.3-.5s1.4.6,1.4,1.8v2.7h-.7Z"></path>
        <path class="st7" d="M253.8,36.4h-1.1v2.2c0,.7.2.9.6.9s.4,0,.5-.1v.6c0,0-.2.2-.7.2-.8,0-1.2-.5-1.2-1.5v-2.3h-.6v-.5h.6c0-.1,0-1.3,0-1.3h.6v1.2h1.2v.6Z"></path>
        <path class="st7" d="M257.4,40.1v-2.6c0-.8-.3-1.2-.9-1.2s-.9.3-1.1.5v3.3h-.7v-6.4h.7c0,0,0,2.5,0,2.5h0c.2-.2.6-.5,1.3-.5s1.4.6,1.4,1.8v2.7h-.7Z"></path>
        <path class="st7" d="M262.4,38.1h-2.5c0,1,.5,1.4,1.3,1.4s1-.3,1.1-.4l.2.5c0,.1-.5.5-1.5.5s-1.9-.7-1.9-2.3.9-2.2,1.9-2.2,1.5.6,1.5,1.6,0,.6,0,.8ZM259.9,37.5h1.9c0-.1,0-.2,0-.3,0-.6-.3-.9-.8-.9s-1,.4-1.1,1.2Z"></path>
        <path class="st7" d="M269.2,34.5h-2.6v2.1h2.4v.6h-2.4v2.1h2.8v.7h-3.6v-6.2h3.4v.6Z"></path>
        <path class="st7" d="M271.1,38.3c0,.8.3,1.2.8,1.2s.9-.3,1.1-.5v-3.3h.7v4.3h-.7v-.5h0c-.1.2-.5.6-1.3.6s-1.4-.5-1.4-1.8v-2.7h.7v2.6Z"></path>
        <path class="st7" d="M277.2,36.4c0,0-.2,0-.4,0-.6,0-.9.4-1,.6v3.1h-.7v-4.3h.7v.6h0c.1-.3.4-.7,1.1-.7s.3,0,.4,0v.7Z"></path>
        <path class="st7" d="M279.6,40.2c-1.1,0-1.9-.7-1.9-2.3s.9-2.3,2-2.3,1.9.7,1.9,2.3-.9,2.3-2,2.3ZM279.7,36.3c-.7,0-1.2.5-1.2,1.6s.5,1.6,1.2,1.6,1.2-.5,1.2-1.6-.5-1.6-1.2-1.6Z"></path>
        <path class="st7" d="M283.3,36.2h0c.1-.2.4-.6,1.3-.6s1.7.7,1.7,2.2-.9,2.3-2.1,2.3-.7,0-.8-.2v1.9h-.7v-6.1h.7v.5ZM283.4,39.2c.2.1.4.2.8.2.9,0,1.4-.4,1.4-1.6s-.5-1.6-1.2-1.6-.9.3-1,.5v2.5Z"></path>
        <path class="st7" d="M290.4,38.1h-2.5c0,1,.5,1.4,1.3,1.4s1-.3,1.1-.4l.2.5c0,.1-.5.5-1.5.5s-1.9-.7-1.9-2.3.9-2.2,1.9-2.2,1.5.6,1.5,1.6,0,.6,0,.8ZM287.9,37.5h1.9c0-.1,0-.2,0-.3,0-.6-.3-.9-.8-.9s-1,.4-1.1,1.2Z"></path>
        <path class="st7" d="M293.3,37.7h.4v-.3c0-.8-.3-1-.9-1s-.9.3-1.1.4l-.3-.5c.2-.2.7-.5,1.5-.5s1.4.5,1.4,1.7v1.8c0,.4,0,.8,0,.9h-.7c0-.1,0-.3,0-.5h0c-.2.2-.5.6-1.2.6s-1.2-.5-1.2-1.2.9-1.3,2-1.3ZM292.6,39.6c.6,0,.9-.3,1-.4v-.9h-.4c-.8,0-1.2.3-1.2.7s.3.7.6.7Z"></path>
        <path class="st7" d="M298.4,40.1v-2.6c0-.8-.3-1.2-.9-1.2s-.9.3-1.1.5v3.3h-.7v-4.3h.7v.5h0c.2-.2.6-.6,1.3-.6s1.4.6,1.4,1.8v2.7h-.7Z"></path>
        <path class="st7" d="M305.2,34.8c-.1,0-.5-.4-1.1-.4s-1,.3-1,.8.2.8,1,1.2l.5.3c.7.5,1.2.9,1.2,1.7s-.7,1.7-2,1.7-1.5-.4-1.7-.5l.3-.7c.1.1.6.6,1.4.6s1.2-.4,1.2-.9-.3-.7-1-1.2l-.5-.4c-.8-.5-1.2-1-1.2-1.8s.7-1.5,1.8-1.5,1.3.3,1.5.5l-.3.6Z"></path>
        <path class="st7" d="M308.4,40.2c-1.1,0-1.9-.7-1.9-2.3s.9-2.3,2-2.3,1.9.7,1.9,2.3-.9,2.3-2,2.3ZM308.5,36.3c-.7,0-1.2.5-1.2,1.6s.5,1.6,1.2,1.6,1.2-.5,1.2-1.6-.5-1.6-1.2-1.6Z"></path>
        <path class="st7" d="M314.2,36.6c0,0-.4-.3-.9-.3-.8,0-1.4.5-1.4,1.6s.5,1.7,1.3,1.7.8-.2.9-.3l.2.6c-.2.1-.5.4-1.3.4-1.1,0-1.9-.7-1.9-2.3s1.1-2.3,2.1-2.3,1,.3,1.2.4l-.3.6Z"></path>
        <path class="st7" d="M315.8,34.7c-.3,0-.5-.2-.5-.5s.2-.5.5-.5.5.2.5.5-.2.5-.5.5ZM316.1,40.1h-.7v-4.3h.7v4.3Z"></path>
        <path class="st7" d="M319.1,37.7h.4v-.3c0-.8-.3-1-.9-1s-.9.3-1.1.4l-.3-.5c.2-.2.7-.5,1.5-.5s1.4.5,1.4,1.7v1.8c0,.4,0,.8,0,.9h-.7c0-.1,0-.3,0-.5h0c-.2.2-.5.6-1.2.6s-1.2-.5-1.2-1.2.9-1.3,2-1.3ZM318.5,39.6c.6,0,.9-.3,1-.4v-.9h-.4c-.8,0-1.2.3-1.2.7s.3.7.6.7Z"></path>
        <path class="st7" d="M322.2,39c0,.4.1.5.4.5s.3,0,.3,0v.5s-.2.1-.5.1c-.6,0-.9-.3-.9-1.1v-5.3h.7c0,0,0,5.3,0,5.3Z"></path>
        <path class="st7" d="M325.9,40.1v-6.2h3.4v.6h-2.7v2.3h2.4v.6h-2.4v2.7h-.8Z"></path>
        <path class="st7" d="M330.9,38.3c0,.8.3,1.2.8,1.2s.9-.3,1.1-.5v-3.3h.7v4.3h-.7v-.5h0c-.1.2-.5.6-1.3.6s-1.4-.5-1.4-1.8v-2.7h.7v2.6Z"></path>
        <path class="st7" d="M337.5,40.1v-2.6c0-.8-.3-1.2-.9-1.2s-.9.3-1.1.5v3.3h-.7v-4.3h.7v.5h0c.2-.2.6-.6,1.3-.6s1.4.6,1.4,1.8v2.7h-.7Z"></path>
        <path class="st7" d="M341.4,35.7c.4,0,.6,0,.8.2v-2.1h.7c0,0,0,6.4,0,6.4h-.7v-.5h0c-.1.2-.4.6-1.3.6s-1.7-.8-1.7-2.2,1.1-2.3,2.1-2.3ZM341.2,39.5c.6,0,.9-.3,1-.5v-2.5c-.1-.1-.4-.2-.8-.2-.8,0-1.4.4-1.4,1.6s.5,1.6,1.2,1.6Z"></path>
        <path class="st7" d="M347.7,37.8h-.5v2.2h-.8v-6.2h1.4c1.8,0,2.6.7,2.6,1.9s-.8,2.1-2.6,2.1ZM347.8,34.5h-.6v2.7h.5c1.3,0,1.8-.5,1.8-1.4s-.5-1.3-1.7-1.3Z"></path>
        <path class="st7" d="M352,39c0,.4.1.5.4.5s.3,0,.3,0v.5s-.2.1-.5.1c-.6,0-.9-.3-.9-1.1v-5.3h.7c0,0,0,5.3,0,5.3Z"></path>
        <path class="st7" d="M354.3,38.3c0,.8.3,1.2.8,1.2s.9-.3,1.1-.5v-3.3h.7v4.3h-.7v-.5h0c-.1.2-.5.6-1.3.6s-1.4-.5-1.4-1.8v-2.7h.7v2.6Z"></path>
        <path class="st7" d="M360.3,36.6c-.1,0-.5-.4-.9-.4s-.7.2-.7.5.2.5.7.7l.3.2c.7.3,1,.7,1,1.3s-.5,1.3-1.5,1.3-1.1-.3-1.3-.5l.3-.6c.2.2.5.4,1,.4s.8-.2.8-.5-.3-.5-.8-.8l-.3-.2c-.6-.3-.9-.7-.9-1.3s.6-1.1,1.4-1.1,1.1.3,1.2.4l-.3.6Z"></path>
        <path class="st7" d="M364.7,33.3h.6c-.6.6-1.2,1.7-1.2,4s.6,3.4,1.2,4h-.6c-.5-.5-1.3-1.7-1.3-4s.8-3.5,1.3-4Z"></path>
        <path class="st7" d="M369.6,34.5h-2.6v2.1h2.4v.6h-2.4v2.1h2.8v.7h-3.6v-6.2h3.4v.6Z"></path>
        <path class="st7" d="M373.7,34.8c-.1,0-.5-.4-1.1-.4s-1,.3-1,.8.2.8,1,1.2l.5.3c.7.5,1.2.9,1.2,1.7s-.7,1.7-2,1.7-1.5-.4-1.7-.5l.3-.7c.1.1.6.6,1.4.6s1.2-.4,1.2-.9-.3-.7-1-1.2l-.5-.4c-.8-.5-1.2-1-1.2-1.8s.7-1.5,1.8-1.5,1.3.3,1.5.5l-.3.6Z"></path>
        <path class="st7" d="M375.4,40.1v-6.2h3.4v.6h-2.7v2.3h2.4v.6h-2.4v2.7h-.8Z"></path>
        <path class="st7" d="M383.3,37.8h-.5v2.2h-.8v-6.2h1.4c1.8,0,2.6.7,2.6,1.9s-.8,2.1-2.6,2.1ZM383.3,34.5h-.6v2.7h.5c1.3,0,1.8-.5,1.8-1.4s-.5-1.3-1.7-1.3Z"></path>
        <path class="st7" d="M387.6,39c0,.4.1.5.4.5s.3,0,.3,0v.5s-.2.1-.5.1c-.6,0-.9-.3-.9-1.1v-5.3h.7c0,0,0,5.3,0,5.3Z"></path>
        <path class="st7" d="M389.8,38.3c0,.8.3,1.2.8,1.2s.9-.3,1.1-.5v-3.3h.7v4.3h-.7v-.5h0c-.1.2-.5.6-1.3.6s-1.4-.5-1.4-1.8v-2.7h.7v2.6Z"></path>
        <path class="st7" d="M395.9,36.6c-.1,0-.5-.4-.9-.4s-.7.2-.7.5.2.5.7.7l.3.2c.7.3,1,.7,1,1.3s-.5,1.3-1.5,1.3-1.1-.3-1.3-.5l.3-.6c.2.2.5.4,1,.4s.8-.2.8-.5-.3-.5-.8-.8l-.3-.2c-.6-.3-.9-.7-.9-1.3s.6-1.1,1.4-1.1,1.1.3,1.2.4l-.3.6Z"></path>
        <path class="st7" d="M397.2,41.3h-.6c.6-.6,1.2-1.7,1.2-4s-.6-3.4-1.2-4h.6c.5.5,1.3,1.7,1.3,4s-.8,3.5-1.3,4Z"></path>
        <path class="st7" d="M399.8,40.2c-.3,0-.5-.2-.5-.5s.2-.5.5-.5.5.2.5.5-.2.5-.5.5Z"></path>
      </g>
      <g>
        <g>
          <rect class="st3" x="162.9" y="100" width="52.9" height="35.9"></rect>
          <rect class="st5" x="163.9" y="101" width="50.8" height="33.9"></rect>
          <g>
            <polygon class="st0" points="188.3 108.4 189.4 107.6 190.4 108.4 190 107.1 191.1 106.3 189.8 106.3 189.4 105.1 188.9 106.3 187.6 106.3 188.7 107.1 188.3 108.4"></polygon>
            <polygon class="st0" points="182.7 109.9 183.8 109.1 184.9 109.9 184.5 108.6 185.6 107.8 184.2 107.8 183.8 106.5 183.4 107.8 182 107.8 183.1 108.6 182.7 109.9"></polygon>
            <polygon class="st0" points="179.7 110.6 179.3 111.9 178 111.9 179.1 112.7 178.7 113.9 179.7 113.2 180.8 113.9 180.4 112.7 181.5 111.9 180.2 111.9 179.7 110.6"></polygon>
            <polygon class="st0" points="178.2 118.7 179.3 119.5 178.9 118.2 180 117.4 178.7 117.4 178.2 116.2 177.8 117.4 176.5 117.4 177.6 118.2 177.2 119.5 178.2 118.7"></polygon>
            <polygon class="st0" points="180.2 123 179.7 121.7 179.3 123 178 123 179.1 123.8 178.7 125.1 179.7 124.3 180.8 125.1 180.4 123.8 181.5 123 180.2 123"></polygon>
            <polygon class="st0" points="184.2 127.1 183.8 125.8 183.4 127.1 182.1 127.1 183.1 127.9 182.7 129.1 183.8 128.3 184.9 129.1 184.5 127.9 185.6 127.1 184.2 127.1"></polygon>
            <polygon class="st0" points="189.8 128.6 189.4 127.3 188.9 128.6 187.6 128.6 188.7 129.3 188.3 130.6 189.4 129.8 190.4 130.6 190 129.3 191.1 128.6 189.8 128.6"></polygon>
            <polygon class="st0" points="195.3 127.1 194.9 125.8 194.5 127.1 193.1 127.1 194.2 127.9 193.8 129.1 194.9 128.3 196 129.1 195.6 127.9 196.7 127.1 195.3 127.1"></polygon>
            <polygon class="st0" points="199.4 123 199 121.7 198.6 123 197.2 123 198.3 123.8 197.9 125.1 199 124.3 200 125.1 199.6 123.8 200.7 123 199.4 123"></polygon>
            <polygon class="st0" points="202.2 117.4 200.9 117.4 200.4 116.1 200 117.4 198.7 117.4 199.8 118.2 199.4 119.5 200.4 118.7 201.5 119.5 201.1 118.2 202.2 117.4"></polygon>
            <polygon class="st0" points="197.9 113.9 199 113.1 200 113.9 199.6 112.7 200.7 111.9 199.4 111.9 199 110.6 198.6 111.9 197.2 111.9 198.3 112.7 197.9 113.9"></polygon>
            <polygon class="st0" points="194.9 106.5 194.5 107.8 193.2 107.8 194.3 108.6 193.8 109.9 194.9 109.1 196 109.9 195.6 108.6 196.7 107.8 195.3 107.8 194.9 106.5"></polygon>
          </g>
        </g>
        <g>
          <path class="st5" d="M172.4,143l.8.3c-.1.5-.3.8-.6,1.1-.3.2-.7.3-1.2.3s-1.1-.2-1.4-.6c-.4-.4-.6-.9-.6-1.6s.2-1.3.6-1.7c.4-.4.9-.6,1.5-.6s1,.2,1.3.5c.2.2.3.5.4.8l-.9.2c0-.2-.2-.4-.3-.5-.2-.1-.4-.2-.6-.2s-.6.1-.8.3c-.2.2-.3.6-.3,1.1s0,.9.3,1.2.5.3.8.3.4,0,.6-.2c.2-.1.3-.4.4-.7Z"></path>
          <path class="st5" d="M173.8,143c0-.3,0-.5.2-.8s.3-.5.6-.6c.2-.1.5-.2.8-.2.5,0,.9.2,1.2.5.3.3.5.7.5,1.2s-.2.9-.5,1.2c-.3.3-.7.5-1.2.5s-.6,0-.8-.2-.5-.3-.6-.6c-.1-.3-.2-.6-.2-.9ZM174.7,143c0,.3,0,.6.2.7s.3.2.5.2.4,0,.5-.2.2-.4.2-.7,0-.5-.2-.7-.3-.2-.5-.2-.4,0-.5.2-.2.4-.2.7Z"></path>
          <path class="st5" d="M177.6,143.4v-.8h1.6v.8h-1.6Z"></path>
          <path class="st5" d="M179.4,141.4h.5v-.2c0-.3,0-.5,0-.6,0-.1.2-.2.3-.3.2,0,.3-.1.6-.1s.5,0,.7.1v.6c-.2,0-.4,0-.5,0s-.2,0-.3,0c0,0,0,.2,0,.3v.2h.6v.7h-.6v2.5h-.8v-2.5h-.5v-.7Z"></path>
          <path class="st5" d="M183.8,144.6v-.5c-.1.2-.3.3-.5.4-.2,0-.4.1-.6.1s-.4,0-.6-.1c-.2,0-.3-.2-.4-.4,0-.2-.1-.4-.1-.7v-2h.8v1.4c0,.4,0,.7,0,.8,0,0,0,.2.2.2,0,0,.2,0,.3,0s.3,0,.4-.1c.1,0,.2-.2.2-.3,0-.1,0-.4,0-.8v-1.3h.8v3.1h-.8Z"></path>
          <path class="st5" d="M188.3,144.6h-.8v-1.6c0-.3,0-.6,0-.7,0,0,0-.2-.2-.2,0,0-.2,0-.3,0s-.3,0-.4.1c-.1,0-.2.2-.2.3,0,.1,0,.4,0,.7v1.4h-.8v-3.1h.8v.5c.3-.4.6-.5,1-.5s.4,0,.5,0c.2,0,.3.2.3.3,0,.1.1.2.2.3,0,.1,0,.3,0,.6v2Z"></path>
          <path class="st5" d="M192,144.6h-.8v-.5c-.1.2-.3.3-.5.4-.2,0-.4.1-.5.1-.4,0-.7-.1-.9-.4-.3-.3-.4-.7-.4-1.2s.1-.9.4-1.2c.3-.3.6-.4,1-.4s.7.1.9.4v-1.6h.8v4.3ZM189.8,142.9c0,.3,0,.6.1.7.1.2.3.3.6.3s.4,0,.5-.2c.1-.2.2-.4.2-.7s0-.6-.2-.8c-.1-.2-.3-.2-.5-.2s-.4,0-.5.2c-.1.2-.2.4-.2.7Z"></path>
          <path class="st5" d="M194.7,143.6h.8c-.1.4-.3.7-.5.8-.2.2-.5.2-.9.2-.5,0-1-.2-1.2-.5-.2-.3-.3-.6-.3-1.1s.1-.9.4-1.2c.3-.3.6-.4,1-.4s.8.2,1.1.5c.3.3.4.8.4,1.4h-2.1c0,.2,0,.4.2.6.1.1.3.2.5.2s.2,0,.3-.1.2-.2.2-.3ZM194.7,142.7c0-.2,0-.4-.2-.5-.1-.1-.3-.2-.4-.2s-.3,0-.5.2-.2.3-.2.5h1.2Z"></path>
          <path class="st5" d="M199.1,144.6h-.8v-.5c-.1.2-.3.3-.5.4-.2,0-.4.1-.5.1-.4,0-.7-.1-.9-.4-.3-.3-.4-.7-.4-1.2s.1-.9.4-1.2c.3-.3.6-.4,1-.4s.7.1.9.4v-1.6h.8v4.3ZM196.9,142.9c0,.3,0,.6.1.7.1.2.3.3.6.3s.4,0,.5-.2c.1-.2.2-.4.2-.7s0-.6-.2-.8c-.1-.2-.3-.2-.5-.2s-.4,0-.5.2c-.1.2-.2.4-.2.7Z"></path>
          <path class="st5" d="M201.6,144.6v-4.3h.8v1.6c.3-.3.6-.4.9-.4s.7.1,1,.4c.3.3.4.7.4,1.2s-.1,1-.4,1.2c-.3.3-.6.4-.9.4s-.4,0-.5-.1c-.2,0-.3-.2-.5-.4v.5h-.8ZM202.4,142.9c0,.3,0,.6.2.7.1.2.3.3.6.3s.3,0,.5-.2c.1-.2.2-.4.2-.7s0-.6-.2-.8c-.1-.2-.3-.2-.5-.2s-.4,0-.5.2c-.1.2-.2.4-.2.7Z"></path>
          <path class="st5" d="M204.9,141.4h.9l.8,2.2.7-2.2h.9l-1.1,3-.2.5c0,.2-.1.3-.2.4,0,0-.1.2-.2.2,0,0-.2.1-.3.1-.1,0-.3,0-.4,0s-.3,0-.5,0v-.7c0,0,.2,0,.3,0,.2,0,.3,0,.4-.2,0-.1.2-.3.2-.4l-1.2-3.2Z"></path>
          <path class="st5" d="M162.6,148.7v.7h-.6v1.3c0,.3,0,.4,0,.4,0,0,0,0,0,.1,0,0,0,0,.1,0s.2,0,.3,0v.6c-.1,0-.3.1-.6.1s-.3,0-.4,0c-.1,0-.2-.1-.3-.2,0,0,0-.2-.1-.3,0,0,0-.3,0-.6v-1.4h-.4v-.7h.4v-.6l.8-.5v1.1h.6Z"></path>
          <path class="st5" d="M164.1,147.5v1.6c.3-.3.6-.5,1-.5s.4,0,.5.1.3.2.3.3.1.2.2.4,0,.3,0,.6v1.8h-.8v-1.7c0-.3,0-.5,0-.6,0,0,0-.2-.2-.2,0,0-.2,0-.3,0s-.3,0-.4.1-.2.2-.2.3c0,.1,0,.3,0,.6v1.6h-.8v-4.3h.8Z"></path>
          <path class="st5" d="M168.8,150.9h.8c-.1.4-.3.7-.5.8-.2.2-.5.2-.9.2-.5,0-1-.2-1.2-.5-.2-.3-.3-.6-.3-1.1s.1-.9.4-1.2c.3-.3.6-.4,1-.4s.8.2,1.1.5c.3.3.4.8.4,1.4h-2.1c0,.2,0,.4.2.6.1.1.3.2.5.2s.2,0,.3-.1.2-.2.2-.3ZM168.8,150c0-.2,0-.4-.2-.5-.1-.1-.3-.2-.4-.2s-.3,0-.5.2-.2.3-.2.5h1.2Z"></path>
          <path class="st5" d="M172,151.9v-4.3h3.2v.7h-2.3v1h2.2v.7h-2.2v1.2h2.4v.7h-3.3Z"></path>
          <path class="st5" d="M178.1,151.9v-.5c-.1.2-.3.3-.5.4-.2,0-.4.1-.6.1s-.4,0-.6-.1c-.2,0-.3-.2-.4-.4,0-.2-.1-.4-.1-.7v-2h.8v1.4c0,.4,0,.7,0,.8,0,0,0,.2.2.2,0,0,.2,0,.3,0s.3,0,.4-.1c.1,0,.2-.2.2-.3,0-.1,0-.4,0-.8v-1.3h.8v3.1h-.8Z"></path>
          <path class="st5" d="M180.5,151.9h-.8v-3.1h.8v.4c.1-.2.3-.4.4-.4.1,0,.2-.1.4-.1s.4,0,.5.2l-.3.7c-.1,0-.3-.1-.4-.1s-.2,0-.3,0c0,0-.1.2-.2.3,0,.2,0,.5,0,1.1v1Z"></path>
          <path class="st5" d="M181.9,150.2c0-.3,0-.5.2-.8.1-.3.3-.5.6-.6.2-.1.5-.2.8-.2.5,0,.9.2,1.2.5.3.3.5.7.5,1.2s-.2.9-.5,1.2c-.3.3-.7.5-1.2.5s-.6,0-.8-.2c-.3-.1-.5-.3-.6-.6-.1-.3-.2-.6-.2-.9ZM182.8,150.3c0,.3,0,.6.2.7.1.2.3.2.5.2s.4,0,.5-.2c.1-.2.2-.4.2-.7s0-.5-.2-.7c-.1-.2-.3-.2-.5-.2s-.4,0-.5.2c-.1.2-.2.4-.2.7Z"></path>
          <path class="st5" d="M185.8,148.7h.8v.5c.1-.2.2-.3.4-.4.2,0,.4-.1.6-.1.4,0,.7.1.9.4s.4.7.4,1.2-.1.9-.4,1.2c-.3.3-.6.4-.9.4s-.3,0-.5-.1c-.1,0-.3-.2-.4-.4v1.6h-.8v-4.3ZM186.6,150.2c0,.4,0,.6.2.8.1.2.3.3.5.3s.4,0,.5-.2c.1-.2.2-.4.2-.8s0-.6-.2-.7c-.1-.2-.3-.2-.5-.2s-.4,0-.5.2c-.1.2-.2.4-.2.7Z"></path>
          <path class="st5" d="M191.3,150.9h.8c-.1.4-.3.7-.5.8-.2.2-.5.2-.9.2-.5,0-1-.2-1.2-.5-.2-.3-.3-.6-.3-1.1s.1-.9.4-1.2c.3-.3.6-.4,1-.4s.8.2,1.1.5c.3.3.4.8.4,1.4h-2.1c0,.2,0,.4.2.6.1.1.3.2.5.2s.2,0,.3-.1.2-.2.2-.3ZM191.4,150c0-.2,0-.4-.2-.5-.1-.1-.3-.2-.4-.2s-.3,0-.5.2-.2.3-.2.5h1.2Z"></path>
          <path class="st5" d="M193.5,149.7h-.8c0-.4.2-.7.4-.8s.5-.2.9-.2.6,0,.8.1c.2,0,.3.2.4.3,0,.1.1.4.1.7v1c0,.3,0,.5,0,.6,0,.1,0,.3.1.4h-.8c0,0,0-.1,0-.2,0,0,0,0,0,0-.1.1-.3.2-.5.3-.2,0-.3.1-.5.1-.3,0-.6,0-.8-.3-.2-.2-.3-.4-.3-.7s0-.3.1-.5c0-.1.2-.2.4-.3.2,0,.4-.1.7-.2.4,0,.7-.1.8-.2h0c0-.2,0-.4-.1-.4,0,0-.2-.1-.4-.1s-.3,0-.3,0c0,0-.2.2-.2.3ZM194.6,150.3c-.1,0-.3,0-.5.1-.2,0-.4,0-.5.1-.1,0-.2.2-.2.3s0,.2.1.3.2.1.3.1.3,0,.4-.1c.1,0,.2-.2.2-.3,0,0,0-.2,0-.4v-.2Z"></path>
          <path class="st5" d="M199.1,151.9h-.8v-1.6c0-.3,0-.6,0-.7,0,0,0-.2-.2-.2,0,0-.2,0-.3,0s-.3,0-.4.1c-.1,0-.2.2-.2.3,0,.1,0,.4,0,.7v1.4h-.8v-3.1h.8v.5c.3-.4.6-.5,1-.5s.4,0,.5,0c.2,0,.3.2.3.3,0,.1.1.2.2.3,0,.1,0,.3,0,.6v2Z"></path>
          <path class="st5" d="M201.6,147.5h.9v2.4c0,.4,0,.6,0,.7,0,.2.1.3.3.4.1.1.3.2.6.2s.4,0,.6-.2c.1-.1.2-.2.2-.4,0-.1,0-.4,0-.7v-2.4h.9v2.3c0,.5,0,.9,0,1.1,0,.2-.1.4-.3.5-.1.1-.3.3-.5.4-.2,0-.5.1-.8.1s-.7,0-.9-.1c-.2,0-.4-.2-.5-.4-.1-.2-.2-.3-.2-.5,0-.2,0-.6,0-1.1v-2.3Z"></path>
          <path class="st5" d="M208.9,151.9h-.8v-1.6c0-.3,0-.6,0-.7,0,0,0-.2-.2-.2,0,0-.2,0-.3,0s-.3,0-.4.1c-.1,0-.2.2-.2.3,0,.1,0,.4,0,.7v1.4h-.8v-3.1h.8v.5c.3-.4.6-.5,1-.5s.4,0,.5,0c.2,0,.3.2.3.3,0,.1.1.2.2.3,0,.1,0,.3,0,.6v2Z"></path>
          <path class="st5" d="M209.7,148.3v-.8h.8v.8h-.8ZM209.7,151.9v-3.1h.8v3.1h-.8Z"></path>
          <path class="st5" d="M211.2,150.2c0-.3,0-.5.2-.8.1-.3.3-.5.6-.6.2-.1.5-.2.8-.2.5,0,.9.2,1.2.5.3.3.5.7.5,1.2s-.2.9-.5,1.2c-.3.3-.7.5-1.2.5s-.6,0-.8-.2c-.3-.1-.5-.3-.6-.6-.1-.3-.2-.6-.2-.9ZM212.1,150.3c0,.3,0,.6.2.7.1.2.3.2.5.2s.4,0,.5-.2c.1-.2.2-.4.2-.7s0-.5-.2-.7c-.1-.2-.3-.2-.5-.2s-.4,0-.5.2c-.1.2-.2.4-.2.7Z"></path>
          <path class="st5" d="M218,151.9h-.8v-1.6c0-.3,0-.6,0-.7,0,0,0-.2-.2-.2,0,0-.2,0-.3,0s-.3,0-.4.1c-.1,0-.2.2-.2.3,0,.1,0,.4,0,.7v1.4h-.8v-3.1h.8v.5c.3-.4.6-.5,1-.5s.4,0,.5,0c.2,0,.3.2.3.3,0,.1.1.2.2.3,0,.1,0,.3,0,.6v2Z"></path>
        </g>
      </g>
      <g>
        <path class="st1" d="M281.7,116.5c-.2,2.7,1.6,5,4.2,5.3l-.4,4.2c-2.8-.2-5.1-1.6-6.5-3.6-1.8,2.1-4.4,3.4-7.2,3.6l.4-4.2c2.7-.3,4.9-2.6,5.2-5.3.2-2.7-1.6-5-4.2-5.3l.4-4.2c2.8.2,5.1,1.6,6.5,3.6,1.8-2.1,4.4-3.4,7.2-3.6l-.4,4.2c-2.7.3-4.9,2.6-5.2,5.3ZM280.5,105.9c1.3.1,2.4-.8,2.6-2.1.1-1.3-.8-2.4-2.1-2.6-1.3-.1-2.4.8-2.6,2.1-.1,1.3.8,2.4,2.1,2.6Z"></path>
        <path class="st9" d="M318.9,119.9l.8-9.1h-2.4l.3-3.8h2.4l.4-4.8h4.1l-.4,4.8h3.5l-.3,3.8h-3.5l-.8,8.9c-.2,1.9.5,2.5,2.2,2.5h1.2l-.3,3.8h-1.4c-4.4,0-6.1-1.7-5.7-6h0Z"></path>
        <path class="st9" d="M301.3,125.8c-1.3-.4-2.4-.9-3.3-1.5l2.4-3.3c.7.6,1.5,1,2.4,1.2,1,.3,2.1.4,3.3.4s2.2-.2,2.9-.5c.7-.4,1-.9,1.1-1.7,0-1-.5-1.9-3.2-2.2l-2.2-.3c-3.6-.5-5.5-2.4-5.2-5.6.2-1.9,1-3.4,2.5-4.4,1.5-.9,3.5-1.4,5.9-1.4s2.6.1,3.7.4c1.3.3,2.4.8,3.4,1.5l-2.4,3.2c-.7-.5-1.4-.9-2.4-1.1-.9-.2-1.8-.3-2.8-.3s-2,.2-2.7.5c-.7.3-1.1.8-1.1,1.6-.1,1.2.7,1.8,2.7,2.1l2.2.3c4.3.6,5.9,2.6,5.7,5.6-.2,2-1.1,3.5-2.6,4.5-1.5,1-3.6,1.5-6,1.5s-3-.2-4.3-.5h0Z"></path>
        <path class="st9" d="M291.3,107h4.2l-1.7,18.9h-4.2l1.7-18.9Z"></path>
        <path class="st9" d="M254.4,123.7c-1.1-1.5-1.5-3.4-1.2-7.2.3-3.7,1.1-5.7,2.4-7.2,1.5-1.7,3.7-2.7,6.6-2.7s4.9.9,6.1,2.7c1,1.5,1.4,3.5,1.1,7.2v1.5h-12.3c0,2,.1,2.8.7,3.5.6.8,1.5,1.3,3.2,1.3s2-.2,2.8-.6c.8-.4,1.4-.9,1.9-1.7l3.1,2.1c-.8,1.2-1.9,2.2-3.3,2.8-1.4.7-3,1-4.9,1-3,0-5-.9-6.3-2.7h0ZM265.6,114.7c0-1.7-.1-2.5-.5-3.1-.6-.8-1.5-1.4-3-1.4s-2.6.6-3.3,1.3c-.6.6-.9,1.4-1.1,3.1h8Z"></path>
        <path class="st9" d="M334.7,110.8h3.8v1h-2.8v1.8h2.5v1h-2.5v2.6h-1v-6.3h0Z"></path>
        <path class="st9" d="M340.1,110.8h2.3c1.3,0,2.1.7,2.1,1.9s-.5,1.5-1.2,1.8l1.3,2.6h-1.2l-1.1-2.5h-1.1v2.5h-1v-6.3h0ZM342.3,113.7c.6,0,1.1-.2,1.1-1s-.5-1-1.1-1h-1.2v2h1.2Z"></path>
        <path class="st9" d="M346.4,116.6c-.5-.5-.6-1.2-.6-2.6s.1-2,.6-2.6c.4-.4,1-.7,1.8-.7s1.4.2,1.8.7c.5.5.6,1.2.6,2.6s-.1,2-.6,2.6c-.4.4-1,.7-1.8.7s-1.4-.2-1.8-.7ZM349.2,115.9c.3-.4.3-1,.3-1.9s0-1.5-.3-1.9c-.2-.3-.6-.4-1-.4s-.8.1-1,.4c-.3.4-.3,1-.3,1.9s0,1.5.3,1.9c.2.3.6.4,1,.4s.8-.1,1-.4Z"></path>
        <path class="st9" d="M352.3,110.8h1.2l1.7,3.9,1.7-3.9h1.2v6.3h-1v-4.3l-1.5,3.2h-.7l-1.5-3.2v4.3h-1v-6.3h0Z"></path>
        <path class="st9" d="M363.1,117c-.3-.1-.6-.3-.9-.6l.7-.7c.2.2.4.4.7.5.3.1.7.2,1,.2s.8,0,1-.2c.2-.2.3-.4.3-.7,0-.4-.2-.7-1.1-.9h-.6c-1.1-.3-1.7-.8-1.7-1.9s.2-1.1.7-1.5c.4-.2.9-.4,1.5-.4s.8,0,1.1.2c.4.1.7.3,1,.5l-.6.7c-.1-.1-.3-.2-.5-.3-.3-.1-.6-.2-1-.2s-.7,0-.9.2c-.2.1-.3.3-.3.6,0,.5.2.7,1,.9h.6c1.2.3,1.8.9,1.8,1.9s-.2,1.1-.6,1.4c-.4.3-1,.5-1.7.5s-1.1-.1-1.5-.3Z"></path>
        <path class="st9" d="M369,116.6c-.5-.5-.6-1.2-.6-2.6s.1-2,.6-2.6c.4-.4,1-.7,1.7-.7s1.3.2,1.7.7c.3.3.5.7.5,1.2l-1,.2c0-.3-.1-.5-.2-.6-.2-.3-.5-.4-1-.4s-.8.1-1,.4c-.3.4-.3,1-.3,1.9s0,1.6.3,1.9c.2.3.5.4,1,.4s.8-.2,1-.4c.1-.2.2-.4.3-.6l1,.2c0,.5-.3.9-.6,1.2-.4.4-1,.7-1.7.7s-1.3-.2-1.7-.7h0Z"></path>
        <path class="st9" d="M374.7,110.8h1v6.3h-1v-6.3Z"></path>
        <path class="st9" d="M377.6,110.8h3.8v1h-2.8v1.7h2.4v.9h-2.4v1.8h2.8v1h-3.8v-6.3h0Z"></path>
        <path class="st9" d="M382.9,110.8h1l2.6,4.4v-4.4h1v6.3h-1l-2.6-4.4v4.4h-1v-6.3Z"></path>
        <path class="st9" d="M389.9,116.6c-.5-.5-.6-1.2-.6-2.6s.1-2,.6-2.6c.4-.4,1-.7,1.7-.7s1.3.2,1.7.7c.3.3.5.7.5,1.2l-1,.2c0-.3-.1-.5-.2-.6-.2-.3-.5-.4-1-.4s-.8.1-1,.4c-.3.4-.3,1-.3,1.9s0,1.6.3,1.9c.2.3.5.4,1,.4s.8-.2,1-.4c.1-.2.2-.4.3-.6l1,.2c0,.5-.3.9-.6,1.2-.4.4-1,.7-1.7.7s-1.3-.2-1.7-.7h0Z"></path>
        <path class="st9" d="M395.6,110.8h3.8v1h-2.8v1.7h2.4v.9h-2.4v1.8h2.8v1h-3.8v-6.3h0Z"></path>
        <path class="st9" d="M335.6,120.6h-1.8v-1h4.6v1h-1.8v5.4h-1v-5.4Z"></path>
        <path class="st9" d="M339.9,125.4c-.5-.5-.6-1.2-.6-2.6s.1-2,.6-2.6c.4-.4,1-.7,1.8-.7s1.4.2,1.8.7c.5.5.6,1.2.6,2.6s-.1,2-.6,2.6c-.4.4-1,.7-1.8.7s-1.4-.2-1.8-.7ZM342.7,124.7c.3-.4.3-1,.3-1.9s0-1.5-.3-1.9c-.2-.3-.6-.4-1-.4s-.8.1-1,.4c-.3.4-.3,1-.3,1.9s0,1.5.3,1.9c.2.3.6.4,1,.4s.8-.1,1-.4Z"></path>
        <path class="st9" d="M348.4,119.6h2.3c1.2,0,2,.6,2,1.6s-.3,1.1-.8,1.4c.6.3.9.8.9,1.5,0,1.1-.7,1.8-2,1.8h-2.4v-6.3h0ZM351.6,121.4c0-.5-.4-.9-1-.9h-1.2v1.7h1.2c.6,0,1-.3,1-.8ZM351.7,124.1c0-.6-.4-.9-1-.9h-1.3v1.8h1.3c.6,0,1-.4,1-.9Z"></path>
        <path class="st9" d="M354.3,123.8v-4.2h1v4.2c0,.8.3,1.3,1.3,1.3s1.3-.5,1.3-1.3v-4.2h1v4.2c0,1.2-.6,2.3-2.3,2.3s-2.3-1-2.3-2.3h0Z"></path>
        <path class="st9" d="M361.2,125.8c-.3-.1-.6-.3-.9-.6l.7-.7c.2.2.4.4.7.5.3.1.7.2,1,.2s.8,0,1-.2c.2-.2.3-.4.3-.7,0-.4-.2-.7-1.1-.9h-.6c-1.1-.3-1.7-.8-1.7-1.9s.2-1.1.7-1.5c.4-.2.9-.4,1.5-.4s.8,0,1.1.2c.4.1.7.3,1,.5l-.6.7c-.1-.1-.3-.2-.5-.3-.3-.1-.6-.2-1-.2s-.7,0-.9.2c-.2.1-.3.3-.3.6,0,.5.2.7,1,.9h.6c1.2.3,1.8.9,1.8,1.9s-.2,1.1-.6,1.4c-.4.3-1,.5-1.7.5s-1.1-.1-1.5-.3Z"></path>
        <path class="st9" d="M366.7,119.6h1v6.3h-1v-6.3Z"></path>
        <path class="st9" d="M369.6,119.6h1l2.6,4.4v-4.4h1v6.3h-1l-2.6-4.4v4.4h-1v-6.3Z"></path>
        <path class="st9" d="M376.1,119.6h3.8v1h-2.8v1.7h2.4v.9h-2.4v1.8h2.8v1h-3.8v-6.3h0Z"></path>
        <path class="st9" d="M382.1,125.8c-.3-.1-.6-.3-.9-.6l.7-.7c.2.2.4.4.7.5.3.1.7.2,1,.2s.8,0,1-.2c.2-.2.3-.4.3-.7,0-.4-.2-.7-1.1-.9h-.6c-1.1-.3-1.7-.8-1.7-1.9s.2-1.1.7-1.5c.4-.2.9-.4,1.5-.4s.8,0,1.1.2c.4.1.7.3,1,.5l-.6.7c-.1-.1-.3-.2-.5-.3-.3-.1-.6-.2-1-.2s-.7,0-.9.2c-.2.1-.3.3-.3.6,0,.5.2.7,1,.9h.6c1.2.3,1.8.9,1.8,1.9s-.2,1.1-.6,1.4c-.4.3-1,.5-1.7.5s-1.1-.1-1.5-.3Z"></path>
        <path class="st9" d="M388,125.8c-.3-.1-.6-.3-.9-.6l.7-.7c.2.2.4.4.7.5.3.1.7.2,1,.2s.8,0,1-.2c.2-.2.3-.4.3-.7,0-.4-.2-.7-1.1-.9h-.6c-1.1-.3-1.7-.8-1.7-1.9s.2-1.1.7-1.5c.4-.2.9-.4,1.5-.4s.8,0,1.1.2c.4.1.7.3,1,.5l-.6.7c-.1-.1-.3-.2-.5-.3-.3-.1-.6-.2-1-.2s-.7,0-.9.2c-.2.1-.3.3-.3.6,0,.5.2.7,1,.9h.6c1.2.3,1.8.9,1.8,1.9s-.2,1.1-.6,1.4c-.4.3-1,.5-1.7.5s-1.1-.1-1.5-.3Z"></path>
      </g>
      <g>
        <rect class="st2" x="6" y="59" width="138.9" height="142.9"></rect>
        <g class="st4">
          <path class="st7" d="M36.4,107c0-.2,0-.4,0-.6s0-.2,0-.4c1.6,0,3.1-1.2,3.1-2.5s-.4-1.2-.7-1.5c0,0,.1,0,.2,0,.2.2.9.9.9,1.9,0,1.6-1.6,3.1-3.5,3.2M34.8,101.4c0-.2,0-.3-.2-.5,0-.2,0-.3.3-.2-.1.1,0,.4,0,.4,0,0,.3-.1.2-.3.4.1.1.7-.3.6M34.4,102.2c0-.2-.2-.5-.3-.7-.1-.2-.4-.4-.7-.4s-.4,0-.5.1c0-.1-.2-.4-.2-.5s.2-.2.6-.2c.8,0,1.3.4,1.3,1s0,.4-.2.6M36.6,113.1c0,0,.1,0,.2,0,.2.7,1.2,1.9,1.2,2h0s0,0,0,0c.2,0,.8-.1,1.3-.1h0c0,0,.1,0,.1,0,0,0,0,0,0,.2,0,.1,0,.3-.1.4-.2-.2-.5-.3-.9-.3s-.3,0-.4,0h0s0,0,0,0l.3.3c.4.4.7.7.7,1s-.1.3-.3.4c0-.4-.5-1-.9-1.3h0s0,.1,0,.1c0,0,0,.2,0,.4,0,.8,0,.9-.4.9s-.1,0-.1,0c.2-.2.2-.4.2-.9v-.2s0-.2,0-.2c0-.2,0-.3,0-.4h0c0,0,0,0,0,0-.1,0-.4,0-.6,0-.4,0-.7,0-.9.2-.1-.1-.3-.3-.3-.4,0-.2.1-.2.2-.2s.1,0,.2,0c.2,0,.4,0,.9,0h0,0c-.1-.4-.5-1-1.1-1.7,0-.2.1-.3.3-.3M31.5,115h0s0,0,0,0c.5,0,.8,0,.9,0,0,0,.2,0,.2,0,.1,0,.2,0,.2.2s-.1.3-.3.4c-.2-.2-.5-.2-.9-.2s-.4,0-.6,0h0s0,0,0,0h0c0,.2,0,.3,0,.5v.2s0,.2,0,.2c0,.4,0,.7.2.9,0,0-.1,0-.1,0-.3,0-.4-.1-.4-.9s0-.3,0-.4v-.2s0,0,0,0c-.4.3-.8.9-.9,1.3-.1,0-.3-.3-.3-.4,0-.2.3-.6.7-1l.2-.2h0s0,0,0,0c0,0-.2,0-.4,0-.4,0-.7,0-.9.3,0,0-.1-.3-.1-.4s0-.1,0-.2c0,0,0,0,.2,0h0c.5,0,1.1,0,1.3.1h0s0,0,0,0c0,0,1-1.3,1.2-2,0,0,.1,0,.2,0,.2,0,.2.1.3.3-.6.7-.9,1.3-1.1,1.6M29,103.9c0-.9.7-1.7.9-1.9,0,0,.1,0,.2,0-.3.3-.7.8-.7,1.5,0,1.4,1.5,2.5,3.1,2.5,0,.1,0,.2,0,.4,0,.2,0,.4,0,.6-1.9,0-3.5-1.5-3.5-3.2M41.5,106.7c.8,1.3,1.5,1.3,2.5,1.3-.8-.6-1.4-1.4-1.6-1.8l-1.5-2.4c-.1-.8-.5-1.5-1.1-2,.2,0,.4-.2.5-.2-1,0-2-.5-2.5-.5s-.6.2-.6.5c0,.3.3.6.9.6s.3,0,.5,0c.3.4.6.8.6,1.4,0,1.1-1.3,1.9-2.6,1.9s-.1,0-.2,0c-.1-.3-.5-.7-.5-1.2,0-.9.6-1.5.6-2.4s-.3-.8-.4-1c.2-.1.3-.3.4-.5,0,0-.2,0-.4,0-.6,0-1.1-.2-1.6-.2s-.4,0-.4.2,0,0,0,0c-.1,0-.2,0-.3,0-.1,0-.3,0-.5,0-.6,0-.8.2-.8.5s.1.5.3.8c.2-.1.5-.2.6-.2.3,0,.6.3.7.7-.2,0-.3,0-.5,0-.6,0-1-.2-1.1-.2s0,0,0,0c0,0,.2.3.5.4.4.2,1.1.2,1.2.2,0,0-.1.2-.2.3,0,0,0,0,0,0-.4,0-.6-.1-1.1-.3,0,0,0,0,0,0,0,.2.6.7,1.1.9-.4.6-1,1.1-1.2,2,0,0-.1,0-.2,0-1.3,0-2.6-.8-2.6-1.9s.3-1,.6-1.4c.2,0,.4,0,.5,0,.6,0,.9-.3.9-.6,0-.3-.2-.5-.6-.5-.5,0-1.5.5-2.5.5,0,0,.3.2.5.2-.6.5-1,1.2-1.1,2l-1.5,2.4c-.3.4-.8,1.2-1.6,1.8,1,0,1.6,0,2.5-1.3l.8-1.3c0,.2.1.3.2.5l-1.6,2.5c-.3.4-.8,1.2-1.6,1.8,1,0,1.6,0,2.5-1.3l1.3-2.1c.1.1.2.2.3.3l-1.9,3c-.3.4-.8,1.2-1.6,1.8,1,0,1.6,0,2.5-1.3l1.8-3c.1,0,.2.2.4.2l-2.3,3.6c-.3.4-.8,1.2-1.6,1.8,1,0,1.6,0,2.5-1.3l2.3-3.7c.1,0,.3.1.4.1l-2.6,4.2c-.3.4-.8,1.2-1.6,1.8,1,0,1.6,0,2.5-1.3l2.8-4.5s0,0,0,0c0,.2.1.5.1.7,0,1.4-.9,2.6-2,3.6,0,0,.2,0,.3,0,.2,0,.4,0,.5,0-.3.6-.8,1.3-1.1,1.7-.4,0-.9-.1-1.2-.1s-.4.2-.4.4c0,.3.2.6.3.7,0-.2.2-.4.9-.4s0,0,0,0c-.2.2-.8.7-.8,1.1s.3.7.7.7c0,0,0-.2,0-.2,0-.3.3-.7.5-1,0,0,0,0,0,.2,0,.8,0,1.1.6,1.1s.4-.1.5-.2c-.3-.3-.3-.5-.3-.9s0-.2,0-.4c0,0,0-.2,0-.3.2,0,.2,0,.4,0,0,0,.7,0,.9.3.2-.2.5-.4.5-.7s0-.4-.4-.4-.6,0-.9,0c0-.2.5-.8.9-1.3,0,.2.1.4.3.5,0-.3.2-1.2.6-1.7,0,.4.1.7.1,1.5,0,1.9-.5,3.3-1.4,3.6.1.2.4.4.7.4s.5-.4.7-.8c.1.3.4,1,.7,1s.6-.7.7-1c.2.4.4.8.7.8s.5-.2.7-.4c-1-.3-1.4-1.7-1.4-3.6s0-1.1.1-1.5c.5.5.6,1.4.6,1.7.2-.2.3-.3.3-.5.4.4.8,1.1.9,1.3-.4,0-.8,0-.9,0-.4,0-.4.2-.4.4,0,.3.3.5.5.7.2-.4.9-.3.9-.3.1,0,.2,0,.4,0,0,0,0,.2,0,.3v.4c0,.4,0,.7-.3.9,0,0,.2.2.5.2.5,0,.6-.4.6-1.1s0,0,0-.2c.2.3.5.6.5,1s0,.1,0,.2c.4,0,.7-.4.7-.7,0-.4-.6-.9-.8-1.1,0,0,0,0,0,0,.7,0,.8.2.9.4.2-.1.3-.4.3-.7s0-.4-.4-.4-.9,0-1.2.1c-.3-.4-.8-1.1-1.1-1.7.1,0,.3,0,.5,0s.2,0,.3,0c-1.1-1-2-2.2-2-3.6s0-.5.1-.7c0,0,0,0,0,0l2.8,4.5c.8,1.3,1.5,1.3,2.5,1.3-.8-.6-1.4-1.4-1.6-1.8l-2.6-4.2c.1,0,.3,0,.4-.1l2.3,3.7c.8,1.3,1.5,1.3,2.5,1.3-.8-.6-1.4-1.4-1.6-1.8l-2.2-3.6c.1,0,.3-.1.4-.2l1.8,3c.8,1.3,1.5,1.3,2.5,1.3-.8-.6-1.4-1.4-1.6-1.8l-1.9-3c.1,0,.2-.2.3-.3l1.3,2.1c.8,1.3,1.5,1.3,2.5,1.3-.8-.6-1.4-1.4-1.6-1.8l-1.6-2.5c0-.2.2-.3.2-.5l.8,1.3ZM41.5,106.7"></path>
          <rect class="st7" x="49" y="101.1" width="2.9" height="16.3"></rect>
          <rect class="st8" x="49" y="117.3" width="2.9" height="16.4"></rect>
          <rect class="st0" x="49" y="133.7" width="2.9" height="16.3"></rect>
          <path class="st7" d="M59.2,107.6v-2.9h2.2v-.7h-2.2v-2.5h2.4v-.7c0,0-3.3,0-3.3,0v6.8h.9ZM64,103.4c.5,0,.8.4.8,1s0,.3,0,.3h-1.7c0-.9.4-1.4,1-1.4h0ZM65.6,107.1l-.3-.6c-.1.1-.4.4-1,.4s-1.2-.5-1.3-1.6h2.4c0-.2,0-.5,0-.9,0-1.1-.5-1.7-1.4-1.7s-1.8.7-1.8,2.4.7,2.5,1.9,2.5,1.3-.4,1.4-.6h0ZM68.2,107c-.5,0-1-.4-1-1.7s.6-1.8,1.3-1.8.5,0,.6.2v2.9c-.1.2-.4.5-.9.5h0ZM69.1,107.1h0v.5h.7v-7h-.8v2.3c-.2,0-.4-.1-.7-.1-1,0-2.1.6-2.1,2.5s.8,2.4,1.6,2.4,1.1-.5,1.1-.6h0ZM72.6,103.4c.5,0,.8.4.8,1s0,.3,0,.3h-1.7c0-.9.4-1.4,1-1.4h0ZM74.2,107.1l-.3-.6c-.1.1-.4.4-1,.4-.8,0-1.2-.5-1.3-1.6h2.4c0-.2,0-.5,0-.9,0-1.1-.5-1.7-1.4-1.7s-1.8.7-1.8,2.4.7,2.5,1.9,2.5,1.3-.4,1.4-.6h0ZM77.3,102.9c0,0-.2,0-.4,0-.6,0-.9.4-1,.7h0v-.6h-.7v4.7h.8v-3.4c.1-.3.4-.6.9-.6s.4,0,.4,0v-.7ZM79.9,104.9h-.2c-1.1,0-2,.4-2,1.5s.5,1.3,1.3,1.3.9-.4,1-.6h0c0,.2,0,.4,0,.5h.8c0-.1,0-.6,0-1v-2.1c0-1.2-.5-1.7-1.5-1.7s-1.2.4-1.4.6l.3.5c.2-.2.5-.4,1-.4s.8.3.8,1v.5ZM79.9,105.5v1c0,.1-.3.5-.8.5s-.6-.2-.6-.7.4-.7,1.2-.8h.3ZM82.6,100.6h-.8v6c0,.8.4,1.1.9,1.1s.6,0,.6-.1v-.6c-.1,0-.2,0-.4,0-.3,0-.4-.1-.4-.5v-5.9ZM91.1,100.8l-1.6,4.7c-.2.4-.3.9-.3,1.2h0c0-.3-.1-.7-.3-1.2l-1.6-4.7h-1v6.8h.8v-3.2c0-.8,0-1.6,0-1.9h0c0,.3.3,1,.5,1.8l1.1,3.3h.7l1.1-3.3c.3-.8.5-1.5.5-1.8h0c0,.3,0,1.1,0,1.9v3.2h.8v-6.8h-.9ZM93.7,101.7c.3,0,.5-.2.5-.6s-.2-.6-.5-.6-.5.2-.5.6.2.6.5.6h0ZM94.1,102.9h-.8v4.7h.8v-4.7ZM97.1,103.4c.5,0,.8.3.8,1.1v3h.8v-3.1c0-1.3-.5-1.7-1.4-1.7s-1.2.5-1.2.6h0v-.5h-.7v4.7h.8v-3.6c.2-.2.5-.5,1-.5h0ZM100.3,101.7c.3,0,.5-.2.5-.6s-.2-.6-.5-.6-.5.2-.5.6.2.6.5.6h0ZM100.7,102.9h-.8v4.7h.8v-4.7ZM104.3,103.3c-.2-.2-.5-.5-1.2-.5s-1.4.5-1.4,1.2.4,1,.9,1.4l.3.2c.5.3.7.4.7.9s-.3.5-.7.5-.8-.3-1-.5l-.4.6c.2.2.6.5,1.3.5s1.5-.6,1.5-1.3-.4-1.1-1-1.5l-.3-.2c-.4-.3-.6-.5-.6-.8s.2-.5.6-.5.7.3.8.4l.3-.6ZM107.5,107.5v-.6c-.2,0-.4.1-.6.1-.4,0-.6-.2-.6-.9v-2.6h1v-.6c0,0-1,0-1,0v-1.3h-.7v1.3c0,0-.7.1-.7.1v.5h.6v2.7c0,1,.4,1.5,1.2,1.5s.7-.2.7-.2h0ZM110.4,102.9c0,0-.2,0-.4,0-.6,0-.9.4-1,.7h0v-.6h-.7v4.7h.8v-3.4c.1-.3.4-.6.9-.6s.4,0,.4,0v-.7ZM113.5,102.9l-.7,2.6c-.1.5-.3,1-.3,1.4h0c0-.4-.2-.8-.3-1.4l-.7-2.6h-.9l1.5,4.7v.2c-.3.7-.5,1.1-1.1,1.1s-.3,0-.3,0v.7c0,0,.2,0,.4,0,.9,0,1.3-.6,1.7-1.7l1.5-5h-.8ZM113.5,102.9"></path>
          <path class="st7" d="M60.1,113.3v-.6c0,0-1,0-1,0v-.8c0-.6.2-.8.6-.8s.4,0,.4.1l.2-.7c0,0-.3-.2-.7-.2-.7,0-1.3.4-1.3,1.4v.9h-.6v.6h.6v4.1h.8v-4.1h1ZM60.6,115c0,1.8.8,2.5,1.8,2.5s1.9-.7,1.9-2.5-.8-2.5-1.8-2.5-1.9.7-1.9,2.5h0ZM63.5,115c0,1.2-.4,1.8-1,1.8s-1-.5-1-1.8.4-1.8,1-1.8,1,.5,1,1.8h0ZM67.5,112.7c0,0-.2,0-.4,0-.6,0-.9.4-1,.7h0v-.6h-.7v4.7h.8v-3.4c.1-.3.4-.6.9-.6s.4,0,.4,0v-.7ZM73.5,110.6h-3.3v6.8h3.5v-.7c0,0-2.6,0-2.6,0v-2.4h2.2v-.7h-2.2v-2.3h2.4v-.7ZM77.5,113c-.1-.2-.5-.5-1.2-.5s-2,.7-2,2.5.8,2.5,1.9,2.5,1.1-.3,1.2-.5l-.3-.5c0,.1-.3.3-.8.3s-1.1-.5-1.1-1.8.5-1.7,1.2-1.7.7.3.8.4l.3-.6ZM78.1,115c0,1.8.8,2.5,1.8,2.5s1.9-.7,1.9-2.5-.8-2.5-1.8-2.5-1.9.7-1.9,2.5h0ZM81,115c0,1.2-.4,1.8-1,1.8s-1-.5-1-1.8.4-1.8,1-1.8,1,.5,1,1.8h0ZM84.6,113.2c.5,0,.8.3.8,1.1v3h.8v-3.1c0-1.3-.5-1.7-1.4-1.7s-1.2.5-1.2.6h0v-.5h-.7v4.7h.8v-3.6c.2-.2.5-.5,1-.5h0ZM87.1,115c0,1.8.8,2.5,1.8,2.5s1.9-.7,1.9-2.5-.8-2.5-1.8-2.5-1.9.7-1.9,2.5h0ZM90,115c0,1.2-.4,1.8-1,1.8s-1-.5-1-1.8.4-1.8,1-1.8,1,.5,1,1.8h0ZM93.6,113.3c.5,0,.7.3.7,1.1v3h.8v-3.2c0-.2,0-.3,0-.5.2-.2.5-.5.9-.5s.8.3.8,1.1v3h.8v-3.2c0-1.1-.5-1.7-1.4-1.7s-1,.4-1.2.6c-.2-.4-.6-.6-1.1-.6s-1.1.4-1.2.6h0v-.5h-.7v4.7h.8v-3.6c.1-.2.4-.5,1-.5h0ZM99.2,111.5c.3,0,.5-.2.5-.6s-.2-.6-.5-.6-.5.2-.5.6.2.6.5.6h0ZM99.6,112.7h-.8v4.7h.8v-4.7ZM103.7,113c-.1-.2-.5-.5-1.2-.5s-2,.7-2,2.5.8,2.5,1.9,2.5,1.1-.3,1.2-.5l-.3-.5c0,.1-.3.3-.8.3s-1.1-.5-1.1-1.8.5-1.7,1.2-1.7.7.3.8.4l.3-.6ZM107.6,114.6l.6-1.9c.1-.5.3-1,.3-1.3h0c0,.3.1.8.3,1.3l.5,1.9h-1.7ZM108.8,110.6h-.7l-2.2,6.8h.9l.6-2.2h2l.6,2.2h.9l-2.2-6.8ZM113.6,113.3v-.6c0,0-1,0-1,0v-.8c0-.6.2-.8.6-.8s.4,0,.4.1l.2-.7c0,0-.3-.2-.7-.2-.7,0-1.3.4-1.3,1.4v.9h-.6v.6h.6v4.1h.8v-4.1h1ZM116.3,113.3v-.6c0,0-1,0-1,0v-.8c0-.6.2-.8.6-.8s.4,0,.4.1l.2-.7c0,0-.3-.2-.7-.2-.7,0-1.3.4-1.3,1.4v.9h-.6v.6h.6v4.1h.8v-4.1h1ZM119,114.7h-.2c-1.1,0-2,.4-2,1.5s.5,1.3,1.3,1.3.9-.4,1-.6h0c0,.2,0,.4,0,.5h.8c0-.1,0-.6,0-1v-2.1c0-1.2-.5-1.7-1.5-1.7s-1.2.4-1.4.6l.3.5c.2-.2.5-.4,1-.4s.8.3.8,1v.5ZM119,115.3v1c0,.1-.3.5-.8.5s-.6-.2-.6-.7.4-.7,1.2-.8h.3ZM121.4,111.5c.3,0,.5-.2.5-.6s-.2-.6-.5-.6-.5.2-.5.6.2.6.5.6h0ZM121.8,112.7h-.8v4.7h.8v-4.7ZM125.2,112.7c0,0-.2,0-.4,0-.6,0-.9.4-1,.7h0v-.6h-.7v4.7h.8v-3.4c.1-.3.4-.6.9-.6s.4,0,.4,0v-.7ZM128.2,113.1c-.2-.2-.5-.5-1.2-.5s-1.4.5-1.4,1.2.4,1,.9,1.4l.3.2c.4.3.7.4.7.9s-.3.5-.7.5-.8-.3-1-.5l-.4.6c.2.2.6.5,1.3.5s1.5-.6,1.5-1.3-.4-1.1-1-1.5l-.3-.2c-.4-.3-.6-.5-.6-.8s.2-.5.6-.5.7.3.8.4l.3-.6ZM128.2,113.1"></path>
          <path class="st7" d="M60.1,124.5h-.2c-1.1,0-2,.4-2,1.5s.5,1.3,1.3,1.3.9-.4,1-.6h0c0,.2,0,.4,0,.5h.8c0-.1,0-.6,0-1v-2.1c0-1.2-.5-1.7-1.5-1.7s-1.2.4-1.4.6l.3.5c.2-.2.5-.4,1-.4s.8.3.8,1v.5ZM60.1,125.1v1c0,.1-.3.5-.8.5s-.6-.2-.6-.7.4-.7,1.2-.8h.3ZM63.8,123c.5,0,.8.3.8,1.1v3h.8v-3.1c0-1.3-.5-1.7-1.4-1.7s-1.2.5-1.2.6h0v-.5h-.7v4.7h.8v-3.6c.2-.2.5-.5,1-.5h0ZM68.2,126.6c-.5,0-1-.4-1-1.7s.6-1.8,1.3-1.8.5,0,.6.2v2.9c-.1.2-.4.5-.9.5h0ZM69.2,126.7h0v.5h.7v-7h-.8v2.3c-.1,0-.4-.1-.7-.1-1,0-2.1.6-2.1,2.5s.8,2.4,1.6,2.4,1.1-.5,1.1-.6h0ZM76.7,120.4h-3.3v6.8h3.5v-.7s-2.6,0-2.6,0v-2.4h2.2v-.7h-2.2v-2.3h2.4v-.7ZM79.6,123c.5,0,.8.3.8,1.1v3h.8v-3.1c0-1.3-.5-1.7-1.4-1.7s-1.2.5-1.2.6h0v-.5h-.7v4.7h.8v-3.6c.2-.2.5-.5,1-.5h0ZM83.9,123c.5,0,.8.4.8,1s0,.3,0,.3h-1.7c0-.9.4-1.4,1-1.4h0ZM85.5,126.7l-.3-.6c-.1.1-.4.4-1,.4-.8,0-1.2-.5-1.3-1.6h2.4c0-.2,0-.5,0-.9,0-1.1-.5-1.7-1.4-1.7s-1.8.7-1.8,2.4.7,2.5,1.9,2.5,1.3-.4,1.4-.6h0ZM88.7,122.5c0,0-.2,0-.4,0-.6,0-.9.4-1,.7h0v-.6h-.7v4.7h.8v-3.4c.1-.3.4-.6.9-.6s.4,0,.4,0v-.7ZM91.5,123.9c0,.7-.4.9-.8.9s-.8-.3-.8-.9.4-.9.8-.9.8.3.8.9h0ZM92.7,127.5c0-.9-.7-1.2-1.6-1.2h-.6c-.3,0-.5-.1-.5-.3s.2-.4.4-.4c0,0,.2,0,.2,0,.9,0,1.6-.6,1.6-1.6s0-.6-.2-.8h.6v-.6c.1,0-1.3,0-1.3,0-.2,0-.4-.1-.6-.1-.9,0-1.6.5-1.6,1.6s.3,1.2.8,1.4h0c-.1,0-.6.3-.6.8s.1.5.3.7h0c-.2.1-.8.5-.8,1.2s.5,1.3,1.5,1.3,2.3-.7,2.3-1.7h0ZM90.4,128.6c-.6,0-.8-.3-.8-.8s.3-.7.5-.8c.1,0,.2,0,.4,0h.6c.5,0,.8.2.8.6s-.4.9-1.4.9h0ZM95.9,122.5l-.7,2.6c-.1.5-.3,1-.3,1.4h0c0-.4-.2-.8-.3-1.4l-.7-2.6h-.9l1.5,4.7v.2c-.3.7-.5,1.1-1.1,1.1s-.3,0-.3,0v.7c0,0,.2,0,.4,0,.9,0,1.3-.6,1.7-1.7l1.5-5h-.8ZM95.9,122.5"></path>
        </g>
        <g class="st4">
          <path class="st7" d="M28,77.3c-.2-.2-.5-.3-.9-.3-.6,0-1,.3-1,.9s.4.7.7.9l.8.4c.7.4,1.3.8,1.3,1.7s-.7,1.7-2,1.7-1.4-.3-1.5-.4c0-.2,0-.8,0-.9,0-.3,0-.4.3-.4s.1,0,.2,0l.2.9c.2.1.5.3.9.3.7,0,1.1-.4,1.1-.9s-.4-.8-1.1-1.2l-.5-.3c-.6-.3-1.1-.7-1.1-1.6s.8-1.6,1.9-1.6,1.2.2,1.4.3c0,0,0,.7,0,.8,0,.3,0,.4-.3.4s-.1,0-.2,0l-.2-.8Z"></path>
          <path class="st7" d="M33.5,82h.6c0,0,0,.1,0,.2,0,.2-.1.3-.3.3h-1.1c0,.1,0-.5,0-.5h0c-.1.2-.5.6-1.3.6s-1.4-.5-1.4-1.6v-2.2h-.6c0,0,0-.1,0-.2,0-.1.1-.2.3-.3h1.2c0-.1,0,2.6,0,2.6,0,.8.4,1,.8,1s.7-.2.9-.4v-2.7h-.6c0,0,0-.1,0-.2,0-.1.1-.2.3-.3h1.2c0-.1,0,3.6,0,3.6Z"></path>
          <path class="st7" d="M36,78.9h0c.2-.2.6-.6,1.3-.6s1.6.7,1.6,2-1,2.4-2.2,2.4-.4,0-.6,0v1.3h.5c0,.1.1.2.1.2s0,.2,0,.2h-2s0,0,0,0c0-.2.1-.2.3-.3h.3v-5h-.6c0,0,0-.1,0-.2,0-.1.1-.2.3-.3h1.2c0-.1,0,.4,0,.4ZM36.1,81.9c.2.1.4.2.7.2.7,0,1.2-.5,1.2-1.7s-.5-1.4-1.1-1.4-.7.2-.8.3v2.6Z"></path>
          <path class="st7" d="M40.9,78.9h0c.2-.2.6-.6,1.3-.6s1.6.7,1.6,2-1,2.4-2.2,2.4-.4,0-.6,0v1.3h.5c0,.1.1.2.1.2s0,.2,0,.2h-2s0,0,0,0c0-.2.1-.2.3-.3h.3v-5h-.6c0,0,0-.1,0-.2,0-.1.1-.2.3-.3h1.2c0-.1,0,.4,0,.4ZM41,81.9c.2.1.4.2.7.2.7,0,1.2-.5,1.2-1.7s-.5-1.4-1.1-1.4-.7.2-.8.3v2.6Z"></path>
          <path class="st7" d="M48.6,80.4c0,1.5-1,2.2-2.1,2.2s-2-.7-2-2.1,1-2.2,2.1-2.2,1.9.6,1.9,2.1ZM45.5,80.4c0,1.2.5,1.7,1.1,1.7s1.1-.5,1.1-1.7-.5-1.7-1.1-1.7-1.1.5-1.1,1.7Z"></path>
          <path class="st7" d="M50.7,79.1h0c.2-.3.5-.8,1.1-.8s.6.2.6.5,0,.4-.2.4c0,0-.3-.1-.6-.1-.5,0-.7.2-.9.4v2.6h.6c0,.1.1.2.1.2s0,.2,0,.2h-2.1s0,0,0,0c0-.2.1-.2.3-.3h.3v-3.3h-.6c0,0,0-.1,0-.2,0-.1.1-.2.3-.3h1.2c0-.1,0,.6,0,.6Z"></path>
          <path class="st7" d="M55.3,78.8h-1.2v2.5c0,.4.1.7.6.7s.6-.1.7-.2c0,0,0,.2,0,.3s-.3.5-1.1.5-1.1-.5-1.1-1.1v-2.7h-.6s0,0,0,0c0-.2.1-.3.3-.3h.4c0-.1.2-1.3.2-1.3h.6v1.2h1.3v.5Z"></path>
          <path class="st7" d="M56.9,80.5c0,1.1.5,1.6,1.3,1.6s.9-.2,1.1-.4c0,0,.1.2.1.3,0,.2-.6.7-1.5.7s-1.9-.6-1.9-2.1.9-2.3,1.9-2.3,1.5.6,1.5,1.5,0,.5-.1.7h-2.3ZM58.4,80c0,0,0-.2,0-.4,0-.5-.2-.9-.7-.9s-.8.4-.9,1.2h1.5Z"></path>
          <path class="st7" d="M63.8,82h.6c0,0,0,.1,0,.2,0,.2-.1.3-.3.3h-1.1c0,.1,0-.5,0-.5h0c-.2.3-.6.6-1.2.6s-1.6-.5-1.6-2,1.1-2.3,2.2-2.3.5,0,.6,0v-1.5h-.6c0,0,0-.1,0-.2,0-.1.1-.2.3-.3h1.2c0-.1,0,5.7,0,5.7ZM63,79c-.1-.1-.4-.3-.7-.3-.7,0-1.2.5-1.2,1.6s.5,1.6,1.1,1.6.8-.2.9-.4v-2.6Z"></path>
          <path class="st7" d="M68.1,78.8h0c.2-.3.6-.6,1.2-.6s1.6.5,1.6,2-1.1,2.3-2.3,2.3-1.2-.2-1.5-.3v-5.5h-.6c0,0,0-.1,0-.2,0-.1.1-.2.3-.3h1.2c0-.1,0,2.5,0,2.5ZM68.1,81.9c.2.1.4.2.7.2.7,0,1.2-.5,1.2-1.7s-.6-1.5-1.1-1.5-.7.2-.9.4v2.6Z"></path>
          <path class="st7" d="M75.3,78.8l-1.4,3.8c-.5,1.3-1.1,1.8-1.8,1.8s-.6-.2-.6-.5,0-.3.1-.4c.1,0,.2,0,.4,0,.5,0,1-.2,1.3-.9l-1.6-3.9h-.4c0-.1,0-.2,0-.2,0-.1.1-.2.2-.2h1.6c0,0,.1,0,.1,0s0,.2,0,.2h-.5c0,.1,1,2.9,1,2.9h0l1-2.8h-.6c0-.1,0-.2,0-.2,0-.1.1-.2.2-.2h1.4c0,0,.1,0,.1,0s0,.2,0,.2h-.4Z"></path>
          <path class="st7" d="M76.9,79.3c-.3,0-.5-.2-.5-.5s.2-.5.5-.5.5.2.5.5-.2.5-.5.5ZM76.9,82.6c-.3,0-.5-.2-.5-.5s.2-.5.5-.5.5.2.5.5-.2.5-.5.5Z"></path>
        </g>
        <g class="st4">
          <path class="st7" d="M29.2,172c0,1.5-1,2.2-2.1,2.2s-2-.7-2-2.1,1-2.2,2.1-2.2,1.9.6,1.9,2.2ZM26.1,172c0,1.2.5,1.7,1.1,1.7s1.1-.5,1.1-1.7-.5-1.7-1.1-1.7-1.1.5-1.1,1.7Z"></path>
          <path class="st7" d="M34.1,173.6h.5c0,.1.1.2.1.2s0,.2,0,.2h-2s0,0,0,0c0-.2.1-.2.3-.3h.3v-2.3c0-.7-.4-1-.8-1s-.8.2-1,.4v2.8h.5c0,.1.1.2.1.2s0,.2,0,.2h-2s0,0,0,0c0-.2.1-.2.3-.3h.3v-3.3h-.6c0,0,0-.1,0-.2,0-.1.1-.3.3-.3h1.2c0-.1,0,.5,0,.5h0c.2-.3.6-.7,1.4-.7s1.3.5,1.3,1.5v2.3Z"></path>
          <path class="st7" d="M39.6,170.4h-1.2v2.5c0,.4.1.7.6.7s.6-.1.7-.2c0,0,0,.2,0,.3s-.3.5-1.1.5-1.1-.5-1.1-1.1v-2.7h-.6s0,0,0,0c0-.2.1-.3.3-.3h.4c0-.1.2-1.3.2-1.3h.6v1.2h1.3v.5Z"></path>
          <path class="st7" d="M41.5,170.4h0c.2-.2.6-.6,1.3-.6s1.4.5,1.4,1.5v2.3h.5c0,.1.1.2.1.2s0,.2,0,.2h-2s0,0,0,0c0-.2.1-.2.3-.3h.3v-2.3c0-.7-.4-1-.8-1s-.8.2-1,.4v2.8h.5c0,.1.1.2.1.2s0,.2,0,.2h-2s0,0,0,0c0-.2.1-.2.3-.3h.3v-5.4h-.6c0,0,0-.1,0-.2,0-.1.1-.3.3-.3h1.2c0-.1,0,2.5,0,2.5Z"></path>
          <path class="st7" d="M46.3,172c0,1.1.5,1.6,1.3,1.6s.9-.2,1.1-.4c0,0,.1.2.1.3,0,.2-.6.7-1.5.7s-1.9-.6-1.9-2.1.9-2.3,1.9-2.3,1.5.6,1.5,1.5,0,.5-.1.7h-2.3ZM47.8,171.6c0,0,0-.2,0-.4,0-.5-.2-.9-.7-.9s-.8.4-.9,1.3h1.5Z"></path>
          <path class="st7" d="M52.6,170.4h0c.2-.3.6-.6,1.3-.6s1.6.5,1.6,2-1.1,2.4-2.3,2.4-1.2-.2-1.5-.3v-5.5h-.6c0,0,0-.1,0-.2,0-.1.1-.3.3-.3h1.2c0-.1,0,2.5,0,2.5ZM52.6,173.4c.2.1.4.2.8.2.8,0,1.2-.5,1.2-1.7s-.6-1.5-1.1-1.5-.7.2-.9.4v2.6Z"></path>
          <path class="st7" d="M59.3,173.2c0,.3.1.5.3.5s.3-.1.3-.1c0,0,.1.2.1.3,0,.1-.2.4-.8.4s-.6-.2-.7-.6h0c0,.2-.4.6-1.1.6s-1.1-.4-1.1-1.1,1-1.3,2-1.3h.2v-.4c0-.8-.2-1.1-.7-1.1s-.4,0-.4,0c0,.2-.1.5-.2.8,0,0-.1,0-.2,0-.3,0-.5-.1-.5-.4,0-.5.7-.9,1.5-.9s1.4.5,1.4,1.5v1.9ZM58.2,172.2c-.7,0-1.1.3-1.1.7s.2.6.6.6.6-.2.7-.4v-1h-.2Z"></path>
          <path class="st7" d="M62.4,170.4c0,0-.3-.2-.6-.2s-.6.1-.6.5.4.6.8.8c.5.3,1.1.6,1.1,1.3s-.6,1.2-1.5,1.2-.9-.1-1.1-.3c0-.2,0-.4,0-.7,0-.3,0-.5.4-.5s.1,0,.1,0l.2.7c0,0,.3.2.6.2.4,0,.7-.2.7-.5s-.4-.6-.8-.8c-.5-.3-1.1-.7-1.1-1.4s.6-1.1,1.4-1.1.9.2,1,.3c0,.1,0,.3,0,.5,0,.3,0,.5-.4.5s-.1,0-.1,0v-.6Z"></path>
          <path class="st7" d="M65.3,173.6h.5c0,.1.1.2.1.2s0,.2,0,.2h-2s0,0,0,0c0-.2.1-.2.3-.3h.3v-3.3h-.6c0,0,0-.1,0-.2,0-.1.1-.3.3-.3h1.2c0-.1,0,3.7,0,3.7ZM64.9,169c-.3,0-.6-.2-.6-.6s.2-.6.6-.6.6.2.6.6-.3.6-.6.6Z"></path>
          <path class="st7" d="M68.5,170.4c0,0-.3-.2-.6-.2s-.6.1-.6.5.4.6.8.8c.5.3,1.1.6,1.1,1.3s-.6,1.2-1.5,1.2-.9-.1-1.1-.3c0-.2,0-.4,0-.7,0-.3,0-.5.4-.5s.1,0,.1,0l.2.7c0,0,.3.2.6.2.4,0,.7-.2.7-.5s-.4-.6-.8-.8c-.5-.3-1.1-.7-1.1-1.4s.6-1.1,1.4-1.1.9.2,1,.3c0,.1,0,.3,0,.5,0,.3,0,.5-.4.5s-.1,0-.1,0v-.6Z"></path>
          <path class="st7" d="M76,172c0,1.5-1,2.2-2.1,2.2s-2-.7-2-2.1,1-2.2,2.1-2.2,1.9.6,1.9,2.2ZM72.8,172c0,1.2.5,1.7,1.1,1.7s1.1-.5,1.1-1.7-.5-1.7-1.1-1.7-1.1.5-1.1,1.7Z"></path>
          <path class="st7" d="M79.2,170.4h-1.1v3.2h.6c0,.1.1.2.1.2s0,.2,0,.2h-2.1s0,0,0,0c0-.2.1-.2.3-.3h.3v-3.3h-.6s0,0,0,0c0-.2.1-.3.3-.3h.4v-.2c0-1.4.8-2.1,1.6-2.1s.6.2.6.5-.1.3-.3.4c0,0-.3-.3-.6-.3s-.5.2-.5.7,0,.8,0,.8h1.2v.5Z"></path>
          <path class="st7" d="M84.7,173.2c0,.3.1.5.3.5s.3-.1.3-.1c0,0,.1.2.1.3,0,.1-.2.4-.8.4s-.6-.2-.7-.6h0c0,.2-.4.6-1.1.6s-1.1-.4-1.1-1.1,1-1.3,2-1.3h.2v-.4c0-.8-.2-1.1-.7-1.1s-.4,0-.4,0c0,.2-.1.5-.2.8,0,0-.1,0-.2,0-.3,0-.5-.1-.5-.4,0-.5.7-.9,1.5-.9s1.4.5,1.4,1.5v1.9ZM83.7,172.2c-.7,0-1.1.3-1.1.7s.2.6.6.6.6-.2.7-.4v-1h-.2Z"></path>
          <path class="st7" d="M91.5,173.6h.6c0,0,0,.1,0,.2,0,.2-.1.3-.3.3h-1.1c0,.1,0-.5,0-.5h0c-.2.3-.6.6-1.2.6s-1.6-.5-1.6-2.1,1.1-2.3,2.2-2.3.5,0,.6,0v-1.5h-.6c0,0,0-.1,0-.2,0-.1.1-.3.3-.3h1.2c0-.1,0,5.7,0,5.7ZM90.6,170.6c-.1-.1-.4-.3-.7-.3-.7,0-1.2.5-1.2,1.6s.5,1.6,1.1,1.6.8-.2.9-.4v-2.6Z"></path>
          <path class="st7" d="M93.7,172c0,1.1.5,1.6,1.3,1.6s.9-.2,1.1-.4c0,0,.1.2.1.3,0,.2-.6.7-1.5.7s-1.9-.6-1.9-2.1.9-2.3,1.9-2.3,1.5.6,1.5,1.5,0,.5-.1.7h-2.3ZM95.2,171.6c0,0,0-.2,0-.4,0-.5-.2-.9-.7-.9s-.8.4-.9,1.3h1.5Z"></path>
          <path class="st7" d="M98.9,170.3c-.6,0-1.1.4-1.1,1.5s.4,1.7,1.2,1.7.8-.3,1-.4c0,0,.1.2.1.3,0,.2-.5.7-1.4.7s-1.9-.7-1.9-2.1,1-2.3,2.1-2.3,1.2.5,1.2.7-.1.5-.4.5c-.1-.3-.3-.7-.9-.7Z"></path>
          <path class="st7" d="M102.3,173.6h.5c0,.1.1.2.1.2s0,.2,0,.2h-2s0,0,0,0c0-.2.1-.2.3-.3h.3v-3.3h-.6c0,0,0-.1,0-.2,0-.1.1-.3.3-.3h1.2c0-.1,0,3.7,0,3.7ZM101.9,169c-.3,0-.6-.2-.6-.6s.2-.6.6-.6.6.2.6.6-.3.6-.6.6Z"></path>
          <path class="st7" d="M105.5,170.4c0,0-.3-.2-.6-.2s-.6.1-.6.5.4.6.8.8c.5.3,1.1.6,1.1,1.3s-.6,1.2-1.5,1.2-.9-.1-1.1-.3c0-.2,0-.4,0-.7,0-.3,0-.5.4-.5s.1,0,.1,0l.2.7c0,0,.3.2.6.2.4,0,.7-.2.7-.5s-.4-.6-.8-.8c-.5-.3-1.1-.7-1.1-1.4s.6-1.1,1.4-1.1.9.2,1,.3c0,.1,0,.3,0,.5,0,.3,0,.5-.4.5s-.1,0-.1,0v-.6Z"></path>
          <path class="st7" d="M108.4,173.6h.5c0,.1.1.2.1.2s0,.2,0,.2h-2s0,0,0,0c0-.2.1-.2.3-.3h.3v-3.3h-.6c0,0,0-.1,0-.2,0-.1.1-.3.3-.3h1.2c0-.1,0,3.7,0,3.7ZM107.9,169c-.3,0-.6-.2-.6-.6s.2-.6.6-.6.6.2.6.6-.3.6-.6.6Z"></path>
          <path class="st7" d="M113.6,172c0,1.5-1,2.2-2.1,2.2s-2-.7-2-2.1,1-2.2,2.1-2.2,1.9.6,1.9,2.2ZM110.5,172c0,1.2.5,1.7,1.1,1.7s1.1-.5,1.1-1.7-.5-1.7-1.1-1.7-1.1.5-1.1,1.7Z"></path>
          <path class="st7" d="M118.5,173.6h.5c0,.1.1.2.1.2s0,.2,0,.2h-2s0,0,0,0c0-.2.1-.2.3-.3h.3v-2.3c0-.7-.4-1-.8-1s-.8.2-1,.4v2.8h.5c0,.1.1.2.1.2s0,.2,0,.2h-2s0,0,0,0c0-.2.1-.2.3-.3h.3v-3.3h-.6c0,0,0-.1,0-.2,0-.1.1-.3.3-.3h1.2c0-.1,0,.5,0,.5h0c.2-.3.6-.7,1.4-.7s1.3.5,1.3,1.5v2.3Z"></path>
          <path class="st7" d="M26.3,180.2h0c.2-.3.6-.6,1.3-.6s1.6.5,1.6,2-1.1,2.4-2.3,2.4-1.2-.2-1.5-.3v-5.5h-.6c0,0,0-.1,0-.2,0-.1.1-.3.3-.3h1.2c0-.1,0,2.5,0,2.5ZM26.3,183.3c.2.1.4.2.8.2.8,0,1.2-.5,1.2-1.7s-.6-1.5-1.1-1.5-.7.2-.9.4v2.6Z"></path>
          <path class="st7" d="M33.6,180.2l-1.4,3.8c-.5,1.3-1.1,1.8-1.8,1.8s-.6-.2-.6-.5,0-.3.1-.4c.1,0,.3,0,.4,0,.5,0,1-.2,1.3-.9l-1.6-3.9h-.4c0-.1,0-.2,0-.2,0-.1.1-.2.2-.2h1.6c0,0,.1,0,.1,0s0,.2,0,.2h-.5c0,.1,1,3,1,3h0l1-2.8h-.6c0-.1,0-.2,0-.2,0-.1.1-.2.2-.2h1.4c0,0,.1,0,.1,0s0,.2,0,.2h-.4Z"></path>
          <path class="st7" d="M38.6,180.2h-1.2v2.5c0,.4.1.7.6.7s.6-.1.7-.2c0,0,0,.2,0,.3s-.3.5-1.1.5-1.1-.5-1.1-1.1v-2.7h-.6s0,0,0,0c0-.2.1-.3.3-.3h.4c0-.1.2-1.3.2-1.3h.6v1.2h1.3v.5Z"></path>
          <path class="st7" d="M40.6,180.2h0c.2-.2.6-.6,1.3-.6s1.4.5,1.4,1.5v2.3h.5c0,.1.1.2.1.2s0,.2,0,.2h-2s0,0,0,0c0-.2.1-.2.3-.3h.3v-2.3c0-.7-.4-1-.8-1s-.8.2-1,.4v2.8h.5c0,.1.1.2.1.2s0,.2,0,.2h-2s0,0,0,0c0-.2.1-.2.3-.3h.3v-5.4h-.6c0,0,0-.1,0-.2,0-.1.1-.3.3-.3h1.2c0-.1,0,2.5,0,2.5Z"></path>
          <path class="st7" d="M45.4,181.8c0,1.1.5,1.6,1.3,1.6s.9-.2,1.1-.4c0,0,.1.2.1.3,0,.2-.6.7-1.5.7s-1.9-.6-1.9-2.1.9-2.3,1.9-2.3,1.5.6,1.5,1.5,0,.5-.1.7h-2.3ZM46.9,181.4c0,0,0-.2,0-.4,0-.5-.2-.9-.7-.9s-.8.4-.9,1.3h1.5Z"></path>
          <path class="st7" d="M54.7,178.6c-.2-.1-.6-.3-1.1-.3-1.1,0-2.1.7-2.1,2.5s.8,2.6,1.9,2.6.7,0,1-.2v-1.7h-.5c0-.1-.1-.2-.1-.2,0,0,0-.2,0-.3h2s0,0,0,0c0,.1,0,.2-.3.3h-.2v1.9c-.2.2-.9.7-2.1.7s-2.7-.9-2.7-3,1.7-3.1,3.1-3.1,1.4.3,1.7.4c0,.3,0,.8,0,.9,0,.3,0,.4-.3.4s-.1,0-.2,0l-.2-.8Z"></path>
          <path class="st7" d="M57.5,181.8c0,1.1.5,1.6,1.3,1.6s.9-.2,1.1-.4c0,0,.1.2.1.3,0,.2-.6.7-1.5.7s-1.9-.6-1.9-2.1.9-2.3,1.9-2.3,1.5.6,1.5,1.5,0,.5-.1.7h-2.3ZM59,181.4c0,0,0-.2,0-.4,0-.5-.2-.9-.7-.9s-.8.4-.9,1.3h1.5Z"></path>
          <path class="st7" d="M62.1,180.4h0c.2-.3.5-.8,1.1-.8s.6.2.6.5,0,.4-.2.4c0,0-.3-.1-.6-.1-.5,0-.7.2-.9.4v2.6h.6c0,.1.1.2.1.2s0,.2,0,.2h-2.1s0,0,0,0c0-.2.1-.2.3-.3h.3v-3.3h-.6c0,0,0-.1,0-.2,0-.1.1-.3.3-.3h1.2c0-.1,0,.6,0,.6Z"></path>
          <path class="st7" d="M70.9,183.4h.5c0,.1.1.2.1.2s0,.2,0,.2h-2s0,0,0,0c0-.2.1-.2.3-.3h.3v-2.3c0-.8-.4-1-.8-1s-.8.2-1,.4c0,.1,0,.3,0,.5v2.3h.5c0,.1.1.2.1.2s0,.2,0,.2h-2s0,0,0,0c0-.2.1-.2.3-.3h.3v-2.3c0-.8-.4-1-.8-1s-.8.2-1,.4v2.8h.5c0,.1.1.2.1.2s0,.2,0,.2h-2s0,0,0,0c0-.2.1-.2.3-.3h.3v-3.3h-.6c0,0,0-.1,0-.2,0-.1.1-.3.3-.3h1.2c0-.1,0,.5,0,.5h0c.2-.2.6-.6,1.4-.6s.9.2,1.1.7c.2-.3.7-.7,1.5-.7s1.3.5,1.3,1.5v2.3Z"></path>
          <path class="st7" d="M75.1,183c0,.3.1.5.3.5s.3-.1.3-.1c0,0,.1.2.1.3,0,.1-.2.4-.8.4s-.6-.2-.7-.6h0c0,.2-.4.6-1.1.6s-1.1-.4-1.1-1.1,1-1.3,2-1.3h.2v-.4c0-.8-.2-1.1-.7-1.1s-.4,0-.4,0c0,.2-.1.5-.2.8,0,0-.1,0-.2,0-.3,0-.5-.1-.5-.4,0-.5.7-.9,1.5-.9s1.4.5,1.4,1.5v1.9ZM74,182c-.7,0-1.1.3-1.1.7s.2.6.6.6.6-.2.7-.4v-1h-.2Z"></path>
          <path class="st7" d="M80.3,183.4h.5c0,.1.1.2.1.2s0,.2,0,.2h-2s0,0,0,0c0-.2.1-.2.3-.3h.3v-2.3c0-.7-.4-1-.8-1s-.8.2-1,.4v2.8h.5c0,.1.1.2.1.2s0,.2,0,.2h-2s0,0,0,0c0-.2.1-.2.3-.3h.3v-3.3h-.6c0,0,0-.1,0-.2,0-.1.1-.3.3-.3h1.2c0-.1,0,.5,0,.5h0c.2-.3.6-.7,1.4-.7s1.3.5,1.3,1.5v2.3Z"></path>
          <path class="st7" d="M86.6,180.8h0c.8.2,1.4.6,1.4,1.4s-.8,1.7-2.4,1.7h-2.2s0,0,0,0c0-.1,0-.3.3-.3h.4v-5.1h-.5c0-.1-.1-.2-.1-.2,0,0,0-.2,0-.3h2c1.5,0,2.3.5,2.3,1.5s-.5,1.2-1.2,1.4ZM85.5,178.5h-.5v2.2h.5c1,0,1.4-.5,1.4-1.1s-.4-1.1-1.4-1.1ZM85.6,181.1h-.6v2.2h.5c1,0,1.5-.5,1.5-1.2s-.5-1.1-1.4-1.1Z"></path>
          <path class="st7" d="M92.7,183.4h.6c0,0,0,.1,0,.2,0,.2-.1.3-.3.3h-1.1c0,.1,0-.5,0-.5h0c-.1.2-.5.6-1.3.6s-1.4-.5-1.4-1.6v-2.2h-.6c0,0,0-.1,0-.2,0-.1.1-.3.3-.3h1.2c0-.1,0,2.6,0,2.6,0,.8.4,1,.8,1s.7-.2.9-.4v-2.7h-.6c0,0,0-.1,0-.2,0-.1.1-.3.3-.3h1.2c0-.1,0,3.6,0,3.6Z"></path>
          <path class="st7" d="M98,183.4h.5c0,.1.1.2.1.2s0,.2,0,.2h-2s0,0,0,0c0-.2.1-.2.3-.3h.3v-2.3c0-.7-.4-1-.8-1s-.8.2-1,.4v2.8h.5c0,.1.1.2.1.2s0,.2,0,.2h-2s0,0,0,0c0-.2.1-.2.3-.3h.3v-3.3h-.6c0,0,0-.1,0-.2,0-.1.1-.3.3-.3h1.2c0-.1,0,.5,0,.5h0c.2-.3.6-.7,1.4-.7s1.3.5,1.3,1.5v2.3Z"></path>
          <path class="st7" d="M102.9,183.4h.6c0,0,0,.1,0,.2,0,.2-.1.3-.3.3h-1.1c0,.1,0-.5,0-.5h0c-.2.3-.6.6-1.2.6s-1.6-.5-1.6-2.1,1.1-2.3,2.2-2.3.5,0,.6,0v-1.5h-.6c0,0,0-.1,0-.2,0-.1.1-.3.3-.3h1.2c0-.1,0,5.7,0,5.7ZM102,180.4c-.1-.1-.4-.3-.7-.3-.7,0-1.2.5-1.2,1.6s.5,1.6,1.1,1.6.8-.2.9-.4v-2.6Z"></path>
          <path class="st7" d="M105,181.8c0,1.1.5,1.6,1.3,1.6s.9-.2,1.1-.4c0,0,.1.2.1.3,0,.2-.6.7-1.5.7s-1.9-.6-1.9-2.1.9-2.3,1.9-2.3,1.5.6,1.5,1.5,0,.5-.1.7h-2.3ZM106.5,181.4c0,0,0-.2,0-.4,0-.5-.2-.9-.7-.9s-.8.4-.9,1.3h1.5Z"></path>
          <path class="st7" d="M110.3,180.3c0,0-.3-.2-.6-.2s-.6.1-.6.5.4.6.8.8c.5.3,1.1.6,1.1,1.3s-.6,1.2-1.5,1.2-.9-.1-1.1-.3c0-.2,0-.4,0-.7,0-.3,0-.5.4-.5s.1,0,.1,0l.2.7c0,0,.3.2.6.2.4,0,.7-.2.7-.5s-.4-.6-.8-.8c-.5-.3-1.1-.7-1.1-1.4s.6-1.1,1.4-1.1.9.2,1,.3c0,.1,0,.3,0,.5,0,.3,0,.5-.4.5s-.1,0-.1,0v-.6Z"></path>
          <path class="st7" d="M114.3,180.2h-1.2v2.5c0,.4.1.7.6.7s.6-.1.7-.2c0,0,0,.2,0,.3s-.3.5-1.1.5-1.1-.5-1.1-1.1v-2.7h-.6s0,0,0,0c0-.2.1-.3.3-.3h.4c0-.1.2-1.3.2-1.3h.6v1.2h1.3v.5Z"></path>
          <path class="st7" d="M117.9,183c0,.3.1.5.3.5s.3-.1.3-.1c0,0,.1.2.1.3,0,.1-.2.4-.8.4s-.6-.2-.7-.6h0c0,.2-.4.6-1.1.6s-1.1-.4-1.1-1.1,1-1.3,2-1.3h.2v-.4c0-.8-.2-1.1-.7-1.1s-.4,0-.4,0c0,.2-.1.5-.2.8,0,0-.1,0-.2,0-.3,0-.5-.1-.5-.4,0-.5.7-.9,1.5-.9s1.4.5,1.4,1.5v1.9ZM116.9,182c-.7,0-1.1.3-1.1.7s.2.6.6.6.6-.2.7-.4v-1h-.2Z"></path>
          <path class="st7" d="M122.9,180.2h-.7c.2.2.3.5.3.8,0,.9-.8,1.4-1.7,1.4s-.3,0-.4,0c-.1,0-.2.2-.2.4s.1.3.4.3h1c.8,0,1.2.4,1.2,1s-.8,1.7-2.3,1.7-1.6-.4-1.6-1,.5-.9.8-1h0c-.2-.1-.4-.3-.4-.6,0-.5.5-.7.6-.8h0c-.5-.2-.8-.7-.8-1.3,0-.9.8-1.4,1.6-1.4s.5,0,.7.1h1.5v.5ZM120.4,183.9c-.1,0-.2,0-.3,0-.2.1-.4.3-.4.6,0,.5.3.7.9.7s1.4-.4,1.4-.8-.2-.5-.6-.5h-.9ZM120.1,181c0,.7.3,1,.8,1s.8-.3.8-1-.3-.9-.8-.9-.8.3-.8.9Z"></path>
        </g>
      </g>
    </g>
  </g>
  <metadata></metadata>
</svg>
