<?xml version="1.0" encoding="UTF-8"?>
<svg xmlns="http://www.w3.org/2000/svg" xmlns:i="http://ns.adobe.com/AdobeIllustrator/10.0/" version="1.1" viewBox="0 0 425 208">
  <defs>
    <style>
      .st0 {
        fill: #fc0;
      }

      .st1 {
        fill: #ed2124;
      }

      .st2, .st3 {
        fill: #fff;
      }

      .st2, .st4, .st5 {
        mix-blend-mode: darken;
      }

      .st6 {
        fill: #039;
      }

      .st7 {
        isolation: isolate;
      }

      .st8, .st5 {
        fill-rule: evenodd;
      }

      .st8, .st5, .st9 {
        fill: #181715;
      }

      .st10 {
        fill: #181715;
      }

      .st11 {
        fill: red;
      }
    </style>
  </defs>
  <g class="st7">
    <g id="fond">
      <rect class="st3" width="425" height="208"></rect>
    </g>
    <g id="Texte">
      <g>
        <path class="st10" d="M25.1,29.6v-6.2h1.2c2.4,0,3.5.8,3.5,3s-1.3,3.2-3.5,3.2h-1.2ZM25.8,24v4.9h.4c1.7,0,2.7-.7,2.7-2.6s-.9-2.3-2.6-2.3h-.4Z"></path>
        <path class="st10" d="M32.6,27.2h.4v-.3c0-.8-.3-1-.9-1s-.9.3-1.1.4l-.3-.5c.2-.2.7-.5,1.5-.5s1.4.5,1.4,1.7v1.8c0,.4,0,.8,0,.9h-.7c0-.1,0-.3,0-.5h0c-.2.2-.5.6-1.2.6s-1.2-.5-1.2-1.2.9-1.3,2-1.3ZM31.9,29.1c.6,0,.9-.3,1-.4v-.9h-.4c-.8,0-1.2.3-1.2.7s.3.7.6.7Z"></path>
        <path class="st10" d="M37.1,26.1c-.1,0-.5-.4-.9-.4s-.7.2-.7.5.2.5.7.7l.3.2c.7.3,1,.7,1,1.3s-.5,1.3-1.5,1.3-1.1-.3-1.3-.5l.3-.6c.2.2.5.4,1,.4s.8-.2.8-.5-.3-.5-.8-.8l-.3-.2c-.6-.3-.9-.7-.9-1.3s.6-1.1,1.4-1.1,1.1.3,1.2.4l-.3.6Z"></path>
        <path class="st10" d="M40.6,29.6v-6.2h3.4v.6h-2.7v2.3h2.4v.6h-2.4v2.7h-.8Z"></path>
        <path class="st10" d="M46.6,29.7c-1.1,0-1.9-.7-1.9-2.3s.9-2.3,2-2.3,1.9.7,1.9,2.3-.9,2.3-2,2.3ZM45.9,24.5c-.2,0-.4-.2-.4-.5s.2-.5.4-.5.4.2.4.5-.2.5-.4.5ZM46.6,25.8c-.7,0-1.2.5-1.2,1.6s.5,1.6,1.2,1.6,1.2-.5,1.2-1.6-.5-1.6-1.2-1.6ZM47.4,24.5c-.2,0-.4-.2-.4-.5s.2-.5.4-.5.4.2.4.5-.2.5-.4.5Z"></path>
        <path class="st10" d="M51.7,25.9c0,0-.2,0-.4,0-.6,0-.9.4-1,.6v3.1h-.7v-4.3h.7v.6h0c.1-.3.4-.7,1.1-.7s.3,0,.4,0v.7Z"></path>
        <path class="st10" d="M54.4,25.2c.4,0,.6,0,.8.2v-2.1h.7c0,0,0,6.4,0,6.4h-.7v-.5h0c-.1.2-.4.6-1.3.6s-1.7-.8-1.7-2.2,1.1-2.3,2.1-2.3ZM54.2,29c.6,0,.9-.3,1-.5v-2.5c-.1-.1-.4-.2-.8-.2-.8,0-1.4.4-1.4,1.6s.5,1.6,1.2,1.6Z"></path>
        <path class="st10" d="M60.2,27.6h-2.5c0,1,.5,1.4,1.3,1.4s1-.3,1.1-.4l.2.5c0,.1-.5.5-1.5.5s-1.9-.7-1.9-2.3.9-2.2,1.9-2.2,1.5.6,1.5,1.6,0,.6,0,.8ZM57.7,27h1.9c0-.1,0-.2,0-.3,0-.6-.3-.9-.8-.9s-1,.4-1.1,1.2Z"></path>
        <path class="st10" d="M63.6,25.9c0,0-.2,0-.4,0-.6,0-.9.4-1,.6v3.1h-.7v-4.3h.7v.6h0c.1-.3.4-.7,1.1-.7s.3,0,.4,0v.7Z"></path>
        <path class="st10" d="M65.1,25.7h0c.1-.2.4-.6,1.3-.6s1.7.7,1.7,2.2-.9,2.3-2.1,2.3-.7,0-.8-.2v1.9h-.7v-6.1h.7v.5ZM65.1,28.7c.2.1.4.2.8.2.9,0,1.4-.4,1.4-1.6s-.5-1.6-1.2-1.6-.9.3-1,.5v2.5Z"></path>
        <path class="st10" d="M71.3,25.9c0,0-.2,0-.4,0-.6,0-.9.4-1,.6v3.1h-.7v-4.3h.7v.6h0c.1-.3.4-.7,1.1-.7s.3,0,.4,0v.7Z"></path>
        <path class="st10" d="M73.7,29.7c-1.1,0-1.9-.7-1.9-2.3s.9-2.3,2-2.3,1.9.7,1.9,2.3-.9,2.3-2,2.3ZM73.7,25.8c-.7,0-1.2.5-1.2,1.6s.5,1.6,1.2,1.6,1.2-.5,1.2-1.6-.5-1.6-1.2-1.6Z"></path>
        <path class="st10" d="M77.9,31.5c-1,0-1.6-.4-1.6-1.2s.5-.9.8-1.1h0c-.2-.2-.3-.4-.3-.6,0-.5.4-.7.5-.7h0c-.4-.2-.7-.7-.7-1.3,0-1,.7-1.5,1.6-1.5s.5,0,.6.1h1.5v.6h-.7c.2.2.2.5.2.8,0,.9-.7,1.5-1.7,1.5s-.2,0-.4,0c-.1,0-.4.2-.4.4s.1.3.5.3h.9c.9,0,1.4.4,1.4,1.1s-.8,1.6-2.3,1.6ZM77.9,30.9c1.1,0,1.5-.4,1.5-.8s-.2-.6-.7-.6h-1c-.1,0-.3,0-.4,0-.2.1-.5.4-.5.8s.3.7,1,.7ZM78.2,25.7c-.5,0-.9.2-.9.9s.4.9.9.9.9-.2.9-.9-.4-.9-.9-.9Z"></path>
        <path class="st10" d="M83.3,25.9c0,0-.2,0-.4,0-.6,0-.9.4-1,.6v3.1h-.7v-4.3h.7v.6h0c.1-.3.4-.7,1.1-.7s.3,0,.4,0v.7Z"></path>
        <path class="st10" d="M85.8,27.2h.4v-.3c0-.8-.3-1-.9-1s-.9.3-1.1.4l-.3-.5c.2-.2.7-.5,1.5-.5s1.4.5,1.4,1.7v1.8c0,.4,0,.8,0,.9h-.7c0-.1,0-.3,0-.5h0c-.2.2-.5.6-1.2.6s-1.2-.5-1.2-1.2.9-1.3,2-1.3ZM85.2,29.1c.6,0,.9-.3,1-.4v-.9h-.4c-.8,0-1.2.3-1.2.7s.3.7.6.7Z"></path>
        <path class="st10" d="M90.8,29.6v-2.6c0-.9-.2-1.2-.8-1.2s-1,.3-1.1.5v3.3h-.7v-4.3h.7v.5h0c.2-.2.6-.6,1.3-.6s.9.2,1.1.6c.2-.2.7-.6,1.4-.6s1.5.6,1.5,1.8v2.7h-.7v-2.6c0-.9-.3-1.2-.9-1.2s-.9.3-1,.5c0,.2,0,.4,0,.6v2.7h-.7Z"></path>
        <path class="st10" d="M98,29.6v-2.6c0-.9-.2-1.2-.8-1.2s-1,.3-1.1.5v3.3h-.7v-4.3h.7v.5h0c.2-.2.6-.6,1.3-.6s.9.2,1.1.6c.2-.2.7-.6,1.4-.6s1.5.6,1.5,1.8v2.7h-.7v-2.6c0-.9-.3-1.2-.9-1.2s-.9.3-1,.5c0,.2,0,.4,0,.6v2.7h-.7Z"></path>
        <path class="st10" d="M104.2,30.8v-.3c.2-.2.5-.4.5-.9-.3,0-.5-.2-.5-.5s.2-.5.5-.5.6.2.6.8-.6,1.2-1,1.4ZM105.8,30.8v-.3c.2-.2.5-.4.5-.9-.3,0-.5-.2-.5-.5s.2-.5.5-.5.6.2.6.8-.6,1.2-1,1.4Z"></path>
        <path class="st10" d="M110.9,27.6h-2.5c0,1,.5,1.4,1.3,1.4s1-.3,1.1-.4l.2.5c0,.1-.5.5-1.5.5s-1.9-.7-1.9-2.3.9-2.2,1.9-2.2,1.5.6,1.5,1.6,0,.6,0,.8ZM108.4,27h1.9c0-.1,0-.2,0-.3,0-.6-.3-.9-.8-.9s-1,.4-1.1,1.2Z"></path>
        <path class="st10" d="M113.7,27.3l1.4,2.2h-.8l-.9-1.7h0l-.9,1.7h-.8l1.4-2.2-1.3-2.1h.8l.9,1.6h0l.9-1.6h.8l-1.3,2.1Z"></path>
        <path class="st10" d="M116.3,24.2c-.3,0-.5-.2-.5-.5s.2-.5.5-.5.5.2.5.5-.2.5-.5.5ZM116.7,29.6h-.7v-4.3h.7v4.3Z"></path>
        <path class="st10" d="M120.1,26.1c-.1,0-.5-.4-.9-.4s-.7.2-.7.5.2.5.7.7l.3.2c.7.3,1,.7,1,1.3s-.5,1.3-1.5,1.3-1.1-.3-1.3-.5l.3-.6c.2.2.5.4,1,.4s.8-.2.8-.5-.3-.5-.8-.8l-.3-.2c-.6-.3-.9-.7-.9-1.3s.6-1.1,1.4-1.1,1.1.3,1.2.4l-.3.6Z"></path>
        <path class="st10" d="M123.5,25.9h-1.1v2.2c0,.7.2.9.6.9s.4,0,.5-.1v.6c0,0-.2.2-.7.2-.8,0-1.2-.5-1.2-1.5v-2.3h-.6v-.5h.6c0-.1,0-1.3,0-1.3h.6v1.2h1.2v.6Z"></path>
        <path class="st10" d="M129.9,27.1h-3.8v-.6h3.8v.6Z"></path>
        <path class="st10" d="M134.9,25.9h-1v3.7h-.7v-3.7h-.6v-.5h.6v-.8c0-1,.5-1.4,1.3-1.4s.5,0,.6.1v.6c-.2,0-.4-.1-.6-.1-.4,0-.6.2-.6.8v.7h1.1v.6Z"></path>
        <path class="st10" d="M137.9,25.9c0,0-.2,0-.4,0-.6,0-.9.4-1,.6v3.1h-.7v-4.3h.7v.6h0c.1-.3.4-.7,1.1-.7s.3,0,.4,0v.7Z"></path>
        <path class="st10" d="M140.3,29.7c-1.1,0-1.9-.7-1.9-2.3s.9-2.3,2-2.3,1.9.7,1.9,2.3-.9,2.3-2,2.3ZM140.4,25.8c-.7,0-1.2.5-1.2,1.6s.5,1.6,1.2,1.6,1.2-.5,1.2-1.6-.5-1.6-1.2-1.6Z"></path>
        <path class="st10" d="M146,29.6v-2.6c0-.9-.2-1.2-.8-1.2s-1,.3-1.1.5v3.3h-.7v-4.3h.7v.5h0c.2-.2.6-.6,1.3-.6s.9.2,1.1.6c.2-.2.7-.6,1.4-.6s1.5.6,1.5,1.8v2.7h-.7v-2.6c0-.9-.3-1.2-.9-1.2s-.9.3-1,.5c0,.2,0,.4,0,.6v2.7h-.7Z"></path>
        <path class="st10" d="M154.7,26.1c-.1,0-.5-.4-.9-.4s-.7.2-.7.5.2.5.7.7l.3.2c.7.3,1,.7,1,1.3s-.5,1.3-1.5,1.3-1.1-.3-1.3-.5l.3-.6c.2.2.5.4,1,.4s.8-.2.8-.5-.3-.5-.8-.8l-.3-.2c-.6-.3-.9-.7-.9-1.3s.6-1.1,1.4-1.1,1.1.3,1.2.4l-.3.6Z"></path>
        <path class="st10" d="M158.8,26.1c0,0-.4-.3-.9-.3-.8,0-1.4.5-1.4,1.6s.5,1.7,1.3,1.7.8-.2.9-.3l.2.6c-.2.1-.5.4-1.3.4-1.1,0-1.9-.7-1.9-2.3s1.1-2.3,2.1-2.3,1,.3,1.2.4l-.3.6Z"></path>
        <path class="st10" d="M160.4,24.2c-.3,0-.5-.2-.5-.5s.2-.5.5-.5.5.2.5.5-.2.5-.5.5ZM160.7,29.6h-.7v-4.3h.7v4.3Z"></path>
        <path class="st10" d="M165,27.6h-2.5c0,1,.5,1.4,1.3,1.4s1-.3,1.1-.4l.2.5c0,.1-.5.5-1.5.5s-1.9-.7-1.9-2.3.9-2.2,1.9-2.2,1.5.6,1.5,1.6,0,.6,0,.8ZM162.5,27h1.9c0-.1,0-.2,0-.3,0-.6-.3-.9-.8-.9s-1,.4-1.1,1.2Z"></path>
        <path class="st10" d="M169,29.6v-2.6c0-.8-.3-1.2-.9-1.2s-.9.3-1.1.5v3.3h-.7v-4.3h.7v.5h0c.2-.2.6-.6,1.3-.6s1.4.6,1.4,1.8v2.7h-.7Z"></path>
        <path class="st10" d="M173.7,26.1c0,0-.4-.3-.9-.3-.8,0-1.4.5-1.4,1.6s.5,1.7,1.3,1.7.8-.2.9-.3l.2.6c-.2.1-.5.4-1.3.4-1.1,0-1.9-.7-1.9-2.3s1.1-2.3,2.1-2.3,1,.3,1.2.4l-.3.6Z"></path>
        <path class="st10" d="M177.8,27.6h-2.5c0,1,.5,1.4,1.3,1.4s1-.3,1.1-.4l.2.5c0,.1-.5.5-1.5.5s-1.9-.7-1.9-2.3.9-2.2,1.9-2.2,1.5.6,1.5,1.6,0,.6,0,.8ZM175.3,27h1.9c0-.1,0-.2,0-.3,0-.6-.3-.9-.8-.9s-1,.4-1.1,1.2Z"></path>
        <path class="st10" d="M183,25.9h-1.1v2.2c0,.7.2.9.6.9s.4,0,.5-.1v.6c0,0-.2.2-.7.2-.8,0-1.2-.5-1.2-1.5v-2.3h-.6v-.5h.6c0-.1,0-1.3,0-1.3h.6v1.2h1.2v.6Z"></path>
        <path class="st10" d="M185.6,29.7c-1.1,0-1.9-.7-1.9-2.3s.9-2.3,2-2.3,1.9.7,1.9,2.3-.9,2.3-2,2.3ZM185.6,25.8c-.7,0-1.2.5-1.2,1.6s.5,1.6,1.2,1.6,1.2-.5,1.2-1.6-.5-1.6-1.2-1.6Z"></path>
        <path class="st10" d="M192,29.6c-.8,0-1.2-.3-1.4-.5v-6h.7c0,0,0,2.5,0,2.5h0c.2-.2.6-.5,1.3-.5s1.6.7,1.6,2-1,2.5-2.2,2.5ZM192.4,25.8c-.5,0-.9.3-1,.5v2.5c.1,0,.3.2.7.2.9,0,1.5-.4,1.5-1.7s-.4-1.5-1.1-1.5Z"></path>
        <path class="st10" d="M196,27.8c0,.8.3,1.2.8,1.2s.9-.3,1.1-.5v-3.3h.7v4.3h-.7v-.5h0c-.1.2-.5.6-1.3.6s-1.4-.5-1.4-1.8v-2.7h.7v2.6Z"></path>
        <path class="st10" d="M202.1,26.1c-.1,0-.5-.4-.9-.4s-.7.2-.7.5.2.5.7.7l.3.2c.7.3,1,.7,1,1.3s-.5,1.3-1.5,1.3-1.1-.3-1.3-.5l.3-.6c.2.2.5.4,1,.4s.8-.2.8-.5-.3-.5-.8-.8l-.3-.2c-.6-.3-.9-.7-.9-1.3s.6-1.1,1.4-1.1,1.1.3,1.2.4l-.3.6Z"></path>
        <path class="st10" d="M203.8,24.2c-.3,0-.5-.2-.5-.5s.2-.5.5-.5.5.2.5.5-.2.5-.5.5ZM204.2,29.6h-.7v-4.3h.7v4.3Z"></path>
        <path class="st10" d="M208.2,29.6v-2.6c0-.8-.3-1.2-.9-1.2s-.9.3-1.1.5v3.3h-.7v-4.3h.7v.5h0c.2-.2.6-.6,1.3-.6s1.4.6,1.4,1.8v2.7h-.7Z"></path>
        <path class="st10" d="M213.2,27.6h-2.5c0,1,.5,1.4,1.3,1.4s1-.3,1.1-.4l.2.5c0,.1-.5.5-1.5.5s-1.9-.7-1.9-2.3.9-2.2,1.9-2.2,1.5.6,1.5,1.6,0,.6,0,.8ZM210.7,27h1.9c0-.1,0-.2,0-.3,0-.6-.3-.9-.8-.9s-1,.4-1.1,1.2Z"></path>
        <path class="st10" d="M216.5,26.1c-.1,0-.5-.4-.9-.4s-.7.2-.7.5.2.5.7.7l.3.2c.7.3,1,.7,1,1.3s-.5,1.3-1.5,1.3-1.1-.3-1.3-.5l.3-.6c.2.2.5.4,1,.4s.8-.2.8-.5-.3-.5-.8-.8l-.3-.2c-.6-.3-.9-.7-.9-1.3s.6-1.1,1.4-1.1,1.1.3,1.2.4l-.3.6Z"></path>
        <path class="st10" d="M220.1,26.1c-.1,0-.5-.4-.9-.4s-.7.2-.7.5.2.5.7.7l.3.2c.7.3,1,.7,1,1.3s-.5,1.3-1.5,1.3-1.1-.3-1.3-.5l.3-.6c.2.2.5.4,1,.4s.8-.2.8-.5-.3-.5-.8-.8l-.3-.2c-.6-.3-.9-.7-.9-1.3s.6-1.1,1.4-1.1,1.1.3,1.2.4l-.3.6Z"></path>
        <path class="st10" d="M222.2,23.2v.3c-.2.2-.5.4-.5.9.3,0,.5.2.5.5s-.2.5-.5.5-.6-.2-.6-.8.6-1.2,1-1.4ZM223.8,23.2v.3c-.2.2-.5.4-.5.9.3,0,.5.2.5.5s-.2.5-.5.5-.6-.2-.6-.8.6-1.2,1-1.4Z"></path>
        <path class="st10" d="M229.4,29.6v-2.6c0-.9-.2-1.2-.8-1.2s-1,.3-1.1.5v3.3h-.7v-4.3h.7v.5h0c.2-.2.6-.6,1.3-.6s.9.2,1.1.6c.2-.2.7-.6,1.4-.6s1.5.6,1.5,1.8v2.7h-.7v-2.6c0-.9-.3-1.2-.9-1.2s-.9.3-1,.5c0,.2,0,.4,0,.6v2.7h-.7Z"></path>
        <path class="st10" d="M234.3,24.2c-.3,0-.5-.2-.5-.5s.2-.5.5-.5.5.2.5.5-.2.5-.5.5ZM234.7,29.6h-.7v-4.3h.7v4.3Z"></path>
        <path class="st10" d="M238,25.9h-1.1v2.2c0,.7.2.9.6.9s.4,0,.5-.1v.6c0,0-.2.2-.7.2-.8,0-1.2-.5-1.2-1.5v-2.3h-.6v-.5h.6c0-.1,0-1.3,0-1.3h.6v1.2h1.2v.6Z"></path>
        <path class="st10" d="M243.1,26.1c-.1,0-.5-.4-.9-.4s-.7.2-.7.5.2.5.7.7l.3.2c.7.3,1,.7,1,1.3s-.5,1.3-1.5,1.3-1.1-.3-1.3-.5l.3-.6c.2.2.5.4,1,.4s.8-.2.8-.5-.3-.5-.8-.8l-.3-.2c-.6-.3-.9-.7-.9-1.3s.6-1.1,1.4-1.1,1.1.3,1.2.4l-.3.6Z"></path>
        <path class="st10" d="M247.5,27.6h-2.5c0,1,.5,1.4,1.3,1.4s1-.3,1.1-.4l.2.5c0,.1-.5.5-1.5.5s-1.9-.7-1.9-2.3.9-2.2,1.9-2.2,1.5.6,1.5,1.6,0,.6,0,.8ZM245,27h1.9c0-.1,0-.2,0-.3,0-.6-.3-.9-.8-.9s-1,.4-1.1,1.2Z"></path>
        <path class="st10" d="M249.1,24.2c-.3,0-.5-.2-.5-.5s.2-.5.5-.5.5.2.5.5-.2.5-.5.5ZM249.4,29.6h-.7v-4.3h.7v4.3Z"></path>
        <path class="st10" d="M253.4,29.6v-2.6c0-.8-.3-1.2-.9-1.2s-.9.3-1.1.5v3.3h-.7v-4.3h.7v.5h0c.2-.2.6-.6,1.3-.6s1.4.6,1.4,1.8v2.7h-.7Z"></path>
        <path class="st10" d="M258.4,27.6h-2.5c0,1,.5,1.4,1.3,1.4s1-.3,1.1-.4l.2.5c0,.1-.5.5-1.5.5s-1.9-.7-1.9-2.3.9-2.2,1.9-2.2,1.5.6,1.5,1.6,0,.6,0,.8ZM255.9,27h1.9c0-.1,0-.2,0-.3,0-.6-.3-.9-.8-.9s-1,.4-1.1,1.2Z"></path>
        <path class="st10" d="M262.4,29.6v-2.6c0-.8-.3-1.2-.9-1.2s-.9.3-1.1.5v3.3h-.7v-4.3h.7v.5h0c.2-.2.6-.6,1.3-.6s1.4.6,1.4,1.8v2.7h-.7Z"></path>
        <path class="st10" d="M267.8,27.3h-.5v2.2h-.8v-6.2h1.4c1.8,0,2.6.7,2.6,1.9s-.8,2.1-2.6,2.1ZM267.9,24h-.6v2.7h.5c1.3,0,1.8-.5,1.8-1.4s-.5-1.3-1.7-1.3Z"></path>
        <path class="st10" d="M273.5,25.9c0,0-.2,0-.4,0-.6,0-.9.4-1,.6v3.1h-.7v-4.3h.7v.6h0c.1-.3.4-.7,1.1-.7s.3,0,.4,0v.7Z"></path>
        <path class="st10" d="M275.9,29.7c-1.1,0-1.9-.7-1.9-2.3s.9-2.3,2-2.3,1.9.7,1.9,2.3-.9,2.3-2,2.3ZM276,25.8c-.7,0-1.2.5-1.2,1.6s.5,1.6,1.2,1.6,1.2-.5,1.2-1.6-.5-1.6-1.2-1.6Z"></path>
        <path class="st10" d="M279.7,29.5c0,1.4-.6,2-1.8,2v-.6c.7,0,1.1-.4,1.1-1.5v-4.1h.7v4.2ZM279.3,24.2c-.3,0-.5-.2-.5-.5s.2-.5.5-.5.5.2.5.5-.2.5-.5.5Z"></path>
        <path class="st10" d="M284,27.6h-2.5c0,1,.5,1.4,1.3,1.4s1-.3,1.1-.4l.2.5c0,.1-.5.5-1.5.5s-1.9-.7-1.9-2.3.9-2.2,1.9-2.2,1.5.6,1.5,1.6,0,.6,0,.8ZM281.5,27h1.9c0-.1,0-.2,0-.3,0-.6-.3-.9-.8-.9s-1,.4-1.1,1.2Z"></path>
        <path class="st10" d="M286.9,27.2l1.8,2.4h-.9l-1.5-2h-.4v2h-.7v-6.4h.7c0,0,0,3.7,0,3.7h.4l1.4-1.7h.9l-1.7,1.9Z"></path>
        <path class="st10" d="M291.5,25.9h-1.1v2.2c0,.7.2.9.6.9s.4,0,.5-.1v.6c0,0-.2.2-.7.2-.8,0-1.2-.5-1.2-1.5v-2.3h-.6v-.5h.6c0-.1,0-1.3,0-1.3h.6v1.2h1.2v.6Z"></path>
        <path class="st10" d="M295.5,27.6h-2.5c0,1,.5,1.4,1.3,1.4s1-.3,1.1-.4l.2.5c0,.1-.5.5-1.5.5s-1.9-.7-1.9-2.3.9-2.2,1.9-2.2,1.5.6,1.5,1.6,0,.6,0,.8ZM292.9,27h1.9c0-.1,0-.2,0-.3,0-.6-.3-.9-.8-.9s-1,.4-1.1,1.2Z"></path>
        <path class="st10" d="M299.4,29.6v-2.6c0-.8-.3-1.2-.9-1.2s-.9.3-1.1.5v3.3h-.7v-4.3h.7v.5h0c.2-.2.6-.6,1.3-.6s1.4.6,1.4,1.8v2.7h-.7Z"></path>
        <path class="st10" d="M307.4,29.6h-.6l-.9-2.4h0l-.9,2.4h-.6l-1.6-4.3h.8l1.1,3.4h0l.9-2.3-.4-1.1h.8l1.1,3.4h0l1.1-3.4h.7l-1.6,4.3Z"></path>
        <path class="st10" d="M310.1,24.2c-.3,0-.5-.2-.5-.5s.2-.5.5-.5.5.2.5.5-.2.5-.5.5ZM310.5,29.6h-.7v-4.3h.7v4.3Z"></path>
        <path class="st10" d="M313.9,25.9c0,0-.2,0-.4,0-.6,0-.9.4-1,.6v3.1h-.7v-4.3h.7v.6h0c.1-.3.4-.7,1.1-.7s.3,0,.4,0v.7Z"></path>
        <path class="st10" d="M316.6,25.2c.4,0,.6,0,.8.2v-2.1h.7c0,0,0,6.4,0,6.4h-.7v-.5h0c-.1.2-.4.6-1.3.6s-1.7-.8-1.7-2.2,1.1-2.3,2.1-2.3ZM316.4,29c.6,0,.9-.3,1-.5v-2.5c-.1-.1-.4-.2-.8-.2-.8,0-1.4.4-1.4,1.6s.5,1.6,1.2,1.6Z"></path>
        <path class="st10" d="M323.3,25.2c.4,0,.6,0,.8.2v-2.1h.7c0,0,0,6.4,0,6.4h-.7v-.5h0c-.1.2-.4.6-1.3.6s-1.7-.8-1.7-2.2,1.1-2.3,2.1-2.3ZM323.1,29c.6,0,.9-.3,1-.5v-2.5c-.1-.1-.4-.2-.8-.2-.8,0-1.4.4-1.4,1.6s.5,1.6,1.2,1.6Z"></path>
        <path class="st10" d="M326.8,27.8c0,.8.3,1.2.8,1.2s.9-.3,1.1-.5v-3.3h.7v4.3h-.7v-.5h0c-.1.2-.5.6-1.3.6s-1.4-.5-1.4-1.8v-2.7h.7v2.6Z"></path>
        <path class="st10" d="M332.9,25.9c0,0-.2,0-.4,0-.6,0-.9.4-1,.6v3.1h-.7v-4.3h.7v.6h0c.1-.3.4-.7,1.1-.7s.3,0,.4,0v.7Z"></path>
        <path class="st10" d="M336.4,26.1c0,0-.4-.3-.9-.3-.8,0-1.4.5-1.4,1.6s.5,1.7,1.3,1.7.8-.2.9-.3l.2.6c-.2.1-.5.4-1.3.4-1.1,0-1.9-.7-1.9-2.3s1.1-2.3,2.1-2.3,1,.3,1.2.4l-.3.6Z"></path>
        <path class="st10" d="M340.3,29.6v-2.6c0-.8-.3-1.2-.9-1.2s-.9.3-1.1.5v3.3h-.7v-6.4h.7c0,0,0,2.5,0,2.5h0c.2-.2.6-.5,1.3-.5s1.4.6,1.4,1.8v2.7h-.7Z"></path>
        <path class="st10" d="M346.1,25.2c.4,0,.6,0,.8.2v-2.1h.7c0,0,0,6.4,0,6.4h-.7v-.5h0c-.1.2-.4.6-1.3.6s-1.7-.8-1.7-2.2,1.1-2.3,2.1-2.3ZM346,29c.6,0,.9-.3,1-.5v-2.5c-.1-.1-.4-.2-.8-.2-.8,0-1.4.4-1.4,1.6s.5,1.6,1.2,1.6Z"></path>
        <path class="st10" d="M350.7,27.2h.4v-.3c0-.8-.3-1-.9-1s-.9.3-1.1.4l-.3-.5c.2-.2.7-.5,1.5-.5s1.4.5,1.4,1.7v1.8c0,.4,0,.8,0,.9h-.7c0-.1,0-.3,0-.5h0c-.2.2-.5.6-1.2.6s-1.2-.5-1.2-1.2.9-1.3,2-1.3ZM350,29.1c.6,0,.9-.3,1-.4v-.9h-.4c-.8,0-1.2.3-1.2.7s.3.7.6.7Z"></path>
        <path class="st10" d="M355.2,26.1c-.1,0-.5-.4-.9-.4s-.7.2-.7.5.2.5.7.7l.3.2c.7.3,1,.7,1,1.3s-.5,1.3-1.5,1.3-1.1-.3-1.3-.5l.3-.6c.2.2.5.4,1,.4s.8-.2.8-.5-.3-.5-.8-.8l-.3-.2c-.6-.3-.9-.7-.9-1.3s.6-1.1,1.4-1.1,1.1.3,1.2.4l-.3.6Z"></path>
        <path class="st10" d="M27.6,36.9h0c.7.2,1.3.7,1.3,1.5s-.6,1.7-2.4,1.7h-1.5v-6.2h1.4c1.7,0,2.3.6,2.3,1.6s-.5,1.3-1.1,1.4ZM26.4,34.5h-.6v2.1h.6c1,0,1.5-.4,1.5-1.2s-.4-1-1.5-1ZM26.6,37.2h-.7v2.1h.7c1.2,0,1.5-.4,1.5-1.1s-.5-1.1-1.5-1.1Z"></path>
        <path class="st10" d="M30.7,38.3c0,.8.3,1.2.8,1.2s.9-.3,1.1-.5v-3.3h.7v4.3h-.7v-.5h0c-.1.2-.5.6-1.3.6s-1.4-.5-1.4-1.8v-2.7h.7v2.6Z"></path>
        <path class="st10" d="M37.4,40.1v-2.6c0-.8-.3-1.2-.9-1.2s-.9.3-1.1.5v3.3h-.7v-4.3h.7v.5h0c.2-.2.6-.6,1.3-.6s1.4.6,1.4,1.8v2.7h-.7Z"></path>
        <path class="st10" d="M41.3,35.7c.4,0,.6,0,.8.2v-2.1h.7c0,0,0,6.4,0,6.4h-.7v-.5h0c-.1.2-.4.6-1.3.6s-1.7-.8-1.7-2.2,1.1-2.3,2.1-2.3ZM41.1,39.5c.6,0,.9-.3,1-.5v-2.5c-.1-.1-.4-.2-.8-.2-.8,0-1.4.4-1.4,1.6s.5,1.6,1.2,1.6Z"></path>
        <path class="st10" d="M47.1,38.1h-2.5c0,1,.5,1.4,1.3,1.4s1-.3,1.1-.4l.2.5c0,.1-.5.5-1.5.5s-1.9-.7-1.9-2.3.9-2.2,1.9-2.2,1.5.6,1.5,1.6,0,.6,0,.8ZM44.6,37.5h1.9c0-.1,0-.2,0-.3,0-.6-.3-.9-.8-.9s-1,.4-1.1,1.2Z"></path>
        <path class="st10" d="M50.4,36.6c-.1,0-.5-.4-.9-.4s-.7.2-.7.5.2.5.7.7l.3.2c.7.3,1,.7,1,1.3s-.5,1.3-1.5,1.3-1.1-.3-1.3-.5l.3-.6c.2.2.5.4,1,.4s.8-.2.8-.5-.3-.5-.8-.8l-.3-.2c-.6-.3-.9-.7-.9-1.3s.6-1.1,1.4-1.1,1.1.3,1.2.4l-.3.6Z"></path>
        <path class="st10" d="M54.4,40.1v-2.6c0-.9-.2-1.2-.8-1.2s-1,.3-1.1.5v3.3h-.7v-4.3h.7v.5h0c.2-.2.6-.6,1.3-.6s.9.2,1.1.6c.2-.2.7-.6,1.4-.6s1.5.6,1.5,1.8v2.7h-.7v-2.6c0-.9-.3-1.2-.9-1.2s-.9.3-1,.5c0,.2,0,.4,0,.6v2.7h-.7Z"></path>
        <path class="st10" d="M59.4,34.7c-.3,0-.5-.2-.5-.5s.2-.5.5-.5.5.2.5.5-.2.5-.5.5ZM59.8,40.1h-.7v-4.3h.7v4.3Z"></path>
        <path class="st10" d="M63.8,40.1v-2.6c0-.8-.3-1.2-.9-1.2s-.9.3-1.1.5v3.3h-.7v-4.3h.7v.5h0c.2-.2.6-.6,1.3-.6s1.4.6,1.4,1.8v2.7h-.7Z"></path>
        <path class="st10" d="M66.1,34.7c-.3,0-.5-.2-.5-.5s.2-.5.5-.5.5.2.5.5-.2.5-.5.5ZM66.5,40.1h-.7v-4.3h.7v4.3Z"></path>
        <path class="st10" d="M69.9,36.6c-.1,0-.5-.4-.9-.4s-.7.2-.7.5.2.5.7.7l.3.2c.7.3,1,.7,1,1.3s-.5,1.3-1.5,1.3-1.1-.3-1.3-.5l.3-.6c.2.2.5.4,1,.4s.8-.2.8-.5-.3-.5-.8-.8l-.3-.2c-.6-.3-.9-.7-.9-1.3s.6-1.1,1.4-1.1,1.1.3,1.2.4l-.3.6Z"></path>
        <path class="st10" d="M73.3,36.4h-1.1v2.2c0,.7.2.9.6.9s.4,0,.5-.1v.6c0,0-.2.2-.7.2-.8,0-1.2-.5-1.2-1.5v-2.3h-.6v-.5h.6c0-.1,0-1.3,0-1.3h.6v1.2h1.2v.6Z"></path>
        <path class="st10" d="M77.3,38.1h-2.5c0,1,.5,1.4,1.3,1.4s1-.3,1.1-.4l.2.5c0,.1-.5.5-1.5.5s-1.9-.7-1.9-2.3.9-2.2,1.9-2.2,1.5.6,1.5,1.6,0,.6,0,.8ZM74.8,37.5h1.9c0-.1,0-.2,0-.3,0-.6-.3-.9-.8-.9s-1,.4-1.1,1.2Z"></path>
        <path class="st10" d="M80.6,36.4c0,0-.2,0-.4,0-.6,0-.9.4-1,.6v3.1h-.7v-4.3h.7v.6h0c.1-.3.4-.7,1.1-.7s.3,0,.4,0v.7Z"></path>
        <path class="st10" d="M81.8,34.7c-.3,0-.5-.2-.5-.5s.2-.5.5-.5.5.2.5.5-.2.5-.5.5ZM82.2,40.1h-.7v-4.3h.7v4.3Z"></path>
        <path class="st10" d="M84.2,38.3c0,.8.3,1.2.8,1.2s.9-.3,1.1-.5v-3.3h.7v4.3h-.7v-.5h0c-.1.2-.5.6-1.3.6s-1.4-.5-1.4-1.8v-2.7h.7v2.6Z"></path>
        <path class="st10" d="M90.8,40.1v-2.6c0-.9-.2-1.2-.8-1.2s-1,.3-1.1.5v3.3h-.7v-4.3h.7v.5h0c.2-.2.6-.6,1.3-.6s.9.2,1.1.6c.2-.2.7-.6,1.4-.6s1.5.6,1.5,1.8v2.7h-.7v-2.6c0-.9-.3-1.2-.9-1.2s-.9.3-1,.5c0,.2,0,.4,0,.6v2.7h-.7Z"></path>
        <path class="st10" d="M99.3,36.4h-1v3.7h-.7v-3.7h-.6v-.5h.6v-.8c0-1,.5-1.4,1.3-1.4s.5,0,.6.1v.6c-.2,0-.4-.1-.6-.1-.4,0-.6.2-.6.8v.7h1.1v.6Z"></path>
        <path class="st10" d="M100.9,38.3c0,.8.3,1.2.8,1.2s.9-.3,1.1-.5v-3.3h.7v4.3h-.7v-.5h0c-.1.2-.5.6-1.3.6s-1.4-.5-1.4-1.8v-2.7h.7v2.6ZM101.1,35c-.2,0-.4-.2-.4-.5s.2-.5.4-.5.4.2.4.5-.2.5-.4.5ZM102.6,35c-.2,0-.4-.2-.4-.5s.2-.5.4-.5.4.2.4.5-.2.5-.4.5Z"></path>
        <path class="st10" d="M107,36.4c0,0-.2,0-.4,0-.6,0-.9.4-1,.6v3.1h-.7v-4.3h.7v.6h0c.1-.3.4-.7,1.1-.7s.3,0,.4,0v.7Z"></path>
        <path class="st10" d="M115.2,40.1h-.7l-1.5-5h0l-1.5,5h-.7l-1.7-6.2h.8l1.2,5h0l1.5-5h.7l1.4,5h0l1.3-5h.8l-1.7,6.2Z"></path>
        <path class="st10" d="M118.1,34.7c-.3,0-.5-.2-.5-.5s.2-.5.5-.5.5.2.5.5-.2.5-.5.5ZM118.5,40.1h-.7v-4.3h.7v4.3Z"></path>
        <path class="st10" d="M121.9,36.4c0,0-.2,0-.4,0-.6,0-.9.4-1,.6v3.1h-.7v-4.3h.7v.6h0c.1-.3.4-.7,1.1-.7s.3,0,.4,0v.7Z"></path>
        <path class="st10" d="M124.8,36.4h-1.1v2.2c0,.7.2.9.6.9s.4,0,.5-.1v.6c0,0-.2.2-.7.2-.8,0-1.2-.5-1.2-1.5v-2.3h-.6v-.5h.6c0-.1,0-1.3,0-1.3h.6v1.2h1.2v.6Z"></path>
        <path class="st10" d="M127.9,36.6c-.1,0-.5-.4-.9-.4s-.7.2-.7.5.2.5.7.7l.3.2c.7.3,1,.7,1,1.3s-.5,1.3-1.5,1.3-1.1-.3-1.3-.5l.3-.6c.2.2.5.4,1,.4s.8-.2.8-.5-.3-.5-.8-.8l-.3-.2c-.6-.3-.9-.7-.9-1.3s.6-1.1,1.4-1.1,1.1.3,1.2.4l-.3.6Z"></path>
        <path class="st10" d="M132,36.6c0,0-.4-.3-.9-.3-.8,0-1.4.5-1.4,1.6s.5,1.7,1.3,1.7.8-.2.9-.3l.2.6c-.2.1-.5.4-1.3.4-1.1,0-1.9-.7-1.9-2.3s1.1-2.3,2.1-2.3,1,.3,1.2.4l-.3.6Z"></path>
        <path class="st10" d="M135.9,40.1v-2.6c0-.8-.3-1.2-.9-1.2s-.9.3-1.1.5v3.3h-.7v-6.4h.7c0,0,0,2.5,0,2.5h0c.2-.2.6-.5,1.3-.5s1.4.6,1.4,1.8v2.7h-.7Z"></path>
        <path class="st10" d="M139.6,37.7h.4v-.3c0-.8-.3-1-.9-1s-.9.3-1.1.4l-.3-.5c.2-.2.7-.5,1.5-.5s1.4.5,1.4,1.7v1.8c0,.4,0,.8,0,.9h-.7c0-.1,0-.3,0-.5h0c-.2.2-.5.6-1.2.6s-1.2-.5-1.2-1.2.9-1.3,2-1.3ZM138.9,39.6c.6,0,.9-.3,1-.4v-.9h-.4c-.8,0-1.2.3-1.2.7s.3.7.6.7Z"></path>
        <path class="st10" d="M143.9,36.4h-1v3.7h-.7v-3.7h-.6v-.5h.6v-.8c0-1,.5-1.4,1.3-1.4s.5,0,.6.1v.6c-.2,0-.4-.1-.6-.1-.4,0-.6.2-.6.8v.7h1.1v.6Z"></path>
        <path class="st10" d="M146.8,36.4h-1.1v2.2c0,.7.2.9.6.9s.4,0,.5-.1v.6c0,0-.2.2-.7.2-.8,0-1.2-.5-1.2-1.5v-2.3h-.6v-.5h.6c0-.1,0-1.3,0-1.3h.6v1.2h1.2v.6Z"></path>
        <path class="st10" d="M150.4,38.3c0,.8.3,1.2.8,1.2s.9-.3,1.1-.5v-3.3h.7v4.3h-.7v-.5h0c-.1.2-.5.6-1.3.6s-1.4-.5-1.4-1.8v-2.7h.7v2.6Z"></path>
        <path class="st10" d="M157.1,40.1v-2.6c0-.8-.3-1.2-.9-1.2s-.9.3-1.1.5v3.3h-.7v-4.3h.7v.5h0c.2-.2.6-.6,1.3-.6s1.4.6,1.4,1.8v2.7h-.7Z"></path>
        <path class="st10" d="M161,35.7c.4,0,.6,0,.8.2v-2.1h.7c0,0,0,6.4,0,6.4h-.7v-.5h0c-.1.2-.4.6-1.3.6s-1.7-.8-1.7-2.2,1.1-2.3,2.1-2.3ZM160.8,39.5c.6,0,.9-.3,1-.5v-2.5c-.1-.1-.4-.2-.8-.2-.8,0-1.4.4-1.4,1.6s.5,1.6,1.2,1.6Z"></path>
        <path class="st10" d="M169.3,34.5h-2.6v2.1h2.4v.6h-2.4v2.1h2.8v.7h-3.6v-6.2h3.4v.6Z"></path>
        <path class="st10" d="M173.3,40.1v-2.6c0-.8-.3-1.2-.9-1.2s-.9.3-1.1.5v3.3h-.7v-4.3h.7v.5h0c.2-.2.6-.6,1.3-.6s1.4.6,1.4,1.8v2.7h-.7Z"></path>
        <path class="st10" d="M178.3,38.1h-2.5c0,1,.5,1.4,1.3,1.4s1-.3,1.1-.4l.2.5c0,.1-.5.5-1.5.5s-1.9-.7-1.9-2.3.9-2.2,1.9-2.2,1.5.6,1.5,1.6,0,.6,0,.8ZM175.8,37.5h1.9c0-.1,0-.2,0-.3,0-.6-.3-.9-.8-.9s-1,.4-1.1,1.2Z"></path>
        <path class="st10" d="M181.6,36.4c0,0-.2,0-.4,0-.6,0-.9.4-1,.6v3.1h-.7v-4.3h.7v.6h0c.1-.3.4-.7,1.1-.7s.3,0,.4,0v.7Z"></path>
        <path class="st10" d="M183.7,42c-1,0-1.6-.4-1.6-1.2s.5-.9.8-1.1h0c-.2-.2-.3-.4-.3-.6,0-.5.4-.7.5-.7h0c-.4-.2-.7-.7-.7-1.3,0-1,.7-1.5,1.6-1.5s.5,0,.6.1h1.5v.6h-.7c.2.2.2.5.2.8,0,.9-.7,1.5-1.7,1.5s-.2,0-.4,0c-.1,0-.4.2-.4.4s.1.3.5.3h.9c.9,0,1.4.4,1.4,1.1s-.8,1.6-2.3,1.6ZM183.7,41.4c1.1,0,1.5-.4,1.5-.8s-.2-.6-.7-.6h-1c-.1,0-.3,0-.4,0-.2.1-.5.4-.5.8s.3.7,1,.7ZM184,36.2c-.5,0-.9.2-.9.9s.4.9.9.9.9-.2.9-.9-.4-.9-.9-.9Z"></path>
        <path class="st10" d="M187.3,34.7c-.3,0-.5-.2-.5-.5s.2-.5.5-.5.5.2.5.5-.2.5-.5.5ZM187.7,40.1h-.7v-4.3h.7v4.3Z"></path>
        <path class="st10" d="M192,38.1h-2.5c0,1,.5,1.4,1.3,1.4s1-.3,1.1-.4l.2.5c0,.1-.5.5-1.5.5s-1.9-.7-1.9-2.3.9-2.2,1.9-2.2,1.5.6,1.5,1.6,0,.6,0,.8ZM189.5,37.5h1.9c0-.1,0-.2,0-.3,0-.6-.3-.9-.8-.9s-1,.4-1.1,1.2Z"></path>
        <path class="st10" d="M195.9,38.3c0,.8.3,1.2.8,1.2s.9-.3,1.1-.5v-3.3h.7v4.3h-.7v-.5h0c-.1.2-.5.6-1.3.6s-1.4-.5-1.4-1.8v-2.7h.7v2.6Z"></path>
        <path class="st10" d="M202.5,40.1v-2.6c0-.8-.3-1.2-.9-1.2s-.9.3-1.1.5v3.3h-.7v-4.3h.7v.5h0c.2-.2.6-.6,1.3-.6s1.4.6,1.4,1.8v2.7h-.7Z"></path>
        <path class="st10" d="M206.4,35.7c.4,0,.6,0,.8.2v-2.1h.7c0,0,0,6.4,0,6.4h-.7v-.5h0c-.1.2-.4.6-1.3.6s-1.7-.8-1.7-2.2,1.1-2.3,2.1-2.3ZM206.2,39.5c.6,0,.9-.3,1-.5v-2.5c-.1-.1-.4-.2-.8-.2-.8,0-1.4.4-1.4,1.6s.5,1.6,1.2,1.6Z"></path>
        <path class="st10" d="M213.1,35.7c.4,0,.6,0,.8.2v-2.1h.7c0,0,0,6.4,0,6.4h-.7v-.5h0c-.1.2-.4.6-1.3.6s-1.7-.8-1.7-2.2,1.1-2.3,2.1-2.3ZM212.9,39.5c.6,0,.9-.3,1-.5v-2.5c-.1-.1-.4-.2-.8-.2-.8,0-1.4.4-1.4,1.6s.5,1.6,1.2,1.6Z"></path>
        <path class="st10" d="M216.3,34.7c-.3,0-.5-.2-.5-.5s.2-.5.5-.5.5.2.5.5-.2.5-.5.5ZM216.7,40.1h-.7v-4.3h.7v4.3Z"></path>
        <path class="st10" d="M221,38.1h-2.5c0,1,.5,1.4,1.3,1.4s1-.3,1.1-.4l.2.5c0,.1-.5.5-1.5.5s-1.9-.7-1.9-2.3.9-2.2,1.9-2.2,1.5.6,1.5,1.6,0,.6,0,.8ZM218.5,37.5h1.9c0-.1,0-.2,0-.3,0-.6-.3-.9-.8-.9s-1,.4-1.1,1.2Z"></path>
        <path class="st10" d="M227.7,34.5h-2.6v2.1h2.4v.6h-2.4v2.1h2.8v.7h-3.6v-6.2h3.4v.6Z"></path>
        <path class="st10" d="M229.6,38.3c0,.8.3,1.2.8,1.2s.9-.3,1.1-.5v-3.3h.7v4.3h-.7v-.5h0c-.1.2-.5.6-1.3.6s-1.4-.5-1.4-1.8v-2.7h.7v2.6Z"></path>
        <path class="st10" d="M235.7,36.4c0,0-.2,0-.4,0-.6,0-.9.4-1,.6v3.1h-.7v-4.3h.7v.6h0c.1-.3.4-.7,1.1-.7s.3,0,.4,0v.7Z"></path>
        <path class="st10" d="M238.1,40.2c-1.1,0-1.9-.7-1.9-2.3s.9-2.3,2-2.3,1.9.7,1.9,2.3-.9,2.3-2,2.3ZM238.2,36.3c-.7,0-1.2.5-1.2,1.6s.5,1.6,1.2,1.6,1.2-.5,1.2-1.6-.5-1.6-1.2-1.6Z"></path>
        <path class="st10" d="M241.9,36.2h0c.1-.2.4-.6,1.3-.6s1.7.7,1.7,2.2-.9,2.3-2.1,2.3-.7,0-.8-.2v1.9h-.7v-6.1h.7v.5ZM241.9,39.2c.2.1.4.2.8.2.9,0,1.4-.4,1.4-1.6s-.5-1.6-1.2-1.6-.9.3-1,.5v2.5Z"></path>
        <path class="st10" d="M247.6,37.7h.4v-.3c0-.8-.3-1-.9-1s-.9.3-1.1.4l-.3-.5c.2-.2.7-.5,1.5-.5s1.4.5,1.4,1.7v1.8c0,.4,0,.8,0,.9h-.7c0-.1,0-.3,0-.5h0c-.2.2-.5.6-1.2.6s-1.2-.5-1.2-1.2.9-1.3,2-1.3ZM246.4,35c-.2,0-.4-.2-.4-.5s.2-.5.4-.5.4.2.4.5-.2.5-.4.5ZM246.9,39.6c.6,0,.9-.3,1-.4v-.9h-.4c-.8,0-1.2.3-1.2.7s.3.7.6.7ZM248,35c-.2,0-.4-.2-.4-.5s.2-.5.4-.5.4.2.4.5-.2.5-.4.5Z"></path>
        <path class="st10" d="M250.3,34.7c-.3,0-.5-.2-.5-.5s.2-.5.5-.5.5.2.5.5-.2.5-.5.5ZM250.7,40.1h-.7v-4.3h.7v4.3Z"></path>
        <path class="st10" d="M254.1,36.6c-.1,0-.5-.4-.9-.4s-.7.2-.7.5.2.5.7.7l.3.2c.7.3,1,.7,1,1.3s-.5,1.3-1.5,1.3-1.1-.3-1.3-.5l.3-.6c.2.2.5.4,1,.4s.8-.2.8-.5-.3-.5-.8-.8l-.3-.2c-.6-.3-.9-.7-.9-1.3s.6-1.1,1.4-1.1,1.1.3,1.2.4l-.3.6Z"></path>
        <path class="st10" d="M258.3,36.6c0,0-.4-.3-.9-.3-.8,0-1.4.5-1.4,1.6s.5,1.7,1.3,1.7.8-.2.9-.3l.2.6c-.2.1-.5.4-1.3.4-1.1,0-1.9-.7-1.9-2.3s1.1-2.3,2.1-2.3,1,.3,1.2.4l-.3.6Z"></path>
        <path class="st10" d="M262.1,40.1v-2.6c0-.8-.3-1.2-.9-1.2s-.9.3-1.1.5v3.3h-.7v-6.4h.7c0,0,0,2.5,0,2.5h0c.2-.2.6-.5,1.3-.5s1.4.6,1.4,1.8v2.7h-.7Z"></path>
        <path class="st10" d="M267.1,38.1h-2.5c0,1,.5,1.4,1.3,1.4s1-.3,1.1-.4l.2.5c0,.1-.5.5-1.5.5s-1.9-.7-1.9-2.3.9-2.2,1.9-2.2,1.5.6,1.5,1.6,0,.6,0,.8ZM264.6,37.5h1.9c0-.1,0-.2,0-.3,0-.6-.3-.9-.8-.9s-1,.4-1.1,1.2Z"></path>
        <path class="st10" d="M275,37.5c0,1.8-.8,2.7-2.3,2.7s-2.3-.8-2.3-2.7v-3.6h.8v3.7c0,1.4.5,2,1.6,2s1.5-.5,1.5-2v-3.7h.8v3.6Z"></path>
        <path class="st10" d="M279.1,40.1v-2.6c0-.8-.3-1.2-.9-1.2s-.9.3-1.1.5v3.3h-.7v-4.3h.7v.5h0c.2-.2.6-.6,1.3-.6s1.4.6,1.4,1.8v2.7h-.7Z"></path>
        <path class="st10" d="M281.5,34.7c-.3,0-.5-.2-.5-.5s.2-.5.5-.5.5.2.5.5-.2.5-.5.5ZM281.8,40.1h-.7v-4.3h.7v4.3Z"></path>
        <path class="st10" d="M284.7,40.2c-1.1,0-1.9-.7-1.9-2.3s.9-2.3,2-2.3,1.9.7,1.9,2.3-.9,2.3-2,2.3ZM284.8,36.3c-.7,0-1.2.5-1.2,1.6s.5,1.6,1.2,1.6,1.2-.5,1.2-1.6-.5-1.6-1.2-1.6Z"></path>
        <path class="st10" d="M290.5,40.1v-2.6c0-.8-.3-1.2-.9-1.2s-.9.3-1.1.5v3.3h-.7v-4.3h.7v.5h0c.2-.2.6-.6,1.3-.6s1.4.6,1.4,1.8v2.7h-.7Z"></path>
        <path class="st10" d="M295.2,38.3c0,.8.3,1.2.8,1.2s.9-.3,1.1-.5v-3.3h.7v4.3h-.7v-.5h0c-.1.2-.5.6-1.3.6s-1.4-.5-1.4-1.8v-2.7h.7v2.6ZM295.4,35c-.2,0-.4-.2-.4-.5s.2-.5.4-.5.4.2.4.5-.2.5-.4.5ZM296.9,35c-.2,0-.4-.2-.4-.5s.2-.5.4-.5.4.2.4.5-.2.5-.4.5Z"></path>
        <path class="st10" d="M300.5,40.1c-.8,0-1.2-.3-1.4-.5v-6h.7c0,0,0,2.5,0,2.5h0c.2-.2.6-.5,1.3-.5s1.6.7,1.6,2-1,2.5-2.2,2.5ZM300.9,36.3c-.5,0-.9.3-1,.5v2.5c.1,0,.3.2.7.2.9,0,1.5-.4,1.5-1.7s-.4-1.5-1.1-1.5Z"></path>
        <path class="st10" d="M306.8,38.1h-2.5c0,1,.5,1.4,1.3,1.4s1-.3,1.1-.4l.2.5c0,.1-.5.5-1.5.5s-1.9-.7-1.9-2.3.9-2.2,1.9-2.2,1.5.6,1.5,1.6,0,.6,0,.8ZM304.3,37.5h1.9c0-.1,0-.2,0-.3,0-.6-.3-.9-.8-.9s-1,.4-1.1,1.2Z"></path>
        <path class="st10" d="M310.1,36.4c0,0-.2,0-.4,0-.6,0-.9.4-1,.6v3.1h-.7v-4.3h.7v.6h0c.1-.3.4-.7,1.1-.7s.3,0,.4,0v.7Z"></path>
        <path class="st10" d="M314.9,35.7c.4,0,.6,0,.8.2v-2.1h.7c0,0,0,6.4,0,6.4h-.7v-.5h0c-.1.2-.4.6-1.3.6s-1.7-.8-1.7-2.2,1.1-2.3,2.1-2.3ZM314.7,39.5c.6,0,.9-.3,1-.5v-2.5c-.1-.1-.4-.2-.8-.2-.8,0-1.4.4-1.4,1.6s.5,1.6,1.2,1.6Z"></path>
        <path class="st10" d="M320.7,38.1h-2.5c0,1,.5,1.4,1.3,1.4s1-.3,1.1-.4l.2.5c0,.1-.5.5-1.5.5s-1.9-.7-1.9-2.3.9-2.2,1.9-2.2,1.5.6,1.5,1.6,0,.6,0,.8ZM318.2,37.5h1.9c0-.1,0-.2,0-.3,0-.6-.3-.9-.8-.9s-1,.4-1.1,1.2Z"></path>
        <path class="st10" d="M324.6,40.1v-2.6c0-.8-.3-1.2-.9-1.2s-.9.3-1.1.5v3.3h-.7v-4.3h.7v.5h0c.2-.2.6-.6,1.3-.6s1.4.6,1.4,1.8v2.7h-.7Z"></path>
        <path class="st10" d="M332.2,34.5h-2.6v2.1h2.4v.6h-2.4v2.1h2.8v.7h-3.6v-6.2h3.4v.6Z"></path>
        <path class="st10" d="M334.1,38.3c0,.8.3,1.2.8,1.2s.9-.3,1.1-.5v-3.3h.7v4.3h-.7v-.5h0c-.1.2-.5.6-1.3.6s-1.4-.5-1.4-1.8v-2.7h.7v2.6Z"></path>
        <path class="st10" d="M340.2,36.4c0,0-.2,0-.4,0-.6,0-.9.4-1,.6v3.1h-.7v-4.3h.7v.6h0c.1-.3.4-.7,1.1-.7s.3,0,.4,0v.7Z"></path>
        <path class="st10" d="M342.6,40.2c-1.1,0-1.9-.7-1.9-2.3s.9-2.3,2-2.3,1.9.7,1.9,2.3-.9,2.3-2,2.3ZM342.7,36.3c-.7,0-1.2.5-1.2,1.6s.5,1.6,1.2,1.6,1.2-.5,1.2-1.6-.5-1.6-1.2-1.6Z"></path>
        <path class="st10" d="M346.3,36.2h0c.1-.2.4-.6,1.3-.6s1.7.7,1.7,2.2-.9,2.3-2.1,2.3-.7,0-.8-.2v1.9h-.7v-6.1h.7v.5ZM346.4,39.2c.2.1.4.2.8.2.9,0,1.4-.4,1.4-1.6s-.5-1.6-1.2-1.6-.9.3-1,.5v2.5Z"></path>
        <path class="st10" d="M352.1,37.7h.4v-.3c0-.8-.3-1-.9-1s-.9.3-1.1.4l-.3-.5c.2-.2.7-.5,1.5-.5s1.4.5,1.4,1.7v1.8c0,.4,0,.8,0,.9h-.7c0-.1,0-.3,0-.5h0c-.2.2-.5.6-1.2.6s-1.2-.5-1.2-1.2.9-1.3,2-1.3ZM350.9,35c-.2,0-.4-.2-.4-.5s.2-.5.4-.5.4.2.4.5-.2.5-.4.5ZM351.4,39.6c.6,0,.9-.3,1-.4v-.9h-.4c-.8,0-1.2.3-1.2.7s.3.7.6.7ZM352.4,35c-.2,0-.4-.2-.4-.5s.2-.5.4-.5.4.2.4.5-.2.5-.4.5Z"></path>
        <path class="st10" d="M354.8,34.7c-.3,0-.5-.2-.5-.5s.2-.5.5-.5.5.2.5.5-.2.5-.5.5ZM355.1,40.1h-.7v-4.3h.7v4.3Z"></path>
        <path class="st10" d="M358.6,36.6c-.1,0-.5-.4-.9-.4s-.7.2-.7.5.2.5.7.7l.3.2c.7.3,1,.7,1,1.3s-.5,1.3-1.5,1.3-1.1-.3-1.3-.5l.3-.6c.2.2.5.4,1,.4s.8-.2.8-.5-.3-.5-.8-.8l-.3-.2c-.6-.3-.9-.7-.9-1.3s.6-1.1,1.4-1.1,1.1.3,1.2.4l-.3.6Z"></path>
        <path class="st10" d="M362.7,36.6c0,0-.4-.3-.9-.3-.8,0-1.4.5-1.4,1.6s.5,1.7,1.3,1.7.8-.2.9-.3l.2.6c-.2.1-.5.4-1.3.4-1.1,0-1.9-.7-1.9-2.3s1.1-2.3,2.1-2.3,1,.3,1.2.4l-.3.6Z"></path>
        <path class="st10" d="M366.6,40.1v-2.6c0-.8-.3-1.2-.9-1.2s-.9.3-1.1.5v3.3h-.7v-6.4h.7c0,0,0,2.5,0,2.5h0c.2-.2.6-.5,1.3-.5s1.4.6,1.4,1.8v2.7h-.7Z"></path>
        <path class="st10" d="M371.6,38.1h-2.5c0,1,.5,1.4,1.3,1.4s1-.3,1.1-.4l.2.5c0,.1-.5.5-1.5.5s-1.9-.7-1.9-2.3.9-2.2,1.9-2.2,1.5.6,1.5,1.6,0,.6,0,.8ZM369.1,37.5h1.9c0-.1,0-.2,0-.3,0-.6-.3-.9-.8-.9s-1,.4-1.1,1.2Z"></path>
        <path class="st10" d="M375.5,40.1v-2.6c0-.8-.3-1.2-.9-1.2s-.9.3-1.1.5v3.3h-.7v-4.3h.7v.5h0c.2-.2.6-.6,1.3-.6s1.4.6,1.4,1.8v2.7h-.7Z"></path>
        <path class="st10" d="M27.8,45.3c-.1,0-.5-.4-1.1-.4s-1,.3-1,.8.2.8,1,1.2l.5.3c.7.5,1.2.9,1.2,1.7s-.7,1.7-2,1.7-1.5-.4-1.7-.5l.3-.7c.1.1.6.6,1.4.6s1.2-.4,1.2-.9-.3-.7-1-1.2l-.5-.4c-.8-.5-1.2-1-1.2-1.8s.7-1.5,1.8-1.5,1.3.3,1.5.5l-.3.6Z"></path>
        <path class="st10" d="M31,50.7c-1.1,0-1.9-.7-1.9-2.3s.9-2.3,2-2.3,1.9.7,1.9,2.3-.9,2.3-2,2.3ZM31,46.8c-.7,0-1.2.5-1.2,1.6s.5,1.6,1.2,1.6,1.2-.5,1.2-1.6-.5-1.6-1.2-1.6Z"></path>
        <path class="st10" d="M36.7,46.7l-2,3.2h0s2.2,0,2.2,0v.6h-3.2v-.5l2.1-3.2h0s-2,0-2,0v-.6h2.9v.5Z"></path>
        <path class="st10" d="M38.1,45.2c-.3,0-.5-.2-.5-.5s.2-.5.5-.5.5.2.5.5-.2.5-.5.5ZM38.5,50.6h-.7v-4.3h.7v4.3Z"></path>
        <path class="st10" d="M41.5,48.2h.4v-.3c0-.8-.3-1-.9-1s-.9.3-1.1.4l-.3-.5c.2-.2.7-.5,1.5-.5s1.4.5,1.4,1.7v1.8c0,.4,0,.8,0,.9h-.7c0-.1,0-.3,0-.5h0c-.2.2-.5.6-1.2.6s-1.2-.5-1.2-1.2.9-1.3,2-1.3ZM40.8,50.1c.6,0,.9-.3,1-.4v-.9h-.4c-.8,0-1.2.3-1.2.7s.3.7.6.7Z"></path>
        <path class="st10" d="M44.6,49.5c0,.4.1.5.4.5s.3,0,.3,0v.5s-.2.1-.5.1c-.6,0-.9-.3-.9-1.1v-5.3h.7c0,0,0,5.3,0,5.3Z"></path>
        <path class="st10" d="M48.1,46.9h-1v3.7h-.7v-3.7h-.6v-.5h.6v-.8c0-1,.5-1.4,1.3-1.4s.5,0,.6.1v.6c-.2,0-.4-.1-.6-.1-.4,0-.6.2-.6.8v.7h1.1v.6Z"></path>
        <path class="st10" d="M50.5,50.7c-1.1,0-1.9-.7-1.9-2.3s.9-2.3,2-2.3,1.9.7,1.9,2.3-.9,2.3-2,2.3ZM50.6,46.8c-.7,0-1.2.5-1.2,1.6s.5,1.6,1.2,1.6,1.2-.5,1.2-1.6-.5-1.6-1.2-1.6Z"></path>
        <path class="st10" d="M56.3,50.6v-2.6c0-.8-.3-1.2-.9-1.2s-.9.3-1.1.5v3.3h-.7v-4.3h.7v.5h0c.2-.2.6-.6,1.3-.6s1.4.6,1.4,1.8v2.7h-.7Z"></path>
        <path class="st10" d="M60.1,46.2c.4,0,.6,0,.8.2v-2.1h.7c0,0,0,6.4,0,6.4h-.7v-.5h0c-.1.2-.4.6-1.3.6s-1.7-.8-1.7-2.2,1.1-2.3,2.1-2.3ZM60,50c.6,0,.9-.3,1-.5v-2.5c-.1-.1-.4-.2-.8-.2-.8,0-1.4.4-1.4,1.6s.5,1.6,1.2,1.6Z"></path>
        <path class="st10" d="M65.1,47.1c-.1,0-.5-.4-.9-.4s-.7.2-.7.5.2.5.7.7l.3.2c.7.3,1,.7,1,1.3s-.5,1.3-1.5,1.3-1.1-.3-1.3-.5l.3-.6c.2.2.5.4,1,.4s.8-.2.8-.5-.3-.5-.8-.8l-.3-.2c-.6-.3-.9-.7-.9-1.3s.6-1.1,1.4-1.1,1.1.3,1.2.4l-.3.6Z"></path>
        <path class="st10" d="M70,48.3h-.5v2.2h-.8v-6.2h1.4c1.8,0,2.6.7,2.6,1.9s-.8,2.1-2.6,2.1ZM70,45h-.6v2.7h.5c1.3,0,1.8-.5,1.8-1.4s-.5-1.3-1.7-1.3Z"></path>
        <path class="st10" d="M74.3,49.5c0,.4.1.5.4.5s.3,0,.3,0v.5s-.2.1-.5.1c-.6,0-.9-.3-.9-1.1v-5.3h.7c0,0,0,5.3,0,5.3Z"></path>
        <path class="st10" d="M76.5,48.8c0,.8.3,1.2.8,1.2s.9-.3,1.1-.5v-3.3h.7v4.3h-.7v-.5h0c-.1.2-.5.6-1.3.6s-1.4-.5-1.4-1.8v-2.7h.7v2.6Z"></path>
        <path class="st10" d="M82.6,47.1c-.1,0-.5-.4-.9-.4s-.7.2-.7.5.2.5.7.7l.3.2c.7.3,1,.7,1,1.3s-.5,1.3-1.5,1.3-1.1-.3-1.3-.5l.3-.6c.2.2.5.4,1,.4s.8-.2.8-.5-.3-.5-.8-.8l-.3-.2c-.6-.3-.9-.7-.9-1.3s.6-1.1,1.4-1.1,1.1.3,1.2.4l-.3.6Z"></path>
        <path class="st10" d="M87,43.8h.6c-.6.6-1.2,1.7-1.2,4s.6,3.4,1.2,4h-.6c-.5-.5-1.3-1.7-1.3-4s.8-3.5,1.3-4Z"></path>
        <path class="st10" d="M91.8,45h-2.6v2.1h2.4v.6h-2.4v2.1h2.8v.7h-3.6v-6.2h3.4v.6Z"></path>
        <path class="st10" d="M95.9,45.3c-.1,0-.5-.4-1.1-.4s-1,.3-1,.8.2.8,1,1.2l.5.3c.7.5,1.2.9,1.2,1.7s-.7,1.7-2,1.7-1.5-.4-1.7-.5l.3-.7c.1.1.6.6,1.4.6s1.2-.4,1.2-.9-.3-.7-1-1.2l-.5-.4c-.8-.5-1.2-1-1.2-1.8s.7-1.5,1.8-1.5,1.3.3,1.5.5l-.3.6Z"></path>
        <path class="st10" d="M97.6,50.6v-6.2h3.4v.6h-2.7v2.3h2.4v.6h-2.4v2.7h-.8Z"></path>
        <path class="st10" d="M105.5,48.3h-.5v2.2h-.8v-6.2h1.4c1.8,0,2.6.7,2.6,1.9s-.8,2.1-2.6,2.1ZM105.6,45h-.6v2.7h.5c1.3,0,1.8-.5,1.8-1.4s-.5-1.3-1.7-1.3Z"></path>
        <path class="st10" d="M109.8,49.5c0,.4.1.5.4.5s.3,0,.3,0v.5s-.2.1-.5.1c-.6,0-.9-.3-.9-1.1v-5.3h.7c0,0,0,5.3,0,5.3Z"></path>
        <path class="st10" d="M112,48.8c0,.8.3,1.2.8,1.2s.9-.3,1.1-.5v-3.3h.7v4.3h-.7v-.5h0c-.1.2-.5.6-1.3.6s-1.4-.5-1.4-1.8v-2.7h.7v2.6Z"></path>
        <path class="st10" d="M118.1,47.1c-.1,0-.5-.4-.9-.4s-.7.2-.7.5.2.5.7.7l.3.2c.7.3,1,.7,1,1.3s-.5,1.3-1.5,1.3-1.1-.3-1.3-.5l.3-.6c.2.2.5.4,1,.4s.8-.2.8-.5-.3-.5-.8-.8l-.3-.2c-.6-.3-.9-.7-.9-1.3s.6-1.1,1.4-1.1,1.1.3,1.2.4l-.3.6Z"></path>
        <path class="st10" d="M119.4,51.8h-.6c.6-.6,1.2-1.7,1.2-4s-.6-3.4-1.2-4h.6c.5.5,1.3,1.7,1.3,4s-.8,3.5-1.3,4Z"></path>
        <path class="st10" d="M124.9,52.5c-1,0-1.6-.4-1.6-1.2s.5-.9.8-1.1h0c-.2-.2-.3-.4-.3-.6,0-.5.4-.7.5-.7h0c-.4-.2-.7-.7-.7-1.3,0-1,.7-1.5,1.6-1.5s.5,0,.6.1h1.5v.6h-.7c.2.2.2.5.2.8,0,.9-.7,1.5-1.7,1.5s-.2,0-.4,0c-.1,0-.4.2-.4.4s.1.3.5.3h.9c.9,0,1.4.4,1.4,1.1s-.8,1.6-2.3,1.6ZM124.9,51.9c1.1,0,1.5-.4,1.5-.8s-.2-.6-.7-.6h-1c-.1,0-.3,0-.4,0-.2.1-.5.4-.5.8s.3.7,1,.7ZM125.2,46.7c-.5,0-.9.2-.9.9s.4.9.9.9.9-.2.9-.9-.4-.9-.9-.9Z"></path>
        <path class="st10" d="M131.2,48.6h-2.5c0,1,.5,1.4,1.3,1.4s1-.3,1.1-.4l.2.5c0,.1-.5.5-1.5.5s-1.9-.7-1.9-2.3.9-2.2,1.9-2.2,1.5.6,1.5,1.6,0,.6,0,.8ZM128.7,48h1.9c0-.1,0-.2,0-.3,0-.6-.3-.9-.8-.9s-1,.4-1.1,1.2Z"></path>
        <path class="st10" d="M134.3,46.9h-1v3.7h-.7v-3.7h-.6v-.5h.6v-.8c0-1,.5-1.4,1.3-1.4s.5,0,.6.1v.6c-.2,0-.4-.1-.6-.1-.4,0-.6.2-.6.8v.7h1.1v.6Z"></path>
        <path class="st10" d="M136.8,50.7c-1.1,0-1.9-.7-1.9-2.3s.9-2.3,2-2.3,1.9.7,1.9,2.3-.9,2.3-2,2.3ZM136.1,45.5c-.2,0-.4-.2-.4-.5s.2-.5.4-.5.4.2.4.5-.2.5-.4.5ZM136.8,46.8c-.7,0-1.2.5-1.2,1.6s.5,1.6,1.2,1.6,1.2-.5,1.2-1.6-.5-1.6-1.2-1.6ZM137.6,45.5c-.2,0-.4-.2-.4-.5s.2-.5.4-.5.4.2.4.5-.2.5-.4.5Z"></path>
        <path class="st10" d="M141.9,46.9c0,0-.2,0-.4,0-.6,0-.9.4-1,.6v3.1h-.7v-4.3h.7v.6h0c.1-.3.4-.7,1.1-.7s.3,0,.4,0v.7Z"></path>
        <path class="st10" d="M144.6,46.2c.4,0,.6,0,.8.2v-2.1h.7c0,0,0,6.4,0,6.4h-.7v-.5h0c-.1.2-.4.6-1.3.6s-1.7-.8-1.7-2.2,1.1-2.3,2.1-2.3ZM144.4,50c.6,0,.9-.3,1-.5v-2.5c-.1-.1-.4-.2-.8-.2-.8,0-1.4.4-1.4,1.6s.5,1.6,1.2,1.6Z"></path>
        <path class="st10" d="M150.5,48.6h-2.5c0,1,.5,1.4,1.3,1.4s1-.3,1.1-.4l.2.5c0,.1-.5.5-1.5.5s-1.9-.7-1.9-2.3.9-2.2,1.9-2.2,1.5.6,1.5,1.6,0,.6,0,.8ZM147.9,48h1.9c0-.1,0-.2,0-.3,0-.6-.3-.9-.8-.9s-1,.4-1.1,1.2Z"></path>
        <path class="st10" d="M153.8,46.9c0,0-.2,0-.4,0-.6,0-.9.4-1,.6v3.1h-.7v-4.3h.7v.6h0c.1-.3.4-.7,1.1-.7s.3,0,.4,0v.7Z"></path>
        <path class="st10" d="M156.7,46.9h-1.1v2.2c0,.7.2.9.6.9s.4,0,.5-.1v.6c0,0-.2.2-.7.2-.8,0-1.2-.5-1.2-1.5v-2.3h-.6v-.5h.6c0-.1,0-1.3,0-1.3h.6v1.2h1.2v.6Z"></path>
      </g>
      <g>
        <g>
          <rect class="st3" x="163.2" y="100" width="51.7" height="35.1"></rect>
          <rect class="st6" x="164.2" y="101" width="49.7" height="33.1"></rect>
          <g>
            <polygon class="st0" points="188 108.2 189 107.4 190.1 108.2 189.7 107 190.7 106.2 189.4 106.2 189 104.9 188.6 106.2 187.3 106.2 188.4 107 188 108.2"></polygon>
            <polygon class="st0" points="182.6 109.7 183.6 108.9 184.7 109.7 184.3 108.4 185.3 107.7 184 107.7 183.6 106.4 183.2 107.7 181.9 107.7 183 108.4 182.6 109.7"></polygon>
            <polygon class="st0" points="179.6 110.4 179.2 111.6 177.9 111.6 179 112.4 178.6 113.6 179.6 112.9 180.7 113.6 180.3 112.4 181.3 111.6 180 111.6 179.6 110.4"></polygon>
            <polygon class="st0" points="178.2 118.3 179.2 119.1 178.8 117.8 179.9 117.1 178.6 117.1 178.2 115.8 177.8 117.1 176.5 117.1 177.5 117.8 177.1 119.1 178.2 118.3"></polygon>
            <polygon class="st0" points="180 122.5 179.6 121.2 179.2 122.5 177.9 122.5 179 123.3 178.6 124.5 179.6 123.7 180.7 124.5 180.3 123.3 181.3 122.5 180 122.5"></polygon>
            <polygon class="st0" points="184 126.5 183.6 125.2 183.2 126.5 181.9 126.5 183 127.2 182.6 128.5 183.6 127.7 184.7 128.5 184.3 127.2 185.3 126.5 184 126.5"></polygon>
            <polygon class="st0" points="189.4 127.9 189 126.7 188.6 127.9 187.3 127.9 188.4 128.7 188 129.9 189 129.1 190.1 129.9 189.7 128.7 190.7 127.9 189.4 127.9"></polygon>
            <polygon class="st0" points="194.9 126.5 194.5 125.2 194.1 126.5 192.7 126.5 193.8 127.2 193.4 128.5 194.5 127.7 195.5 128.5 195.1 127.2 196.2 126.5 194.9 126.5"></polygon>
            <polygon class="st0" points="198.8 122.5 198.4 121.2 198 122.5 196.7 122.5 197.8 123.3 197.4 124.5 198.4 123.7 199.5 124.5 199.1 123.3 200.1 122.5 198.8 122.5"></polygon>
            <polygon class="st0" points="201.6 117 200.3 117 199.9 115.8 199.5 117 198.2 117 199.2 117.8 198.8 119 199.9 118.3 200.9 119 200.5 117.8 201.6 117"></polygon>
            <polygon class="st0" points="197.4 113.6 198.4 112.9 199.5 113.6 199.1 112.4 200.1 111.6 198.8 111.6 198.4 110.4 198 111.6 196.7 111.6 197.8 112.4 197.4 113.6"></polygon>
            <polygon class="st0" points="194.5 106.4 194.1 107.7 192.8 107.7 193.8 108.4 193.4 109.7 194.5 108.9 195.5 109.7 195.1 108.4 196.2 107.7 194.9 107.7 194.5 106.4"></polygon>
          </g>
        </g>
        <g>
          <path class="st6" d="M161,143.6v-4.2h.9v1.9l1.7-1.9h1.2l-1.6,1.7,1.7,2.6h-1.1l-1.2-2-.7.7v1.3h-.9Z"></path>
          <path class="st6" d="M165.1,142c0-.3,0-.5.2-.8s.3-.4.6-.6c.2-.1.5-.2.8-.2.5,0,.8.2,1.1.5.3.3.4.7.4,1.1s-.2.9-.5,1.2c-.3.3-.7.5-1.1.5s-.6,0-.8-.2-.4-.3-.6-.6c-.1-.2-.2-.5-.2-.9ZM165.9,142c0,.3,0,.5.2.7s.3.2.5.2.4,0,.5-.2.2-.4.2-.7,0-.5-.2-.7-.3-.2-.5-.2-.4,0-.5.2-.2.4-.2.7Z"></path>
          <path class="st6" d="M168.6,140.5h.5v-.2c0-.3,0-.5,0-.6,0-.1.2-.2.3-.3.1,0,.3-.1.6-.1s.5,0,.7.1v.6c-.2,0-.4,0-.5,0s-.2,0-.3,0c0,0,0,.2,0,.3v.2h.6v.6h-.6v2.4h-.8v-2.4h-.5v-.6ZM170.9,140.1v-.8h.8v.8h-.8ZM170.9,143.6v-3.1h.8v3.1h-.8Z"></path>
          <path class="st6" d="M175.3,143.6h-.8v-1.6c0-.3,0-.5,0-.6,0,0,0-.2-.2-.2,0,0-.2,0-.3,0s-.3,0-.4.1c-.1,0-.2.2-.2.3,0,.1,0,.4,0,.7v1.4h-.8v-3.1h.8v.5c.3-.3.6-.5,1-.5s.3,0,.5,0c.1,0,.3.1.3.2,0,.1.1.2.2.3,0,.1,0,.3,0,.5v1.9Z"></path>
          <path class="st6" d="M176.8,141.4h-.7c0-.4.2-.7.4-.8s.5-.2.9-.2.6,0,.8.1c.2,0,.3.2.4.3,0,.1.1.4.1.7v.9c0,.3,0,.5,0,.6,0,.1,0,.3.1.4h-.8c0,0,0-.1,0-.2,0,0,0,0,0,0-.1.1-.3.2-.4.3-.2,0-.3.1-.5.1-.3,0-.6,0-.7-.3-.2-.2-.3-.4-.3-.7s0-.3.1-.5c0-.1.2-.2.3-.3.1,0,.4-.1.6-.2.4,0,.6-.1.8-.2h0c0-.2,0-.3-.1-.4,0,0-.2-.1-.4-.1s-.3,0-.3,0c0,0-.1.2-.2.3ZM177.9,142.1c-.1,0-.3,0-.5.1-.2,0-.4,0-.4.1-.1,0-.2.2-.2.3s0,.2.1.3.2.1.3.1.3,0,.4-.1c0,0,.2-.2.2-.3,0,0,0-.2,0-.4v-.2Z"></path>
          <path class="st6" d="M182.3,143.6h-.8v-1.6c0-.3,0-.5,0-.6,0,0,0-.2-.2-.2,0,0-.2,0-.3,0s-.3,0-.4.1c-.1,0-.2.2-.2.3,0,.1,0,.4,0,.7v1.4h-.8v-3.1h.8v.5c.3-.3.6-.5,1-.5s.3,0,.5,0c.1,0,.3.1.3.2,0,.1.1.2.2.3s0,.3,0,.5v1.9Z"></path>
          <path class="st6" d="M182.8,143.6v-.6l1.2-1.3c.2-.2.3-.4.4-.5,0,0-.2,0-.4,0h-1.1s0-.7,0-.7h2.5v.6l-1.2,1.4-.4.4c.2,0,.4,0,.4,0h1.3v.7h-2.7Z"></path>
          <path class="st6" d="M186,140.1v-.8h.8v.8h-.8ZM186,143.6v-3.1h.8v3.1h-.8Z"></path>
          <path class="st6" d="M189.5,142.6h.8c-.1.4-.3.7-.5.8-.2.2-.5.2-.8.2-.5,0-.9-.2-1.2-.5-.2-.3-.3-.6-.3-1.1s.1-.9.4-1.2c.3-.3.6-.4,1-.4s.8.2,1.1.5c.3.3.4.8.4,1.4h-2c0,.2,0,.4.2.6.1.1.3.2.5.2s.2,0,.3-.1.2-.2.2-.3ZM189.5,141.8c0-.2,0-.4-.2-.5-.1-.1-.3-.2-.4-.2s-.3,0-.4.2-.2.3-.2.5h1.2Z"></path>
          <path class="st6" d="M191.8,143.6h-.8v-3.1h.8v.4c.1-.2.2-.3.3-.4.1,0,.2,0,.4,0s.4,0,.5.2l-.3.7c-.1,0-.3-.1-.4-.1s-.2,0-.3,0c0,0-.1.2-.2.3,0,.2,0,.5,0,1v.9Z"></path>
          <path class="st6" d="M194.7,140.5v.6h-.6v1.2c0,.3,0,.4,0,.4,0,0,0,0,0,.1,0,0,0,0,.1,0s.2,0,.3,0v.6c-.1,0-.3.1-.6.1s-.3,0-.4,0c-.1,0-.2-.1-.3-.2,0,0,0-.2-.1-.3,0,0,0-.3,0-.6v-1.3h-.4v-.6h.4v-.6l.8-.5v1.1h.6Z"></path>
          <path class="st6" d="M197.8,143.6l-1.2-3.1h.9l.6,1.6.2.5c0-.1,0-.2,0-.3,0,0,0-.2,0-.3l.6-1.6h.8l-1.2,3.1h-.7Z"></path>
          <path class="st6" d="M200,142c0-.3,0-.5.2-.8.1-.3.3-.4.6-.6.2-.1.5-.2.8-.2.5,0,.8.2,1.1.5.3.3.4.7.4,1.1s-.1.9-.5,1.2c-.3.3-.7.5-1.1.5s-.6,0-.8-.2c-.3-.1-.5-.3-.6-.6-.1-.2-.2-.5-.2-.9ZM200.9,142c0,.3,0,.5.2.7.1.2.3.2.5.2s.4,0,.5-.2c.1-.2.2-.4.2-.7s0-.5-.2-.7c-.1-.2-.3-.2-.5-.2s-.4,0-.5.2c-.1.2-.2.4-.2.7Z"></path>
          <path class="st6" d="M206.6,143.6h-.8v-1.6c0-.3,0-.5,0-.6,0,0,0-.2-.2-.2,0,0-.2,0-.3,0s-.3,0-.4.1c-.1,0-.2.2-.2.3,0,.1,0,.4,0,.7v1.4h-.8v-3.1h.8v.5c.3-.3.6-.5,1-.5s.3,0,.5,0c.1,0,.3.1.3.2,0,.1.1.2.2.3,0,.1,0,.3,0,.5v1.9Z"></path>
          <path class="st6" d="M211.9,143.6h-.8v-.5c-.1.2-.3.3-.4.4-.2,0-.3.1-.5.1-.4,0-.7-.1-.9-.4-.3-.3-.4-.7-.4-1.2s.1-.9.4-1.2c.2-.3.6-.4.9-.4s.6.1.9.4v-1.5h.8v4.2ZM209.7,142c0,.3,0,.6.1.7.1.2.3.3.5.3s.3,0,.5-.2c.1-.2.2-.4.2-.7s0-.6-.2-.8c-.1-.2-.3-.2-.5-.2s-.4,0-.5.2c-.1.2-.2.4-.2.7Z"></path>
          <path class="st6" d="M214.5,142.6h.8c-.1.4-.3.7-.5.8-.2.2-.5.2-.8.2-.5,0-.9-.2-1.2-.5-.2-.3-.3-.6-.3-1.1s.1-.9.4-1.2c.3-.3.6-.4,1-.4s.8.2,1.1.5c.3.3.4.8.4,1.4h-2c0,.2,0,.4.2.6.1.1.3.2.5.2s.2,0,.3-.1.2-.2.2-.3ZM214.5,141.8c0-.2,0-.4-.2-.5-.1-.1-.3-.2-.4-.2s-.3,0-.4.2-.2.3-.2.5h1.2Z"></path>
          <path class="st6" d="M216.8,143.6h-.8v-3.1h.8v.4c.1-.2.2-.3.3-.4.1,0,.2,0,.4,0s.4,0,.5.2l-.3.7c-.1,0-.3-.1-.4-.1s-.2,0-.3,0c0,0-.1.2-.2.3,0,.2,0,.5,0,1v.9Z"></path>
          <path class="st6" d="M160.9,150.7v-4.2h3.1v.7h-2.3v.9h2.1v.7h-2.1v1.2h2.4v.7h-3.2Z"></path>
          <path class="st6" d="M166.8,150.7v-.5c-.1.2-.3.3-.4.4-.2,0-.4.1-.6.1s-.4,0-.6-.1c-.2,0-.3-.2-.4-.4,0-.2-.1-.4-.1-.7v-1.9h.8v1.4c0,.4,0,.7,0,.8,0,0,0,.2.2.2,0,0,.2,0,.3,0s.3,0,.4-.1c.1,0,.2-.2.2-.3,0-.1,0-.4,0-.8v-1.3h.8v3.1h-.8Z"></path>
          <path class="st6" d="M169.2,150.7h-.8v-3.1h.8v.4c.1-.2.2-.3.3-.4s.2,0,.4,0,.4,0,.5.2l-.3.7c-.1,0-.3-.1-.4-.1s-.2,0-.3,0c0,0-.1.2-.2.3,0,.2,0,.5,0,1v.9Z"></path>
          <path class="st6" d="M170.5,149.1c0-.3,0-.5.2-.8s.3-.4.6-.6c.2-.1.5-.2.8-.2.5,0,.8.2,1.1.5.3.3.4.7.4,1.1s-.2.9-.5,1.2c-.3.3-.7.5-1.1.5s-.6,0-.8-.2-.4-.3-.6-.6c-.1-.2-.2-.5-.2-.9ZM171.4,149.1c0,.3,0,.5.2.7s.3.2.5.2.4,0,.5-.2.2-.4.2-.7,0-.5-.2-.7-.3-.2-.5-.2-.4,0-.5.2-.2.4-.2.7Z"></path>
          <path class="st6" d="M174.3,147.6h.8v.5c0-.2.2-.3.4-.4s.4-.1.6-.1c.4,0,.7.1.9.4s.4.7.4,1.2-.1.9-.4,1.2c-.3.3-.6.4-.9.4s-.3,0-.5-.1c-.1,0-.3-.2-.4-.3v1.5h-.8v-4.2ZM175.1,149.1c0,.3,0,.6.2.8.1.2.3.2.5.2s.3,0,.5-.2c.1-.2.2-.4.2-.7s0-.6-.2-.7c-.1-.2-.3-.2-.5-.2s-.4,0-.5.2c-.1.2-.2.4-.2.7Z"></path>
          <path class="st6" d="M178.6,148.6h-.7c0-.4.2-.7.4-.8s.5-.2.9-.2.6,0,.8.1c.2,0,.3.2.4.3,0,.1.1.4.1.7v.9c0,.3,0,.5,0,.6,0,.1,0,.3.1.4h-.8c0,0,0-.1,0-.2,0,0,0,0,0,0-.1.1-.3.2-.4.3-.2,0-.3.1-.5.1-.3,0-.6,0-.7-.3-.2-.2-.3-.4-.3-.7s0-.3.1-.5c0-.1.2-.2.3-.3.1,0,.4-.1.6-.2.4,0,.6-.1.8-.2h0c0-.2,0-.3-.1-.4,0,0-.2-.1-.4-.1s-.3,0-.3,0c0,0-.1.2-.2.3ZM178.2,147.1v-.7h.7v.7h-.7ZM179.7,149.2c-.1,0-.3,0-.5.1-.2,0-.4,0-.4.1-.1,0-.2.2-.2.3s0,.2.1.3.2.1.3.1.3,0,.4-.1c0,0,.2-.2.2-.3,0,0,0-.2,0-.4v-.2ZM179.5,147.1v-.7h.7v.7h-.7Z"></path>
          <path class="st6" d="M181.3,147.2v-.8h.8v.8h-.8ZM181.3,150.7v-3.1h.8v3.1h-.8Z"></path>
          <path class="st6" d="M182.6,149.8h.8s.1.2.2.2c.1,0,.3.1.4.1s.4,0,.5-.1c0,0,.1-.1.1-.2s0-.1,0-.2c0,0-.1,0-.3-.1-.7-.1-1.1-.3-1.2-.4-.2-.2-.4-.4-.4-.7s.1-.5.3-.7.5-.3,1-.3.7,0,.9.2c.2.1.3.3.4.6h-.8s0,0-.2-.1c0,0-.2,0-.4,0s-.4,0-.5,0c0,0,0,0,0,.2s0,.1,0,.1c0,0,.3.1.8.2.4,0,.7.2.9.4.2.1.3.3.3.6s-.1.5-.4.7c-.2.2-.6.3-1,.3s-.7,0-1-.3c-.2-.2-.4-.4-.5-.7Z"></path>
          <path class="st6" d="M188.9,148.5h-.8s0-.1-.2-.2c0,0-.2-.1-.4-.1s-.4,0-.5.2c-.1.1-.2.4-.2.7s0,.6.2.8c.1.2.3.2.5.2s.3,0,.4-.1c0,0,.2-.2.2-.5h.8c0,.5-.2.8-.5,1s-.6.3-.9.3-.8-.1-1.1-.4c-.3-.3-.4-.7-.4-1.2s.1-.9.4-1.2c.3-.3.6-.4,1.1-.4s.7,0,.9.2c.2.2.4.4.5.7Z"></path>
          <path class="st6" d="M190.3,146.4v1.6c.3-.3.6-.5.9-.5s.4,0,.5.1.3.2.3.3c0,.1.1.2.2.4,0,.1,0,.3,0,.6v1.8h-.8v-1.6c0-.3,0-.5,0-.6,0,0,0-.2-.2-.2,0,0-.2,0-.3,0s-.3,0-.4,0-.2.2-.2.3c0,.1,0,.3,0,.6v1.5h-.8v-4.2h.8Z"></path>
          <path class="st6" d="M194.9,149.7h.8c-.1.4-.3.7-.5.8-.2.2-.5.2-.8.2-.5,0-.9-.2-1.2-.5-.2-.3-.3-.6-.3-1.1s.1-.9.4-1.2c.3-.3.6-.4,1-.4s.8.2,1.1.5c.3.3.4.8.4,1.4h-2c0,.2,0,.4.2.6.1.1.3.2.5.2s.2,0,.3-.1.2-.2.2-.3ZM195,148.9c0-.2,0-.4-.2-.5-.1-.1-.3-.2-.4-.2s-.3,0-.4.2-.2.3-.2.5h1.2Z"></path>
          <path class="st6" d="M199.2,150.7h-.8v-1.6c0-.3,0-.5,0-.6,0,0,0-.2-.2-.2,0,0-.2,0-.3,0s-.3,0-.4.1c-.1,0-.2.2-.2.3,0,.1,0,.4,0,.7v1.4h-.8v-3.1h.8v.5c.3-.3.6-.5,1-.5s.3,0,.5,0c.1,0,.3.1.3.2,0,.1.1.2.2.3,0,.1,0,.3,0,.5v1.9Z"></path>
          <path class="st6" d="M201.7,146.4h.9v2.3c0,.4,0,.6,0,.7,0,.2.1.3.3.4.1.1.3.2.6.2s.4,0,.5-.1c.1,0,.2-.2.2-.4,0-.1,0-.4,0-.7v-2.3h.9v2.2c0,.5,0,.9,0,1.1,0,.2-.1.4-.3.5-.1.1-.3.3-.5.3-.2,0-.5.1-.8.1s-.7,0-.9-.1c-.2,0-.4-.2-.5-.4-.1-.1-.2-.3-.2-.5,0-.2,0-.6,0-1.1v-2.3Z"></path>
          <path class="st6" d="M208.8,150.7h-.8v-1.6c0-.3,0-.5,0-.6,0,0,0-.2-.2-.2,0,0-.2,0-.3,0s-.3,0-.4.1c-.1,0-.2.2-.2.3,0,.1,0,.4,0,.7v1.4h-.8v-3.1h.8v.5c.3-.3.6-.5,1-.5s.3,0,.5,0c.1,0,.3.1.3.2,0,.1.1.2.2.3,0,.1,0,.3,0,.5v1.9Z"></path>
          <path class="st6" d="M209.6,147.2v-.8h.8v.8h-.8ZM209.6,150.7v-3.1h.8v3.1h-.8Z"></path>
          <path class="st6" d="M211.1,149.1c0-.3,0-.5.2-.8.1-.3.3-.4.6-.6.2-.1.5-.2.8-.2.5,0,.8.2,1.1.5.3.3.4.7.4,1.1s-.1.9-.5,1.2c-.3.3-.7.5-1.1.5s-.6,0-.8-.2c-.3-.1-.5-.3-.6-.6-.1-.2-.2-.5-.2-.9ZM211.9,149.1c0,.3,0,.5.2.7.1.2.3.2.5.2s.4,0,.5-.2c.1-.2.2-.4.2-.7s0-.5-.2-.7c-.1-.2-.3-.2-.5-.2s-.4,0-.5.2c-.1.2-.2.4-.2.7Z"></path>
          <path class="st6" d="M217.7,150.7h-.8v-1.6c0-.3,0-.5,0-.6,0,0,0-.2-.2-.2,0,0-.2,0-.3,0s-.3,0-.4.1c-.1,0-.2.2-.2.3,0,.1,0,.4,0,.7v1.4h-.8v-3.1h.8v.5c.3-.3.6-.5,1-.5s.3,0,.5,0c.1,0,.3.1.3.2,0,.1.1.2.2.3,0,.1,0,.3,0,.5v1.9Z"></path>
        </g>
      </g>
      <g>
        <path class="st1" d="M281.7,116.5c-.2,2.7,1.6,5,4.2,5.3l-.4,4.2c-2.8-.2-5.1-1.6-6.5-3.6-1.8,2.1-4.4,3.4-7.2,3.6l.4-4.2c2.7-.3,4.9-2.6,5.2-5.3.2-2.7-1.6-5-4.2-5.3l.4-4.2c2.8.2,5.1,1.6,6.5,3.6,1.8-2.1,4.4-3.4,7.2-3.6l-.4,4.2c-2.7.3-4.9,2.6-5.2,5.3ZM280.5,105.9c1.3.1,2.4-.8,2.6-2.1.1-1.3-.8-2.4-2.1-2.6-1.3-.1-2.4.8-2.6,2.1-.1,1.3.8,2.4,2.1,2.6Z"></path>
        <path class="st9" d="M318.9,119.9l.8-9.1h-2.4l.3-3.8h2.4l.4-4.8h4.1l-.4,4.8h3.5l-.3,3.8h-3.5l-.8,8.9c-.2,1.9.5,2.5,2.2,2.5h1.2l-.3,3.8h-1.4c-4.4,0-6.1-1.7-5.7-6h0Z"></path>
        <path class="st9" d="M301.3,125.8c-1.3-.4-2.4-.9-3.3-1.5l2.4-3.3c.7.6,1.5,1,2.4,1.2,1,.3,2.1.4,3.3.4s2.2-.2,2.9-.5c.7-.4,1-.9,1.1-1.7,0-1-.5-1.9-3.2-2.2l-2.2-.3c-3.6-.5-5.5-2.4-5.2-5.6.2-1.9,1-3.4,2.5-4.4,1.5-.9,3.5-1.4,5.9-1.4s2.6.1,3.7.4c1.3.3,2.4.8,3.4,1.5l-2.4,3.2c-.7-.5-1.4-.9-2.4-1.1-.9-.2-1.8-.3-2.8-.3s-2,.2-2.7.5c-.7.3-1.1.8-1.1,1.6-.1,1.2.7,1.8,2.7,2.1l2.2.3c4.3.6,5.9,2.6,5.7,5.6-.2,2-1.1,3.5-2.6,4.5-1.5,1-3.6,1.5-6,1.5s-3-.2-4.3-.5h0Z"></path>
        <path class="st9" d="M291.3,107h4.2l-1.7,18.9h-4.2l1.7-18.9Z"></path>
        <path class="st9" d="M254.4,123.7c-1.1-1.5-1.5-3.4-1.2-7.2.3-3.7,1.1-5.7,2.4-7.2,1.5-1.7,3.7-2.7,6.6-2.7s4.9.9,6.1,2.7c1,1.5,1.4,3.5,1.1,7.2v1.5h-12.3c0,2,.1,2.8.7,3.5.6.8,1.5,1.3,3.2,1.3s2-.2,2.8-.6c.8-.4,1.4-.9,1.9-1.7l3.1,2.1c-.8,1.2-1.9,2.2-3.3,2.8-1.4.7-3,1-4.9,1-3,0-5-.9-6.3-2.7h0ZM265.6,114.7c0-1.7-.1-2.5-.5-3.1-.6-.8-1.5-1.4-3-1.4s-2.6.6-3.3,1.3c-.6.6-.9,1.4-1.1,3.1h8Z"></path>
        <path class="st9" d="M334.7,110.8h3.8v1h-2.8v1.8h2.5v1h-2.5v2.6h-1v-6.3h0Z"></path>
        <path class="st9" d="M340.1,110.8h2.3c1.3,0,2.1.7,2.1,1.9s-.5,1.5-1.2,1.8l1.3,2.6h-1.2l-1.1-2.5h-1.1v2.5h-1v-6.3h0ZM342.3,113.7c.6,0,1.1-.2,1.1-1s-.5-1-1.1-1h-1.2v2h1.2Z"></path>
        <path class="st9" d="M346.4,116.6c-.5-.5-.6-1.2-.6-2.6s.1-2,.6-2.6c.4-.4,1-.7,1.8-.7s1.4.2,1.8.7c.5.5.6,1.2.6,2.6s-.1,2-.6,2.6c-.4.4-1,.7-1.8.7s-1.4-.2-1.8-.7ZM349.2,115.9c.3-.4.3-1,.3-1.9s0-1.5-.3-1.9c-.2-.3-.6-.4-1-.4s-.8.1-1,.4c-.3.4-.3,1-.3,1.9s0,1.5.3,1.9c.2.3.6.4,1,.4s.8-.1,1-.4Z"></path>
        <path class="st9" d="M352.3,110.8h1.2l1.7,3.9,1.7-3.9h1.2v6.3h-1v-4.3l-1.5,3.2h-.7l-1.5-3.2v4.3h-1v-6.3h0Z"></path>
        <path class="st9" d="M363.1,117c-.3-.1-.6-.3-.9-.6l.7-.7c.2.2.4.4.7.5.3.1.7.2,1,.2s.8,0,1-.2c.2-.2.3-.4.3-.7,0-.4-.2-.7-1.1-.9h-.6c-1.1-.3-1.7-.8-1.7-1.9s.2-1.1.7-1.5c.4-.2.9-.4,1.5-.4s.8,0,1.1.2c.4.1.7.3,1,.5l-.6.7c-.1-.1-.3-.2-.5-.3-.3-.1-.6-.2-1-.2s-.7,0-.9.2c-.2.1-.3.3-.3.6,0,.5.2.7,1,.9h.6c1.2.3,1.8.9,1.8,1.9s-.2,1.1-.6,1.4c-.4.3-1,.5-1.7.5s-1.1-.1-1.5-.3Z"></path>
        <path class="st9" d="M369,116.6c-.5-.5-.6-1.2-.6-2.6s.1-2,.6-2.6c.4-.4,1-.7,1.7-.7s1.3.2,1.7.7c.3.3.5.7.5,1.2l-1,.2c0-.3-.1-.5-.2-.6-.2-.3-.5-.4-1-.4s-.8.1-1,.4c-.3.4-.3,1-.3,1.9s0,1.6.3,1.9c.2.3.5.4,1,.4s.8-.2,1-.4c.1-.2.2-.4.3-.6l1,.2c0,.5-.3.9-.6,1.2-.4.4-1,.7-1.7.7s-1.3-.2-1.7-.7h0Z"></path>
        <path class="st9" d="M374.7,110.8h1v6.3h-1v-6.3Z"></path>
        <path class="st9" d="M377.6,110.8h3.8v1h-2.8v1.7h2.4v.9h-2.4v1.8h2.8v1h-3.8v-6.3h0Z"></path>
        <path class="st9" d="M382.9,110.8h1l2.6,4.4v-4.4h1v6.3h-1l-2.6-4.4v4.4h-1v-6.3Z"></path>
        <path class="st9" d="M389.9,116.6c-.5-.5-.6-1.2-.6-2.6s.1-2,.6-2.6c.4-.4,1-.7,1.7-.7s1.3.2,1.7.7c.3.3.5.7.5,1.2l-1,.2c0-.3-.1-.5-.2-.6-.2-.3-.5-.4-1-.4s-.8.1-1,.4c-.3.4-.3,1-.3,1.9s0,1.6.3,1.9c.2.3.5.4,1,.4s.8-.2,1-.4c.1-.2.2-.4.3-.6l1,.2c0,.5-.3.9-.6,1.2-.4.4-1,.7-1.7.7s-1.3-.2-1.7-.7h0Z"></path>
        <path class="st9" d="M395.6,110.8h3.8v1h-2.8v1.7h2.4v.9h-2.4v1.8h2.8v1h-3.8v-6.3h0Z"></path>
        <path class="st9" d="M335.6,120.6h-1.8v-1h4.6v1h-1.8v5.4h-1v-5.4Z"></path>
        <path class="st9" d="M339.9,125.4c-.5-.5-.6-1.2-.6-2.6s.1-2,.6-2.6c.4-.4,1-.7,1.8-.7s1.4.2,1.8.7c.5.5.6,1.2.6,2.6s-.1,2-.6,2.6c-.4.4-1,.7-1.8.7s-1.4-.2-1.8-.7ZM342.7,124.7c.3-.4.3-1,.3-1.9s0-1.5-.3-1.9c-.2-.3-.6-.4-1-.4s-.8.1-1,.4c-.3.4-.3,1-.3,1.9s0,1.5.3,1.9c.2.3.6.4,1,.4s.8-.1,1-.4Z"></path>
        <path class="st9" d="M348.4,119.6h2.3c1.2,0,2,.6,2,1.6s-.3,1.1-.8,1.4c.6.3.9.8.9,1.5,0,1.1-.7,1.8-2,1.8h-2.4v-6.3h0ZM351.6,121.4c0-.5-.4-.9-1-.9h-1.2v1.7h1.2c.6,0,1-.3,1-.8ZM351.7,124.1c0-.6-.4-.9-1-.9h-1.3v1.8h1.3c.6,0,1-.4,1-.9Z"></path>
        <path class="st9" d="M354.3,123.8v-4.2h1v4.2c0,.8.3,1.3,1.3,1.3s1.3-.5,1.3-1.3v-4.2h1v4.2c0,1.2-.6,2.3-2.3,2.3s-2.3-1-2.3-2.3h0Z"></path>
        <path class="st9" d="M361.2,125.8c-.3-.1-.6-.3-.9-.6l.7-.7c.2.2.4.4.7.5.3.1.7.2,1,.2s.8,0,1-.2c.2-.2.3-.4.3-.7,0-.4-.2-.7-1.1-.9h-.6c-1.1-.3-1.7-.8-1.7-1.9s.2-1.1.7-1.5c.4-.2.9-.4,1.5-.4s.8,0,1.1.2c.4.1.7.3,1,.5l-.6.7c-.1-.1-.3-.2-.5-.3-.3-.1-.6-.2-1-.2s-.7,0-.9.2c-.2.1-.3.3-.3.6,0,.5.2.7,1,.9h.6c1.2.3,1.8.9,1.8,1.9s-.2,1.1-.6,1.4c-.4.3-1,.5-1.7.5s-1.1-.1-1.5-.3Z"></path>
        <path class="st9" d="M366.7,119.6h1v6.3h-1v-6.3Z"></path>
        <path class="st9" d="M369.6,119.6h1l2.6,4.4v-4.4h1v6.3h-1l-2.6-4.4v4.4h-1v-6.3Z"></path>
        <path class="st9" d="M376.1,119.6h3.8v1h-2.8v1.7h2.4v.9h-2.4v1.8h2.8v1h-3.8v-6.3h0Z"></path>
        <path class="st9" d="M382.1,125.8c-.3-.1-.6-.3-.9-.6l.7-.7c.2.2.4.4.7.5.3.1.7.2,1,.2s.8,0,1-.2c.2-.2.3-.4.3-.7,0-.4-.2-.7-1.1-.9h-.6c-1.1-.3-1.7-.8-1.7-1.9s.2-1.1.7-1.5c.4-.2.9-.4,1.5-.4s.8,0,1.1.2c.4.1.7.3,1,.5l-.6.7c-.1-.1-.3-.2-.5-.3-.3-.1-.6-.2-1-.2s-.7,0-.9.2c-.2.1-.3.3-.3.6,0,.5.2.7,1,.9h.6c1.2.3,1.8.9,1.8,1.9s-.2,1.1-.6,1.4c-.4.3-1,.5-1.7.5s-1.1-.1-1.5-.3Z"></path>
        <path class="st9" d="M388,125.8c-.3-.1-.6-.3-.9-.6l.7-.7c.2.2.4.4.7.5.3.1.7.2,1,.2s.8,0,1-.2c.2-.2.3-.4.3-.7,0-.4-.2-.7-1.1-.9h-.6c-1.1-.3-1.7-.8-1.7-1.9s.2-1.1.7-1.5c.4-.2.9-.4,1.5-.4s.8,0,1.1.2c.4.1.7.3,1,.5l-.6.7c-.1-.1-.3-.2-.5-.3-.3-.1-.6-.2-1-.2s-.7,0-.9.2c-.2.1-.3.3-.3.6,0,.5.2.7,1,.9h.6c1.2.3,1.8.9,1.8,1.9s-.2,1.1-.6,1.4c-.4.3-1,.5-1.7.5s-1.1-.1-1.5-.3Z"></path>
      </g>
      <g>
        <rect class="st2" x="5.9" y="59" width="140.1" height="142.9"></rect>
        <g class="st4">
          <path class="st9" d="M29.2,77.3c-.2-.1-.6-.3-1-.3-1,0-2.1.7-2.1,2.5s.8,2.6,1.9,2.6.7,0,1-.2v-1.7h-.5c0-.1-.1-.2-.1-.2,0,0,0-.2,0-.3h2s0,0,0,0c0,.1,0,.2-.3.3h-.2v1.8c-.2.2-.9.7-2.1.7s-2.7-.9-2.7-3,1.7-3.1,3.1-3.1,1.4.3,1.6.4c0,.3,0,.8,0,.9,0,.3,0,.4-.3.4s-.1,0-.2,0l-.2-.8Z"></path>
          <path class="st9" d="M31.9,80.4c0,1.1.5,1.6,1.3,1.6s.9-.2,1.1-.4c0,0,.1.2.1.3,0,.2-.6.7-1.5.7s-1.8-.6-1.8-2.1.9-2.3,1.9-2.3,1.5.6,1.5,1.4,0,.5-.1.7h-2.3ZM33.4,80c0,0,0-.2,0-.4,0-.5-.2-.9-.7-.9s-.8.4-.9,1.2h1.5Z"></path>
          <path class="st9" d="M37.5,78.8h-1v3.2h.6c0,.1.1.2.1.2s0,.2,0,.2h-2s0,0,0,0c0-.2.1-.2.3-.3h.3v-3.3h-.6s0,0,0,0c0-.2.1-.2.3-.3h.4v-.2c0-1.4.8-2,1.6-2s.6.2.6.5-.1.3-.3.4c0,0-.3-.2-.6-.2s-.5.2-.5.7,0,.8,0,.8h1.1v.5Z"></path>
          <path class="st9" d="M41.9,80.4c0,1.5-1,2.2-2.1,2.2s-2-.7-2-2.1,1-2.2,2.1-2.2,1.9.6,1.9,2.1ZM39.1,77.6c-.3,0-.5-.2-.5-.5s.2-.5.5-.5.5.2.5.5-.2.5-.5.5ZM38.8,80.4c0,1.1.5,1.7,1.1,1.7s1.1-.5,1.1-1.6-.5-1.7-1.1-1.7-1.1.5-1.1,1.7ZM40.7,77.6c-.3,0-.5-.2-.5-.5s.2-.5.5-.5.5.2.5.5-.2.5-.5.5Z"></path>
          <path class="st9" d="M43.9,79h0c.2-.3.5-.8,1.1-.8s.6.2.6.5,0,.4-.2.4c0,0-.3-.1-.6-.1-.5,0-.7.2-.9.4v2.6h.6c0,.1.1.2.1.2s0,.2,0,.2h-2.1s0,0,0,0c0-.2.1-.2.3-.3h.3v-3.3h-.6c0,0,0-.1,0-.2,0-.1.1-.2.3-.3h1.2c0-.1,0,.6,0,.6Z"></path>
          <path class="st9" d="M49.6,82h.6c0,0,0,.1,0,.2,0,.2-.1.3-.3.3h-1.1c0,.1,0-.5,0-.5h0c-.2.3-.5.6-1.2.6s-1.6-.5-1.6-2,1.1-2.3,2.2-2.3.5,0,.6,0v-1.5h-.6c0,0,0-.1,0-.2,0-.1.1-.2.3-.3h1.2c0-.1,0,5.6,0,5.6ZM48.7,79c-.1-.1-.4-.3-.7-.3-.7,0-1.2.5-1.2,1.6s.5,1.6,1.1,1.6.8-.2.9-.4v-2.6Z"></path>
          <path class="st9" d="M51.6,80.4c0,1.1.5,1.6,1.3,1.6s.9-.2,1.1-.4c0,0,.1.2.1.3,0,.2-.6.7-1.5.7s-1.8-.6-1.8-2.1.9-2.3,1.9-2.3,1.5.6,1.5,1.4,0,.5-.1.7h-2.3ZM53.1,80c0,0,0-.2,0-.4,0-.5-.2-.9-.7-.9s-.8.4-.9,1.2h1.5Z"></path>
          <path class="st9" d="M56,79h0c.2-.3.5-.8,1.1-.8s.6.2.6.5,0,.4-.2.4c0,0-.3-.1-.6-.1-.5,0-.7.2-.9.4v2.6h.6c0,.1.1.2.1.2s0,.2,0,.2h-2.1s0,0,0,0c0-.2.1-.2.3-.3h.3v-3.3h-.6c0,0,0-.1,0-.2,0-.1.1-.2.3-.3h1.2c0-.1,0,.6,0,.6Z"></path>
          <path class="st9" d="M60.6,78.8h-1.2v2.5c0,.4.1.7.5.7s.6-.1.7-.2c0,0,0,.2,0,.3s-.3.5-1.1.5-1.1-.5-1.1-1.1v-2.7h-.6s0,0,0,0c0-.2.1-.3.3-.3h.4c0-.1.2-1.3.2-1.3h.6v1.2h1.3v.5Z"></path>
          <path class="st9" d="M66.6,82h.6c0,0,0,.1,0,.2,0,.2-.1.3-.3.3h-1.1c0,.1,0-.5,0-.5h0c-.2.3-.5.6-1.2.6s-1.6-.5-1.6-2,1.1-2.3,2.2-2.3.5,0,.6,0v-1.5h-.6c0,0,0-.1,0-.2,0-.1.1-.2.3-.3h1.2c0-.1,0,5.6,0,5.6ZM65.7,79c-.1-.1-.4-.3-.7-.3-.7,0-1.2.5-1.2,1.6s.5,1.6,1.1,1.6.8-.2.9-.4v-2.6Z"></path>
          <path class="st9" d="M71.6,82h.6c0,0,0,.1,0,.2,0,.2-.1.3-.3.3h-1.1c0,.1,0-.5,0-.5h0c-.1.2-.5.6-1.3.6s-1.3-.5-1.3-1.6v-2.2h-.6c0,0,0-.1,0-.2,0-.1.1-.2.3-.3h1.2c0-.1,0,2.6,0,2.6,0,.8.4,1,.8,1s.7-.2.9-.4v-2.7h-.6c0,0,0-.1,0-.2,0-.1.1-.2.3-.3h1.2c0-.1,0,3.6,0,3.6Z"></path>
          <path class="st9" d="M74,79h0c.2-.3.5-.8,1.1-.8s.6.2.6.5,0,.4-.2.4c0,0-.3-.1-.6-.1-.5,0-.7.2-.9.4v2.6h.6c0,.1.1.2.1.2s0,.2,0,.2h-2.1s0,0,0,0c0-.2.1-.2.3-.3h.3v-3.3h-.6c0,0,0-.1,0-.2,0-.1.1-.2.3-.3h1.2c0-.1,0,.6,0,.6Z"></path>
          <path class="st9" d="M78,78.7c-.6,0-1.1.4-1.1,1.5s.4,1.7,1.2,1.7.8-.3,1-.4c0,0,.1.2.1.3,0,.2-.5.7-1.4.7s-1.8-.7-1.8-2.1,1-2.2,2.1-2.2,1.2.5,1.2.7-.1.4-.4.5c-.1-.3-.3-.7-.9-.7Z"></path>
          <path class="st9" d="M81.2,78.8h0c.2-.2.6-.6,1.3-.6s1.3.5,1.3,1.5v2.3h.5c0,.1.1.2.1.2s0,.2,0,.2h-1.9s0,0,0,0c0-.2.1-.2.3-.3h.3v-2.3c0-.7-.4-1-.8-1s-.8.2-1,.4v2.7h.5c0,.1.1.2.1.2s0,.2,0,.2h-1.9s0,0,0,0c0-.2.1-.2.3-.3h.3v-5.3h-.6c0,0,0-.1,0-.2,0-.1.1-.2.3-.3h1.2c0-.1,0,2.5,0,2.5Z"></path>
          <path class="st9" d="M85.6,79.3c-.3,0-.5-.2-.5-.5s.2-.5.5-.5.5.2.5.5-.2.5-.5.5ZM85.6,82.6c-.3,0-.5-.2-.5-.5s.2-.5.5-.5.5.2.5.5-.2.5-.5.5Z"></path>
        </g>
        <g class="st4">
          <path class="st9" d="M28.1,173.2c0,.3.1.4.3.4s.3-.1.3-.1c0,0,.1.2.1.3,0,.1-.2.4-.8.4s-.6-.2-.7-.6h0c0,.2-.4.6-1.1.6s-1.1-.4-1.1-1.1,1-1.3,2-1.3h.2v-.4c0-.8-.2-1.1-.7-1.1s-.4,0-.4,0c0,.2-.1.5-.2.8,0,0-.1,0-.2,0-.3,0-.5-.1-.5-.4,0-.5.7-.9,1.5-.9s1.4.5,1.4,1.5v1.8ZM27,172.2c-.7,0-1.1.3-1.1.7s.2.6.6.6.6-.2.7-.4v-1h-.2Z"></path>
          <path class="st9" d="M33,173.6h.6c0,0,0,.1,0,.2,0,.2-.1.3-.3.3h-1.1c0,.1,0-.5,0-.5h0c-.1.2-.5.6-1.3.6s-1.3-.5-1.3-1.6v-2.2h-.6c0,0,0-.1,0-.2,0-.1.1-.2.3-.3h1.2c0-.1,0,2.6,0,2.6,0,.8.4,1,.8,1s.7-.2.9-.4v-2.7h-.6c0,0,0-.1,0-.2,0-.1.1-.2.3-.3h1.2c0-.1,0,3.6,0,3.6Z"></path>
          <path class="st9" d="M36.5,170.4h-1v3.2h.6c0,.1.1.2.1.2s0,.2,0,.2h-2s0,0,0,0c0-.2.1-.2.3-.3h.3v-3.3h-.6s0,0,0,0c0-.2.1-.2.3-.3h.4v-.2c0-1.4.8-2,1.6-2s.6.2.6.5-.1.3-.3.4c0,0-.3-.2-.6-.2s-.5.2-.5.7,0,.8,0,.8h1.1v.5Z"></path>
          <path class="st9" d="M40.8,170.4h-.7c.2.2.3.5.3.8,0,.9-.8,1.4-1.7,1.4s-.3,0-.4,0c-.1,0-.2.2-.2.4s.1.3.4.3h1c.8,0,1.2.4,1.2,1s-.8,1.6-2.3,1.6-1.6-.4-1.6-1,.5-.9.8-1h0c-.2-.1-.4-.3-.4-.6,0-.5.5-.7.6-.8h0c-.5-.2-.8-.7-.8-1.3,0-.9.8-1.4,1.6-1.4s.5,0,.7.1h1.5v.5ZM38.3,174c-.1,0-.2,0-.3,0-.2.1-.4.3-.4.6,0,.4.3.7.9.7s1.3-.4,1.3-.8-.2-.5-.6-.5h-.9ZM37.9,171.2c0,.7.3.9.8.9s.8-.3.8-.9-.3-.9-.8-.9-.8.3-.8.9Z"></path>
          <path class="st9" d="M42.6,170.6h0c.2-.3.5-.8,1.1-.8s.6.2.6.5,0,.4-.2.4c0,0-.3-.1-.6-.1-.5,0-.7.2-.9.4v2.6h.6c0,.1.1.2.1.2s0,.2,0,.2h-2.1s0,0,0,0c0-.2.1-.2.3-.3h.3v-3.3h-.6c0,0,0-.1,0-.2,0-.1.1-.2.3-.3h1.2c0-.1,0,.6,0,.6Z"></path>
          <path class="st9" d="M48.5,173.6h.6c0,0,0,.1,0,.2,0,.2-.1.3-.3.3h-1.1c0,.1,0-.5,0-.5h0c-.1.2-.5.6-1.3.6s-1.3-.5-1.3-1.6v-2.2h-.6c0,0,0-.1,0-.2,0-.1.1-.2.3-.3h1.2c0-.1,0,2.6,0,2.6,0,.8.4,1,.8,1s.7-.2.9-.4v-2.7h-.6c0,0,0-.1,0-.2,0-.1.1-.2.3-.3h1.2c0-.1,0,3.6,0,3.6Z"></path>
          <path class="st9" d="M53.7,173.6h.5c0,.1.1.2.1.2s0,.2,0,.2h-1.9s0,0,0,0c0-.2.1-.2.3-.3h.3v-2.3c0-.7-.4-1-.8-1s-.8.2-1,.4v2.7h.5c0,.1.1.2.1.2s0,.2,0,.2h-1.9s0,0,0,0c0-.2.1-.2.3-.3h.3v-3.3h-.6c0,0,0-.1,0-.2,0-.1.1-.2.3-.3h1.2c0-.1,0,.5,0,.5h0c.2-.2.6-.7,1.4-.7s1.3.5,1.3,1.5v2.3Z"></path>
          <path class="st9" d="M58.4,173.6h.6c0,0,0,.1,0,.2,0,.2-.1.3-.3.3h-1.1c0,.1,0-.5,0-.5h0c-.2.3-.5.6-1.2.6s-1.6-.5-1.6-2,1.1-2.3,2.2-2.3.5,0,.6,0v-1.5h-.6c0,0,0-.1,0-.2,0-.1.1-.2.3-.3h1.2c0-.1,0,5.6,0,5.6ZM57.6,170.6c-.1-.1-.4-.3-.7-.3-.7,0-1.2.5-1.2,1.6s.5,1.6,1.1,1.6.8-.2.9-.4v-2.6Z"></path>
          <path class="st9" d="M62.3,172c0,1.1.5,1.6,1.3,1.6s.9-.2,1.1-.4c0,0,.1.2.1.3,0,.2-.6.7-1.5.7s-1.8-.6-1.8-2.1.9-2.3,1.9-2.3,1.5.6,1.5,1.4,0,.5-.1.7h-2.3ZM63.8,171.6c0,0,0-.2,0-.4,0-.5-.2-.9-.7-.9s-.8.4-.9,1.2h1.5Z"></path>
          <path class="st9" d="M66.8,173.6h.5c0,.1.1.2.1.2s0,.2,0,.2h-2s0,0,0,0c0-.2.1-.2.3-.3h.3v-3.3h-.6c0,0,0-.1,0-.2,0-.1.1-.2.3-.3h1.2c0-.1,0,3.6,0,3.6ZM66.3,169c-.3,0-.6-.2-.6-.5s.2-.5.6-.5.6.2.6.5-.3.5-.6.5Z"></path>
          <path class="st9" d="M71.9,173.6h.5c0,.1.1.2.1.2s0,.2,0,.2h-1.9s0,0,0,0c0-.2.1-.2.3-.3h.3v-2.3c0-.7-.4-1-.8-1s-.8.2-1,.4v2.7h.5c0,.1.1.2.1.2s0,.2,0,.2h-1.9s0,0,0,0c0-.2.1-.2.3-.3h.3v-3.3h-.6c0,0,0-.1,0-.2,0-.1.1-.2.3-.3h1.2c0-.1,0,.5,0,.5h0c.2-.2.6-.7,1.4-.7s1.3.5,1.3,1.5v2.3Z"></path>
          <path class="st9" d="M73.9,172c0,1.1.5,1.6,1.3,1.6s.9-.2,1.1-.4c0,0,.1.2.1.3,0,.2-.6.7-1.5.7s-1.8-.6-1.8-2.1.9-2.3,1.9-2.3,1.5.6,1.5,1.4,0,.5-.1.7h-2.3ZM75.4,171.6c0,0,0-.2,0-.4,0-.5-.2-.9-.7-.9s-.8.4-.9,1.2h1.5Z"></path>
          <path class="st9" d="M79,170.5c0,0-.3-.2-.6-.2s-.6.1-.6.5.4.6.8.8c.5.3,1.1.6,1.1,1.3s-.6,1.2-1.5,1.2-.9-.1-1.1-.3c0-.2,0-.4,0-.7,0-.3,0-.5.4-.5s.1,0,.1,0l.2.7c0,0,.3.2.6.2.4,0,.7-.2.7-.5s-.4-.6-.8-.8c-.5-.3-1-.7-1-1.4s.6-1.1,1.4-1.1.8.2,1,.3c0,.1,0,.3,0,.5,0,.3,0,.5-.4.5s-.1,0-.1,0v-.6Z"></path>
          <path class="st9" d="M85.4,171h0c.8.2,1.4.6,1.4,1.4s-.8,1.7-2.3,1.7h-2.2s0,0,0,0c0-.1,0-.3.3-.3h.4v-5h-.5c0-.1-.1-.2-.1-.2,0,0,0-.2,0-.3h2c1.5,0,2.3.5,2.3,1.5s-.5,1.2-1.2,1.4ZM84.3,168.7h-.5v2.2h.5c1,0,1.4-.5,1.4-1.1s-.4-1.1-1.4-1.1ZM84.4,171.3h-.6v2.2h.5c1,0,1.4-.5,1.4-1.1s-.5-1.1-1.4-1.1Z"></path>
          <path class="st9" d="M88.4,172c0,1.1.5,1.6,1.3,1.6s.9-.2,1.1-.4c0,0,.1.2.1.3,0,.2-.6.7-1.5.7s-1.8-.6-1.8-2.1.9-2.3,1.9-2.3,1.5.6,1.5,1.4,0,.5-.1.7h-2.3ZM89.9,171.6c0,0,0-.2,0-.4,0-.5-.2-.9-.7-.9s-.8.4-.9,1.2h1.5Z"></path>
          <path class="st9" d="M93.6,170.5c0,0-.3-.2-.6-.2s-.6.1-.6.5.4.6.8.8c.5.3,1.1.6,1.1,1.3s-.6,1.2-1.5,1.2-.9-.1-1.1-.3c0-.2,0-.4,0-.7,0-.3,0-.5.4-.5s.1,0,.1,0l.2.7c0,0,.3.2.6.2.4,0,.7-.2.7-.5s-.4-.6-.8-.8c-.5-.3-1-.7-1-1.4s.6-1.1,1.4-1.1.8.2,1,.3c0,.1,0,.3,0,.5,0,.3,0,.5-.4.5s-.1,0-.1,0v-.6Z"></path>
          <path class="st9" d="M97,170.3c-.6,0-1.1.4-1.1,1.5s.4,1.7,1.2,1.7.8-.3,1-.4c0,0,.1.2.1.3,0,.2-.5.7-1.4.7s-1.8-.7-1.8-2.1,1-2.2,2.1-2.2,1.2.5,1.2.7-.1.4-.4.5c-.1-.3-.3-.7-.9-.7Z"></path>
          <path class="st9" d="M100.1,170.5h0c.2-.2.6-.6,1.3-.6s1.3.5,1.3,1.5v2.3h.5c0,.1.1.2.1.2s0,.2,0,.2h-1.9s0,0,0,0c0-.2.1-.2.3-.3h.3v-2.3c0-.7-.4-1-.8-1s-.8.2-1,.4v2.7h.5c0,.1.1.2.1.2s0,.2,0,.2h-1.9s0,0,0,0c0-.2.1-.2.3-.3h.3v-5.3h-.6c0,0,0-.1,0-.2,0-.1.1-.2.3-.3h1.2c0-.1,0,2.5,0,2.5Z"></path>
          <path class="st9" d="M105.2,173.6h.5c0,.1.1.2.1.2s0,.2,0,.2h-2s0,0,0,0c0-.2.1-.2.3-.3h.3v-5.3h-.6c0,0,0-.1,0-.2,0-.1.1-.2.3-.3h1.2c0-.1,0,5.7,0,5.7Z"></path>
          <path class="st9" d="M110.2,173.6h.6c0,0,0,.1,0,.2,0,.2-.1.3-.3.3h-1.1c0,.1,0-.5,0-.5h0c-.1.2-.5.6-1.3.6s-1.3-.5-1.3-1.6v-2.2h-.6c0,0,0-.1,0-.2,0-.1.1-.2.3-.3h1.2c0-.1,0,2.6,0,2.6,0,.8.4,1,.8,1s.7-.2.9-.4v-2.7h-.6c0,0,0-.1,0-.2,0-.1.1-.2.3-.3h1.2c0-.1,0,3.6,0,3.6Z"></path>
          <path class="st9" d="M113.2,170.5c0,0-.3-.2-.6-.2s-.6.1-.6.5.4.6.8.8c.5.3,1.1.6,1.1,1.3s-.6,1.2-1.5,1.2-.9-.1-1.1-.3c0-.2,0-.4,0-.7,0-.3,0-.5.4-.5s.1,0,.1,0l.2.7c0,0,.3.2.6.2.4,0,.7-.2.7-.5s-.4-.6-.8-.8c-.5-.3-1-.7-1-1.4s.6-1.1,1.4-1.1.8.2,1,.3c0,.1,0,.3,0,.5,0,.3,0,.5-.4.5s-.1,0-.1,0v-.6Z"></path>
          <path class="st9" d="M116.6,170.5c0,0-.3-.2-.6-.2s-.6.1-.6.5.4.6.8.8c.5.3,1.1.6,1.1,1.3s-.6,1.2-1.5,1.2-.9-.1-1.1-.3c0-.2,0-.4,0-.7,0-.3,0-.5.4-.5s.1,0,.1,0l.2.7c0,0,.3.2.6.2.4,0,.7-.2.7-.5s-.4-.6-.8-.8c-.5-.3-1-.7-1-1.4s.6-1.1,1.4-1.1.8.2,1,.3c0,.1,0,.3,0,.5,0,.3,0,.5-.4.5s-.1,0-.1,0v-.6Z"></path>
          <path class="st9" d="M119,172c0,1.1.5,1.6,1.3,1.6s.9-.2,1.1-.4c0,0,.1.2.1.3,0,.2-.6.7-1.5.7s-1.8-.6-1.8-2.1.9-2.3,1.9-2.3,1.5.6,1.5,1.4,0,.5-.1.7h-2.3ZM120.5,171.6c0,0,0-.2,0-.4,0-.5-.2-.9-.7-.9s-.8.4-.9,1.2h1.5Z"></path>
          <path class="st9" d="M124.1,170.5c0,0-.3-.2-.6-.2s-.6.1-.6.5.4.6.8.8c.5.3,1.1.6,1.1,1.3s-.6,1.2-1.5,1.2-.9-.1-1.1-.3c0-.2,0-.4,0-.7,0-.3,0-.5.4-.5s.1,0,.1,0l.2.7c0,0,.3.2.6.2.4,0,.7-.2.7-.5s-.4-.6-.8-.8c-.5-.3-1-.7-1-1.4s.6-1.1,1.4-1.1.8.2,1,.3c0,.1,0,.3,0,.5,0,.3,0,.5-.4.5s-.1,0-.1,0v-.6Z"></path>
        </g>
        <g class="st4">
          <path class="st9" d="M28.8,183.4h.6c0,0,0,.1,0,.2,0,.2-.1.3-.3.3h-1.1c0,.1,0-.5,0-.5h0c-.2.3-.5.6-1.2.6s-1.6-.5-1.6-2,1.1-2.3,2.2-2.3.5,0,.6,0v-1.5h-.6c0,0,0-.1,0-.2,0-.1.1-.2.3-.3h1.2c0-.1,0,5.6,0,5.6ZM27.9,180.4c-.1-.1-.4-.3-.7-.3-.7,0-1.2.5-1.2,1.6s.5,1.6,1.1,1.6.8-.2.9-.4v-2.6Z"></path>
          <path class="st9" d="M30.8,181.8c0,1.1.5,1.6,1.3,1.6s.9-.2,1.1-.4c0,0,.1.2.1.3,0,.2-.6.7-1.5.7s-1.8-.6-1.8-2.1.9-2.3,1.9-2.3,1.5.6,1.5,1.4,0,.5-.1.7h-2.3ZM32.3,181.4c0,0,0-.2,0-.4,0-.5-.2-.9-.7-.9s-.8.4-.9,1.2h1.5Z"></path>
          <path class="st9" d="M35.9,180.3c0,0-.3-.2-.6-.2s-.6.1-.6.5.4.6.8.8c.5.3,1.1.6,1.1,1.3s-.6,1.2-1.5,1.2-.9-.1-1.1-.3c0-.2,0-.4,0-.7,0-.3,0-.5.4-.5s.1,0,.1,0l.2.7c0,0,.3.2.6.2.4,0,.7-.2.7-.5s-.4-.6-.8-.8c-.5-.3-1-.7-1-1.4s.6-1.1,1.4-1.1.8.2,1,.3c0,.1,0,.3,0,.5,0,.3,0,.5-.4.5s-.1,0-.1,0v-.6Z"></path>
          <path class="st9" d="M41.1,183.9h-1.9s0,0,0,0c0-.1,0-.3.3-.3h.4v-5h-.5c0-.1-.1-.2-.1-.2,0,0,0-.2,0-.3h1.8c2.2,0,3.5.8,3.5,2.9s-1.3,3-3.5,3ZM41,178.5h-.3v4.9h.3c1.6,0,2.5-.8,2.5-2.5s-.9-2.4-2.5-2.4Z"></path>
          <path class="st9" d="M46.2,181.8c0,1.1.5,1.6,1.3,1.6s.9-.2,1.1-.4c0,0,.1.2.1.3,0,.2-.6.7-1.5.7s-1.8-.6-1.8-2.1.9-2.3,1.9-2.3,1.5.6,1.5,1.4,0,.5-.1.7h-2.3ZM47.7,181.4c0,0,0-.2,0-.4,0-.5-.2-.9-.7-.9s-.8.4-.9,1.2h1.5Z"></path>
          <path class="st9" d="M53.2,183.4h.6c0,0,0,.1,0,.2,0,.2-.1.3-.3.3h-1.1c0,.1,0-.5,0-.5h0c-.1.2-.5.6-1.3.6s-1.3-.5-1.3-1.6v-2.2h-.6c0,0,0-.1,0-.2,0-.1.1-.2.3-.3h1.2c0-.1,0,2.6,0,2.6,0,.8.4,1,.8,1s.7-.2.9-.4v-2.7h-.6c0,0,0-.1,0-.2,0-.1.1-.2.3-.3h1.2c0-.1,0,3.6,0,3.6Z"></path>
          <path class="st9" d="M56.7,180.2h-1.2v2.5c0,.4.1.7.5.7s.6-.1.7-.2c0,0,0,.2,0,.3s-.3.5-1.1.5-1.1-.5-1.1-1.1v-2.7h-.6s0,0,0,0c0-.2.1-.3.3-.3h.4c0-.1.2-1.3.2-1.3h.6v1.2h1.3v.5Z"></path>
          <path class="st9" d="M59.3,180.3c0,0-.3-.2-.6-.2s-.6.1-.6.5.4.6.8.8c.5.3,1.1.6,1.1,1.3s-.6,1.2-1.5,1.2-.9-.1-1.1-.3c0-.2,0-.4,0-.7,0-.3,0-.5.4-.5s.1,0,.1,0l.2.7c0,0,.3.2.6.2.4,0,.7-.2.7-.5s-.4-.6-.8-.8c-.5-.3-1-.7-1-1.4s.6-1.1,1.4-1.1.8.2,1,.3c0,.1,0,.3,0,.5,0,.3,0,.5-.4.5s-.1,0-.1,0v-.6Z"></path>
          <path class="st9" d="M62.6,180.2c-.6,0-1.1.4-1.1,1.5s.4,1.7,1.2,1.7.8-.3,1-.4c0,0,.1.2.1.3,0,.2-.5.7-1.4.7s-1.8-.7-1.8-2.1,1-2.2,2.1-2.2,1.2.5,1.2.7-.1.4-.4.5c-.1-.3-.3-.7-.9-.7Z"></path>
          <path class="st9" d="M65.8,180.3h0c.2-.2.6-.6,1.3-.6s1.3.5,1.3,1.5v2.3h.5c0,.1.1.2.1.2s0,.2,0,.2h-1.9s0,0,0,0c0-.2.1-.2.3-.3h.3v-2.3c0-.7-.4-1-.8-1s-.8.2-1,.4v2.7h.5c0,.1.1.2.1.2s0,.2,0,.2h-1.9s0,0,0,0c0-.2.1-.2.3-.3h.3v-5.3h-.6c0,0,0-.1,0-.2,0-.1.1-.2.3-.3h1.2c0-.1,0,2.5,0,2.5Z"></path>
          <path class="st9" d="M70.5,181.8c0,1.1.5,1.6,1.3,1.6s.9-.2,1.1-.4c0,0,.1.2.1.3,0,.2-.6.7-1.5.7s-1.8-.6-1.8-2.1.9-2.3,1.9-2.3,1.5.6,1.5,1.4,0,.5-.1.7h-2.3ZM72,181.4c0,0,0-.2,0-.4,0-.5-.2-.9-.7-.9s-.8.4-.9,1.2h1.5Z"></path>
          <path class="st9" d="M77.7,183.4h.5c0,.1.1.2.1.2s0,.2,0,.2h-1.9s0,0,0,0c0-.2.1-.2.3-.3h.3v-2.3c0-.7-.4-1-.8-1s-.8.2-1,.4v2.7h.5c0,.1.1.2.1.2s0,.2,0,.2h-1.9s0,0,0,0c0-.2.1-.2.3-.3h.3v-3.3h-.6c0,0,0-.1,0-.2,0-.1.1-.2.3-.3h1.2c0-.1,0,.5,0,.5h0c.2-.2.6-.7,1.4-.7s1.3.5,1.3,1.5v2.3Z"></path>
          <path class="st9" d="M83.7,180.8h0c.8.2,1.4.6,1.4,1.4s-.8,1.7-2.3,1.7h-2.2s0,0,0,0c0-.1,0-.3.3-.3h.4v-5h-.5c0-.1-.1-.2-.1-.2,0,0,0-.2,0-.3h2c1.5,0,2.3.5,2.3,1.5s-.5,1.2-1.2,1.4ZM82.6,178.5h-.5v2.2h.5c1,0,1.4-.5,1.4-1.1s-.4-1.1-1.4-1.1ZM82.7,181.1h-.6v2.2h.5c1,0,1.4-.5,1.4-1.1s-.5-1.1-1.4-1.1Z"></path>
          <path class="st9" d="M89.7,183.4h.6c0,0,0,.1,0,.2,0,.2-.1.3-.3.3h-1.1c0,.1,0-.5,0-.5h0c-.1.2-.5.6-1.3.6s-1.3-.5-1.3-1.6v-2.2h-.6c0,0,0-.1,0-.2,0-.1.1-.2.3-.3h1.2c0-.1,0,2.6,0,2.6,0,.8.4,1,.8,1s.7-.2.9-.4v-2.7h-.6c0,0,0-.1,0-.2,0-.1.1-.2.3-.3h1.2c0-.1,0,3.6,0,3.6Z"></path>
          <path class="st9" d="M94.8,183.4h.5c0,.1.1.2.1.2s0,.2,0,.2h-1.9s0,0,0,0c0-.2.1-.2.3-.3h.3v-2.3c0-.7-.4-1-.8-1s-.8.2-1,.4v2.7h.5c0,.1.1.2.1.2s0,.2,0,.2h-1.9s0,0,0,0c0-.2.1-.2.3-.3h.3v-3.3h-.6c0,0,0-.1,0-.2,0-.1.1-.2.3-.3h1.2c0-.1,0,.5,0,.5h0c.2-.2.6-.7,1.4-.7s1.3.5,1.3,1.5v2.3Z"></path>
          <path class="st9" d="M99.6,183.4h.6c0,0,0,.1,0,.2,0,.2-.1.3-.3.3h-1.1c0,.1,0-.5,0-.5h0c-.2.3-.5.6-1.2.6s-1.6-.5-1.6-2,1.1-2.3,2.2-2.3.5,0,.6,0v-1.5h-.6c0,0,0-.1,0-.2,0-.1.1-.2.3-.3h1.2c0-.1,0,5.6,0,5.6ZM98.7,180.4c-.1-.1-.4-.3-.7-.3-.7,0-1.2.5-1.2,1.6s.5,1.6,1.1,1.6.8-.2.9-.4v-2.6Z"></path>
          <path class="st9" d="M101.6,181.8c0,1.1.5,1.6,1.3,1.6s.9-.2,1.1-.4c0,0,.1.2.1.3,0,.2-.6.7-1.5.7s-1.8-.6-1.8-2.1.9-2.3,1.9-2.3,1.5.6,1.5,1.4,0,.5-.1.7h-2.3ZM103.1,181.4c0,0,0-.2,0-.4,0-.5-.2-.9-.7-.9s-.8.4-.9,1.2h1.5Z"></path>
          <path class="st9" d="M106.7,180.3c0,0-.3-.2-.6-.2s-.6.1-.6.5.4.6.8.8c.5.3,1.1.6,1.1,1.3s-.6,1.2-1.5,1.2-.9-.1-1.1-.3c0-.2,0-.4,0-.7,0-.3,0-.5.4-.5s.1,0,.1,0l.2.7c0,0,.3.2.6.2.4,0,.7-.2.7-.5s-.4-.6-.8-.8c-.5-.3-1-.7-1-1.4s.6-1.1,1.4-1.1.8.2,1,.3c0,.1,0,.3,0,.5,0,.3,0,.5-.4.5s-.1,0-.1,0v-.6Z"></path>
          <path class="st9" d="M110.6,180.2h-1.2v2.5c0,.4.1.7.5.7s.6-.1.7-.2c0,0,0,.2,0,.3s-.3.5-1.1.5-1.1-.5-1.1-1.1v-2.7h-.6s0,0,0,0c0-.2.1-.3.3-.3h.4c0-.1.2-1.3.2-1.3h.6v1.2h1.3v.5Z"></path>
          <path class="st9" d="M114.1,183c0,.3.1.4.3.4s.3-.1.3-.1c0,0,.1.2.1.3,0,.1-.2.4-.8.4s-.6-.2-.7-.6h0c0,.2-.4.6-1.1.6s-1.1-.4-1.1-1.1,1-1.3,2-1.3h.2v-.4c0-.8-.2-1.1-.7-1.1s-.4,0-.4,0c0,.2-.1.5-.2.8,0,0-.1,0-.2,0-.3,0-.5-.1-.5-.4,0-.5.7-.9,1.5-.9s1.4.5,1.4,1.5v1.8ZM113.1,182c-.7,0-1.1.3-1.1.7s.2.6.6.6.6-.2.7-.4v-1h-.2Z"></path>
          <path class="st9" d="M119,180.2h-.7c.2.2.3.5.3.8,0,.9-.8,1.4-1.7,1.4s-.3,0-.4,0c-.1,0-.2.2-.2.4s.1.3.4.3h1c.8,0,1.2.4,1.2,1s-.8,1.6-2.3,1.6-1.6-.4-1.6-1,.5-.9.8-1h0c-.2-.1-.4-.3-.4-.6,0-.5.5-.7.6-.8h0c-.5-.2-.8-.7-.8-1.3,0-.9.8-1.4,1.6-1.4s.5,0,.7.1h1.5v.5ZM116.5,183.8c-.1,0-.2,0-.3,0-.2.1-.4.3-.4.6,0,.4.3.7.9.7s1.3-.4,1.3-.8-.2-.5-.6-.5h-.9ZM116.2,181c0,.7.3.9.8.9s.8-.3.8-.9-.3-.9-.8-.9-.8.3-.8.9Z"></path>
          <path class="st9" d="M120.4,181.8c0,1.1.5,1.6,1.3,1.6s.9-.2,1.1-.4c0,0,.1.2.1.3,0,.2-.6.7-1.5.7s-1.8-.6-1.8-2.1.9-2.3,1.9-2.3,1.5.6,1.5,1.4,0,.5-.1.7h-2.3ZM121.9,181.4c0,0,0-.2,0-.4,0-.5-.2-.9-.7-.9s-.8.4-.9,1.2h1.5Z"></path>
          <path class="st9" d="M125.5,180.3c0,0-.3-.2-.6-.2s-.6.1-.6.5.4.6.8.8c.5.3,1.1.6,1.1,1.3s-.6,1.2-1.5,1.2-.9-.1-1.1-.3c0-.2,0-.4,0-.7,0-.3,0-.5.4-.5s.1,0,.1,0l.2.7c0,0,.3.2.6.2.4,0,.7-.2.7-.5s-.4-.6-.8-.8c-.5-.3-1-.7-1-1.4s.6-1.1,1.4-1.1.8.2,1,.3c0,.1,0,.3,0,.5,0,.3,0,.5-.4.5s-.1,0-.1,0v-.6Z"></path>
        </g>
        <path class="st5" d="M36.5,107.1c0-.2,0-.4,0-.6s0-.2,0-.4c1.6,0,3.1-1.2,3.1-2.5s-.4-1.2-.7-1.5c0,0,.1,0,.2,0,.2.2.9.9.9,1.9,0,1.6-1.6,3.1-3.5,3.2M34.8,101.4c0-.2,0-.3-.2-.5,0-.2,0-.3.3-.2-.1.1,0,.4,0,.4,0,0,.3-.1.2-.3.4.1.1.7-.3.6M34.5,102.3c0-.2-.2-.5-.3-.7-.1-.2-.4-.4-.7-.4s-.4,0-.5.1c0-.1-.2-.4-.2-.5s.2-.2.6-.2c.8,0,1.3.4,1.3,1s0,.4-.2.6M36.6,113.1c0,0,.1,0,.2,0,.2.7,1.2,1.9,1.2,2h0s0,0,0,0c.2,0,.8-.1,1.3-.1h0c0,0,.1,0,.1,0s0,0,0,.2c0,.1,0,.3-.1.4-.2-.2-.5-.3-.9-.3s-.3,0-.4,0h0s0,0,0,0l.3.3c.4.4.7.7.7,1s-.1.3-.3.4c0-.4-.5-1-.9-1.3h0s0,.1,0,.1c0,0,0,.2,0,.4,0,.8,0,.9-.4.9s-.1,0-.1,0c.2-.2.2-.4.2-.9v-.2s0-.2,0-.2c0-.2,0-.3,0-.4h0c0,0,0,0,0,0-.1,0-.4,0-.6,0-.4,0-.7,0-.9.2-.1-.1-.3-.3-.3-.4,0-.2.1-.2.2-.2s.1,0,.2,0c.2,0,.4,0,.9,0h0,0c-.1-.4-.5-1-1.1-1.7,0-.2.1-.3.3-.3M31.6,115.1h0s0,0,0,0c.5,0,.8,0,.9,0,0,0,.2,0,.2,0,.1,0,.2,0,.2.2s-.1.3-.3.4c-.2-.2-.5-.2-.9-.2s-.4,0-.6,0h0s0,0,0,0h0c0,.2,0,.3,0,.5v.2s0,.2,0,.2c0,.4,0,.7.2.9,0,0-.1,0-.1,0-.3,0-.4-.1-.4-.9s0-.3,0-.4v-.2s0,0,0,0c-.4.3-.8.9-.9,1.3-.1,0-.3-.3-.3-.4,0-.2.3-.6.7-1l.2-.2h0s0,0,0,0c0,0-.2,0-.4,0-.4,0-.7,0-.9.3,0,0-.1-.3-.1-.4s0-.1,0-.2,0,0,.2,0h0c.5,0,1.1,0,1.3.1h0s0,0,0,0c0,0,1-1.3,1.2-2,0,0,.1,0,.2,0,.2,0,.2.1.3.3-.6.7-.9,1.3-1.1,1.6M29.1,103.9c0-.9.7-1.7.9-1.9,0,0,.1,0,.2,0-.3.3-.7.8-.7,1.5,0,1.4,1.5,2.5,3.1,2.5,0,.1,0,.2,0,.4,0,.2,0,.4,0,.6-1.9,0-3.5-1.5-3.5-3.2M41.6,106.8c.8,1.3,1.5,1.3,2.5,1.3-.8-.6-1.4-1.4-1.6-1.8l-1.5-2.4c-.1-.8-.5-1.5-1.1-2,.2,0,.4-.2.5-.2-1,0-2-.5-2.5-.5s-.6.2-.6.5c0,.3.3.6.9.6s.3,0,.5,0c.3.4.6.8.6,1.4,0,1.1-1.3,1.9-2.6,1.9s-.1,0-.2,0c-.1-.3-.5-.7-.5-1.2,0-.9.6-1.5.6-2.4s-.3-.8-.4-1c.2-.1.3-.3.4-.5,0,0-.2,0-.4,0-.6,0-1.1-.2-1.6-.2s-.4,0-.4.2,0,0,0,0c-.1,0-.2,0-.3,0-.1,0-.3,0-.5,0-.6,0-.8.2-.8.5s.1.5.3.8c.2-.1.5-.2.6-.2.3,0,.6.3.7.7-.2,0-.3,0-.5,0-.6,0-1-.2-1.1-.2s0,0,0,0c0,0,.2.3.5.4.4.2,1.1.2,1.2.2,0,0-.1.2-.2.3,0,0,0,0,0,0-.4,0-.6-.1-1.1-.3,0,0,0,0,0,0,0,.2.6.7,1.1.9-.4.6-1,1.1-1.2,2,0,0-.1,0-.2,0-1.3,0-2.6-.8-2.6-1.9s.3-1,.6-1.4c.2,0,.4,0,.5,0,.6,0,.9-.3.9-.6,0-.3-.2-.5-.6-.5-.5,0-1.5.5-2.5.5,0,0,.3.2.5.2-.6.5-1,1.2-1.1,2l-1.5,2.4c-.3.4-.8,1.2-1.6,1.8,1,0,1.6,0,2.5-1.3l.8-1.3c0,.2.1.3.2.5l-1.6,2.5c-.3.4-.8,1.2-1.6,1.8,1,0,1.6,0,2.5-1.3l1.3-2.1c.1.1.2.2.3.3l-1.9,3c-.3.4-.8,1.2-1.6,1.8,1,0,1.6,0,2.5-1.3l1.8-3c.1,0,.2.2.4.2l-2.3,3.6c-.3.4-.8,1.2-1.6,1.8,1,0,1.6,0,2.5-1.3l2.3-3.7c.1,0,.3.1.4.1l-2.6,4.2c-.3.4-.8,1.2-1.6,1.8,1,0,1.6,0,2.5-1.3l2.8-4.5s0,0,0,0c0,.2.1.5.1.7,0,1.4-.9,2.6-2,3.6,0,0,.2,0,.3,0,.2,0,.4,0,.5,0-.3.6-.8,1.3-1.1,1.7-.4,0-.9-.1-1.2-.1s-.4.2-.4.4c0,.3.2.6.3.7,0-.2.2-.4.9-.4s0,0,0,0c-.2.2-.8.7-.8,1.1s.3.7.7.7c0,0,0-.2,0-.2,0-.3.3-.7.5-1,0,0,0,0,0,.2,0,.8,0,1.1.6,1.1s.4-.1.5-.2c-.3-.3-.3-.5-.3-.9s0-.2,0-.4c0,0,0-.2,0-.3.2,0,.2,0,.4,0,0,0,.7,0,.9.3.2-.2.5-.4.5-.7s0-.4-.4-.4-.6,0-.9,0c0-.2.5-.8.9-1.3,0,.2.1.4.3.5,0-.3.2-1.2.6-1.7,0,.4.1.7.1,1.5,0,1.9-.5,3.3-1.4,3.6.1.2.4.4.7.4s.5-.4.7-.8c.1.3.4,1,.7,1s.6-.7.7-1c.2.4.4.8.7.8s.5-.2.7-.4c-1-.3-1.4-1.7-1.4-3.6s0-1.1.1-1.5c.5.5.6,1.4.6,1.7.2-.2.3-.3.3-.5.4.4.8,1.1.9,1.3-.4,0-.8,0-.9,0-.4,0-.4.2-.4.4,0,.3.3.5.5.7.2-.4.9-.3.9-.3.1,0,.2,0,.4,0,0,0,0,.2,0,.3v.4c0,.4,0,.7-.3.9,0,0,.2.2.5.2.5,0,.6-.4.6-1.1s0,0,0-.2c.2.3.5.6.5,1s0,.1,0,.2c.4,0,.7-.4.7-.7,0-.4-.6-.9-.8-1.1,0,0,0,0,0,0,.7,0,.8.2.9.4.2-.1.3-.4.3-.7s0-.4-.4-.4-.9,0-1.2.1c-.3-.4-.8-1.1-1.1-1.7.1,0,.3,0,.5,0s.2,0,.3,0c-1.1-1-2-2.2-2-3.6s0-.5.1-.7c0,0,0,0,0,0l2.8,4.5c.8,1.3,1.5,1.3,2.5,1.3-.8-.6-1.4-1.4-1.6-1.8l-2.6-4.2c.1,0,.3,0,.4-.1l2.3,3.7c.8,1.3,1.5,1.3,2.5,1.3-.8-.6-1.4-1.4-1.6-1.8l-2.2-3.6c.1,0,.3-.1.4-.2l1.8,3c.8,1.3,1.5,1.3,2.5,1.3-.8-.6-1.4-1.4-1.6-1.8l-1.9-3c.1,0,.2-.2.3-.3l1.3,2.1c.8,1.3,1.5,1.3,2.5,1.3-.8-.6-1.4-1.4-1.6-1.8l-1.6-2.5c0-.2.2-.3.2-.5l.8,1.3ZM41.6,106.8"></path>
        <g class="st4">
          <rect class="st9" x="49" y="101.1" width="2.9" height="16.3"></rect>
          <rect class="st11" x="49" y="117.4" width="2.9" height="16.3"></rect>
          <rect class="st0" x="49" y="133.8" width="2.9" height="16.3"></rect>
        </g>
        <g class="st4">
          <path class="st8" d="M61.9,102.6c0-1-.6-1.7-2.2-1.7h-1.3v6.8h1.4c1.6,0,2.3-.8,2.3-1.8s-.6-1.5-1.3-1.6h0c.6-.2,1.1-.6,1.1-1.6h0ZM61,102.6c0,.8-.5,1.3-1.4,1.3h-.4v-2.3h.5c1,0,1.4.5,1.4,1.1h0ZM61.2,105.7c0,.8-.4,1.2-1.4,1.2h-.5v-2.4h.6c.9,0,1.4.5,1.4,1.2h0ZM65.7,107.1h0v.5h.7v-4.7h-.8v3.6c-.2.2-.5.5-1,.5s-.8-.3-.8-1.1v-3h-.8v3.1c0,1.3.5,1.7,1.4,1.7s1.1-.5,1.2-.6h0ZM69.4,103.5c.5,0,.8.3.8,1.1v3h.8v-3.1c0-1.3-.5-1.7-1.4-1.7s-1.2.5-1.2.6h0v-.5h-.7v4.7h.8v-3.6c.2-.2.5-.5,1-.5h0ZM73.8,107c-.5,0-1-.4-1-1.7s.6-1.8,1.3-1.8.5,0,.6.2v2.9c-.1.2-.4.5-.9.5h0ZM74.7,107.1h0v.5h.7v-7h-.8v2.3c-.1,0-.4-.1-.7-.1-1,0-2.1.6-2.1,2.5s.8,2.4,1.6,2.4,1.1-.5,1.1-.6h0ZM78.2,103.5c.5,0,.8.4.8,1s0,.3,0,.3h-1.7c0-.9.4-1.4,1-1.4h0ZM79.8,107.2l-.3-.6c-.1.1-.4.4-1,.4-.8,0-1.2-.5-1.3-1.6h2.4c0-.2,0-.5,0-.9,0-1.1-.5-1.7-1.4-1.7s-1.8.7-1.8,2.4.7,2.5,1.9,2.5,1.3-.4,1.4-.6h0ZM83.2,103.3c-.2-.2-.5-.5-1.2-.5s-1.4.5-1.4,1.2.4,1,.9,1.4l.3.2c.5.3.7.4.7.9s-.3.5-.7.5-.8-.3-1-.5l-.4.6c.2.2.6.5,1.3.5s1.5-.6,1.5-1.3-.4-1.1-1-1.5l-.3-.2c-.4-.3-.6-.4-.6-.8s.2-.5.6-.5.7.3.8.4l.3-.6ZM86,103.5c.5,0,.7.3.7,1.1v3h.8v-3.2c0-.2,0-.3,0-.5.2-.2.5-.5.9-.5s.8.3.8,1.1v3h.8v-3.2c0-1.1-.5-1.7-1.4-1.7s-1,.4-1.2.6c-.2-.4-.6-.6-1.1-.6s-1,.4-1.2.6h0v-.5h-.7v4.7h.8v-3.6c.1-.2.4-.5,1-.5h0ZM91.5,101.8c.3,0,.5-.2.5-.6s-.2-.6-.5-.6-.5.2-.5.6.2.6.5.6h0ZM91.9,102.9h-.8v4.7h.8v-4.7ZM94.9,103.5c.5,0,.8.3.8,1.1v3h.8v-3.1c0-1.3-.5-1.7-1.4-1.7s-1.2.5-1.2.6h0v-.5h-.7v4.7h.8v-3.6c.2-.2.5-.5,1-.5h0ZM98.1,101.8c.3,0,.5-.2.5-.6s-.2-.6-.5-.6-.5.2-.5.6.2.6.5.6h0ZM98.5,102.9h-.8v4.7h.8v-4.7ZM102.1,103.3c-.2-.2-.5-.5-1.2-.5s-1.4.5-1.4,1.2.4,1,.9,1.4l.3.2c.5.3.7.4.7.9s-.3.5-.7.5-.8-.3-1-.5l-.4.6c.2.2.6.5,1.3.5s1.5-.6,1.5-1.3-.4-1.1-1-1.5l-.3-.2c-.4-.3-.6-.4-.6-.8s.2-.5.6-.5.7.3.8.4l.3-.6ZM105.3,107.5v-.6c-.2,0-.4.1-.6.1-.4,0-.6-.2-.6-.9v-2.6h1v-.6c0,0-1,0-1,0v-1.3h-.7v1.3c0,0-.7.1-.7.1v.5h.6v2.7c0,1,.4,1.5,1.2,1.5s.7-.2.7-.2h0ZM107.5,103.5c.5,0,.8.4.8,1s0,.3,0,.3h-1.7c0-.9.4-1.4,1-1.4h0ZM109.1,107.2l-.3-.6c-.1.1-.4.4-1,.4-.8,0-1.2-.5-1.3-1.6h2.4c0-.2,0-.5,0-.9,0-1.1-.5-1.7-1.4-1.7s-1.8.7-1.8,2.4.7,2.5,1.9,2.5,1.3-.4,1.4-.6h0ZM112.2,102.9c0,0-.2,0-.4,0-.6,0-.9.4-1,.7h0v-.6h-.7v4.7h.8v-3.4c.1-.3.4-.6.9-.6s.4,0,.4,0v-.7ZM113.3,101.8c.3,0,.5-.2.5-.6s-.2-.6-.5-.6-.5.2-.5.6.2.6.5.6h0ZM113.7,102.9h-.8v4.7h.8v-4.7ZM117.5,107.1h0v.5h.7v-4.7h-.8v3.6c-.2.2-.5.5-1,.5s-.8-.3-.8-1.1v-3h-.8v3.1c0,1.3.5,1.7,1.4,1.7s1.1-.5,1.2-.6h0ZM121.2,103.5c.5,0,.7.3.7,1.1v3h.8v-3.2c0-.2,0-.3,0-.5.2-.2.5-.5.9-.5s.8.3.8,1.1v3h.8v-3.2c0-1.1-.5-1.7-1.4-1.7s-1,.4-1.2.6c-.2-.4-.6-.6-1.1-.6s-1,.4-1.2.6h0v-.5h-.7v4.7h.8v-3.6c.1-.2.4-.5,1-.5h0ZM121.2,103.5"></path>
          <path class="st8" d="M60.2,113.4v-.6c0,0-1,0-1,0v-.8c0-.6.2-.8.6-.8s.4,0,.4.1l.2-.7c0,0-.3-.2-.7-.2-.7,0-1.3.4-1.3,1.4v.9h-.6v.6h.6v4.1h.8v-4.1h1ZM63.8,111.4c0-.3-.2-.5-.5-.5s-.5.2-.5.5.2.5.5.5.5-.2.5-.5h0ZM62.3,111.4c0-.3-.2-.5-.5-.5s-.5.2-.5.5.2.5.5.5.5-.2.5-.5h0ZM63.5,116.9h0v.5h.7v-4.7h-.8v3.6c-.2.2-.5.5-1,.5s-.8-.3-.8-1.1v-3h-.8v3.1c0,1.3.5,1.7,1.4,1.7s1.1-.5,1.2-.6h0ZM67.6,112.7c0,0-.2,0-.4,0-.6,0-.9.4-1,.7h0v-.6h-.7v4.7h.8v-3.4c.1-.3.4-.6.9-.6s.4,0,.4,0v-.7ZM76.1,110.7l-.9,4.1c-.1.6-.3,1.3-.3,1.6h0c0-.3-.1-.9-.3-1.5l-1-4.1h-.8l-1,4.1c-.1.6-.3,1.3-.3,1.6h0c0-.3-.1-.9-.3-1.5l-.8-4.1h-.9l1.6,6.8h.8l1-4.3c.1-.6.3-1.1.3-1.4h0c0,.3.1.9.3,1.4l1,4.3h.8l1.6-6.8h-.9ZM78.1,111.6c.3,0,.5-.2.5-.6s-.2-.6-.5-.6-.5.2-.5.6.2.6.5.6h0ZM78.5,112.7h-.8v4.7h.8v-4.7ZM81.8,112.7c0,0-.2,0-.4,0-.6,0-.9.4-1,.7h0v-.6h-.7v4.7h.8v-3.4c.1-.3.4-.6.9-.6s.4,0,.4,0v-.7ZM84.7,117.3v-.6c-.2,0-.4.1-.6.1-.4,0-.6-.2-.6-.9v-2.6h1v-.6c0,0-1,0-1,0v-1.3h-.7v1.3c0,0-.7.1-.7.1v.5h.6v2.7c0,1,.4,1.5,1.2,1.5s.7-.2.7-.2h0ZM87.8,113.1c-.2-.2-.5-.5-1.2-.5s-1.4.5-1.4,1.2.4,1,.9,1.4l.3.2c.5.3.7.4.7.9s-.3.5-.7.5-.8-.3-1-.5l-.4.6c.2.2.6.5,1.3.5s1.5-.6,1.5-1.3-.4-1.1-1-1.5l-.3-.2c-.4-.3-.6-.4-.6-.8s.2-.5.6-.5.7.3.8.4l.3-.6ZM91.8,113.1c-.1-.2-.5-.5-1.2-.5s-2,.7-2,2.5.8,2.5,1.9,2.5,1.1-.3,1.2-.5l-.3-.5c0,.1-.3.3-.8.3s-1.1-.5-1.1-1.8.5-1.7,1.2-1.7.7.3.8.4l.3-.6ZM94.4,113.3c.6,0,.8.3.8,1.1v3h.8v-3.1c0-1.2-.5-1.7-1.3-1.7s-1.1.5-1.2.6h0v-2.8h-.8v7h.8v-3.6c.2-.2.5-.5,1-.5h0ZM99.1,114.8h-.2c-1.1,0-2,.4-2,1.5s.5,1.3,1.3,1.3.9-.4,1-.6h0c0,.2,0,.4,0,.5h.8c0-.1,0-.6,0-1v-2.1c0-1.2-.5-1.7-1.5-1.7s-1.2.4-1.4.6l.3.5c.2-.2.5-.4,1-.4s.8.3.8,1v.5ZM99.1,115.4v1c0,.1-.3.5-.8.5s-.6-.2-.6-.7.4-.7,1.2-.8h.3ZM103.1,113.4v-.6c0,0-1,0-1,0v-.8c0-.6.2-.8.6-.8s.4,0,.4.1l.2-.7c0,0-.3-.2-.7-.2-.7,0-1.3.4-1.3,1.4v.9h-.6v.6h.6v4.1h.8v-4.1h1ZM106,117.3v-.6c-.2,0-.4.1-.6.1-.4,0-.6-.2-.6-.9v-2.6h1v-.6c0,0-1,0-1,0v-1.3h-.7v1.3c0,0-.7.1-.7.1v.5h.6v2.7c0,1,.4,1.5,1.2,1.5s.7-.2.7-.2h0ZM106,117.3"></path>
          <path class="st8" d="M60.7,126.7h0v.5h.7v-4.7h-.8v3.6c-.2.2-.5.5-1,.5s-.8-.3-.8-1.1v-3h-.8v3.1c0,1.3.5,1.7,1.4,1.7s1.1-.5,1.2-.6h0ZM64.4,123.1c.5,0,.8.3.8,1.1v3h.8v-3.1c0-1.3-.5-1.7-1.4-1.7s-1.2.5-1.2.6h0v-.5h-.7v4.7h.8v-3.6c.2-.2.5-.5,1-.5h0ZM68.9,126.7c-.5,0-1-.4-1-1.7s.6-1.8,1.3-1.8.5,0,.6.2v2.9c-.1.2-.4.5-.9.5h0ZM69.8,126.7h0v.5h.7v-7h-.8v2.3c-.1,0-.4-.1-.7-.1-1,0-2.1.6-2.1,2.5s.8,2.4,1.6,2.4,1.1-.5,1.1-.6h0ZM77.3,120.5h-3.3v6.8h3.5v-.7c0,0-2.6,0-2.6,0v-2.4h2.2v-.7h-2.2v-2.3h2.4v-.7ZM80.3,123.1c.5,0,.8.3.8,1.1v3h.8v-3.1c0-1.3-.5-1.7-1.4-1.7s-1.2.5-1.2.6h0v-.5h-.7v4.7h.8v-3.6c.2-.2.5-.5,1-.5h0ZM84.6,123.1c.5,0,.8.4.8,1s0,.3,0,.3h-1.7c0-.9.4-1.4,1-1.4h0ZM86.2,126.8l-.3-.6c-.1.1-.4.4-1,.4-.8,0-1.2-.5-1.3-1.6h2.4c0-.2,0-.5,0-.9,0-1.1-.5-1.7-1.4-1.7s-1.8.7-1.8,2.4.7,2.5,1.9,2.5,1.3-.4,1.4-.6h0ZM89.3,122.5c0,0-.2,0-.4,0-.6,0-.9.4-1,.7h0v-.6h-.7v4.7h.8v-3.4c.1-.3.4-.6.9-.6s.4,0,.4,0v-.7ZM92.1,124c0,.7-.4.9-.8.9s-.8-.3-.8-.9.4-.9.8-.9.8.3.8.9h0ZM93.3,127.6c0-.9-.7-1.2-1.6-1.2h-.6c-.3,0-.5-.1-.5-.3s.2-.4.4-.4c0,0,.2,0,.2,0,.9,0,1.6-.6,1.6-1.6s0-.6-.2-.8h.6v-.6c.1,0-1.3,0-1.3,0-.2,0-.4-.1-.6-.1-.9,0-1.6.5-1.6,1.6s.3,1.2.8,1.4h0c-.1,0-.6.3-.6.8s.1.5.3.7h0c-.2.1-.8.5-.8,1.2s.5,1.3,1.5,1.3,2.3-.7,2.3-1.7h0ZM91.1,128.6c-.6,0-.8-.3-.8-.8s.3-.7.5-.8c.1,0,.2,0,.4,0h.6c.5,0,.8.2.8.6s-.4.9-1.4.9h0ZM94.6,121.4c.3,0,.5-.2.5-.6s-.2-.6-.5-.6-.5.2-.5.6.2.6.5.6h0ZM95,122.5h-.8v4.7h.8v-4.7ZM97.7,123.1c.5,0,.8.4.8,1s0,.3,0,.3h-1.7c0-.9.4-1.4,1-1.4h0ZM99.3,126.8l-.3-.6c-.1.1-.4.4-1,.4-.8,0-1.2-.5-1.3-1.6h2.4c0-.2,0-.5,0-.9,0-1.1-.5-1.7-1.4-1.7s-1.8.7-1.8,2.4.7,2.5,1.9,2.5,1.3-.4,1.4-.6h0ZM99.3,126.8"></path>
        </g>
      </g>
    </g>
  </g>
  <metadata></metadata>
</svg>
